<svg width="41" height="41" viewBox="0 0 41 41" fill="none" xmlns="http://www.w3.org/2000/svg">
<path d="M36.0451 16.9118C36.0451 11.7138 31.6557 7.5 26.2412 7.5C20.8266 7.5 16.4373 11.7138 16.4373 16.9118C16.4373 22.1097 20.8266 26.3235 26.2412 26.3235C31.6557 26.3235 36.0451 22.1097 36.0451 16.9118Z" fill="#CAE1F0"/>
<path d="M17.6787 32.3737C23.3571 32.3737 27.9603 27.7705 27.9603 22.0921C27.9603 16.4138 23.3571 11.8105 17.6787 11.8105C12.0003 11.8105 7.39709 16.4138 7.39709 22.0921C7.39709 27.7705 12.0003 32.3737 17.6787 32.3737Z" stroke="#339EEC" stroke-width="1.91667" stroke-linecap="round" stroke-linejoin="round"/>
<path d="M17.6786 26.2044V22.0918" stroke="#339EEC" stroke-width="1.91667" stroke-linecap="round" stroke-linejoin="round"/>
<path d="M17.6786 17.9785H17.6893" stroke="#339EEC" stroke-width="1.91667" stroke-linecap="round" stroke-linejoin="round"/>
</svg>
