<?xml version="1.0" encoding="utf-8"?>
<!-- Generator: Adobe Illustrator 27.7.0, SVG Export Plug-In . SVG Version: 6.00 Build 0)  -->
<svg version="1.1" id="Layer_1" xmlns="http://www.w3.org/2000/svg" xmlns:xlink="http://www.w3.org/1999/xlink" x="0px" y="0px"
	 viewBox="0 0 595 885" style="enable-background:new 0 0 595 885;" xml:space="preserve">
<style type="text/css">

	.st0{ 
	
	fill: #48b487;
 
 transition-timing-function: ease;
  animation: coloring 5s infinite;

  }
	 
@keyframes coloring {
 0% {fill: #48b487;}
   50%   {fill: #1f6346;}
 100% {fill: #48b487;}
}

.delay1{
	animation-delay: 0.5s;
}


.delay2{
	animation-delay: 1s;
}



.delay3{
	animation-delay: 1.5s;
}



.delay4{
	animation-delay: 2s;
}


.delay5{
	animation-delay: 2.5s;
}


.delay6{
	animation-delay: 3s;
}
</style>
<g>
	<g id="Mask_Group_3" transform="translate(19685 20989)">
		<g id="Group_57556" transform="translate(-21620.998 -20748.088)">
			<g>
				<g id="Group_730" transform="translate(0.004 0.002)">
					<path id="Path_7148" class="st0 delay5" d="M1860.5,189.9l157.1-36.9c2.9-0.7,6.1-1.5,9.4-2.5c3.3-0.9,6.7-2,10.2-3.1
						c3.4-1.1,6.9-2.3,10.3-3.5c3.4-1.2,6.7-2.5,9.8-3.7c1.3-0.5,2.5-1,3.7-1.5s2.4-1,3.5-1.5s2.2-1,3.2-1.4c1-0.5,2-0.9,3-1.4
						l176-85.7l-1.4,0.2l-177.1,86c-0.9,0.4-1.8,0.8-2.7,1.3c-0.9,0.4-1.9,0.9-3,1.3c-1,0.4-2.1,0.9-3.2,1.3s-2.2,0.9-3.4,1.4
						c-2.8,1.1-5.8,2.2-8.9,3.3s-6.2,2.2-9.3,3.2c-3.1,1-6.2,2-9.2,2.8c-3,0.9-5.8,1.6-8.4,2.2l-155.9,36.5L1860.5,189.9z"/>
					<path id="Path_7149" class="st0 delay5" d="M1760.3,226.3l264.9-66.2c3.3-0.8,6.8-1.8,10.4-2.9c3.6-1.1,7.4-2.3,11.2-3.6
						c3.7-1.3,7.5-2.6,11.2-4c3.6-1.4,7.2-2.8,10.6-4.1c1.5-0.6,3-1.2,4.4-1.9c1.4-0.6,2.8-1.2,4.1-1.8s2.6-1.2,3.8-1.8
						s2.4-1.2,3.4-1.7l195.8-101.8l-1.3,0.2l-197.1,102.2c-1,0.5-2,1-3.2,1.6c-1.1,0.5-2.3,1.1-3.5,1.6c-1.2,0.6-2.5,1.1-3.8,1.7
						c-1.3,0.6-2.7,1.1-4.1,1.7c-3.1,1.3-6.3,2.5-9.7,3.8s-6.8,2.5-10.2,3.6c-3.4,1.2-6.9,2.3-10.2,3.3c-3.3,1-6.5,1.9-9.5,2.6
						L1765,224.3L1760.3,226.3z"/>
					<path id="Path_7150" class="st0 delay5" d="M1591.6,287.6l449.3-121.4c2.9-0.8,6.1-1.7,9.3-2.7c3.2-1,6.5-2.1,9.8-3.3s6.5-2.4,9.7-3.6
						c3.2-1.2,6.2-2.5,9.2-3.8c1.5-0.6,2.9-1.3,4.3-1.9c1.4-0.6,2.7-1.3,4-1.9c1.3-0.6,2.5-1.2,3.7-1.8s2.2-1.2,3.2-1.7l207.5-115.9
						l-1.2,0.2l-209,116.3c-0.9,0.5-1.9,1-3,1.6c-1,0.5-2.2,1.1-3.3,1.6c-1.2,0.6-2.4,1.1-3.6,1.7s-2.6,1.2-3.9,1.7
						c-2.7,1.1-5.4,2.3-8.3,3.4c-2.9,1.1-5.8,2.2-8.8,3.3s-5.9,2.1-8.8,3c-2.9,0.9-5.7,1.8-8.4,2.5l-445.3,120
						C1597.9,284.9,1591.6,287.6,1591.6,287.6z"/>
					<path id="Path_7151" class="st0 delay5" d="M1367.9,369l680.8-194.3c3.4-1,6.9-2.1,10.6-3.3c3.6-1.2,7.3-2.5,11-3.9
						c3.6-1.4,7.3-2.8,10.8-4.2s6.9-2.9,10.1-4.3c1.8-0.8,3.6-1.6,5.3-2.5c1.7-0.8,3.3-1.6,4.9-2.4s3-1.5,4.3-2.3
						c1.4-0.7,2.6-1.5,3.8-2.2l206-125.1l-1.2,0.2l-207.6,125.7c-1.1,0.6-2.2,1.3-3.5,2c-1.2,0.7-2.6,1.4-4,2.1
						c-1.4,0.7-2.9,1.5-4.5,2.2s-3.2,1.5-4.9,2.2c-3,1.3-6.1,2.7-9.3,4s-6.6,2.6-9.9,3.9c-3.4,1.3-6.7,2.4-10,3.5s-6.6,2.1-9.6,3
						l-673.9,191.8L1367.9,369z"/>
					<path id="Path_7152" class="st0 delay5" d="M934.6,526.5l1131.2-344.7c3.1-0.9,6.3-2,9.6-3.2s6.6-2.4,9.9-3.7c3.3-1.3,6.5-2.6,9.7-4
						c3.1-1.4,6.2-2.7,9.1-4.1c1.8-0.9,3.5-1.7,5.2-2.5s3.2-1.7,4.7-2.5s2.9-1.6,4.2-2.3s2.5-1.5,3.5-2.2l209.4-138.4l-1.1,0.2
						l-211.1,139.1c-1,0.6-2.1,1.3-3.2,2s-2.5,1.4-3.8,2.1s-2.8,1.5-4.3,2.2s-3.1,1.5-4.8,2.3c-2.6,1.2-5.4,2.5-8.3,3.7
						c-2.9,1.2-5.8,2.5-8.8,3.6c-3,1.2-6,2.3-9,3.3s-5.9,2-8.7,2.9L950.7,520L934.6,526.5z"/>
					<path id="Path_7153" class="st0 delay4" d="M35.3,853.4l2044.6-663.3c3.1-1,6.4-2.2,9.7-3.4s6.6-2.5,9.8-3.9c3.2-1.3,6.5-2.7,9.6-4.1
						c3.1-1.4,6.1-2.8,8.9-4.2c1.9-1,3.8-1.9,5.6-2.8s3.4-1.9,5-2.8s3-1.8,4.3-2.6s2.5-1.6,3.6-2.4l206.2-149.2l-1.1,0.2
						l-208.1,149.9c-1,0.7-2.1,1.5-3.3,2.2s-2.6,1.6-4,2.4s-3,1.7-4.6,2.5s-3.3,1.7-5.1,2.6c-2.6,1.3-5.3,2.6-8.1,3.8
						c-2.8,1.3-5.8,2.5-8.7,3.8c-3,1.2-6,2.4-8.9,3.5c-3,1.1-5.9,2.1-8.8,3.1L72.2,839L35.3,853.4L35.3,853.4z"/>
					<path id="Path_7154" class="st0 delay4" d="M194.4,853.3l1901.7-654.4c3.1-1.1,6.3-2.2,9.5-3.5s6.4-2.6,9.6-4c3.1-1.4,6.3-2.8,9.3-4.2
						s5.9-2.9,8.6-4.3c2-1.1,4-2.1,5.8-3.1s3.5-2,5.1-3s3.1-1.9,4.4-2.9s2.5-1.8,3.5-2.6L2350.5,11l-1.1,0.2l-200.5,161
						c-0.9,0.8-2,1.6-3.3,2.4s-2.6,1.7-4,2.6s-3,1.8-4.7,2.8s-3.4,1.9-5.3,2.9c-2.5,1.3-5.1,2.6-7.8,3.9c-2.7,1.3-5.6,2.6-8.4,3.8
						c-2.9,1.3-5.8,2.5-8.7,3.6s-5.8,2.2-8.6,3.2L228.3,839.1L194.4,853.3z"/>
					<path id="Path_7155" class="st0 delay4" d="M352.1,853.1l1749.5-641.6c3.9-1.4,8-3,12-4.7s8-3.4,12-5.2c3.9-1.8,7.7-3.6,11.5-5.5
						c3.7-1.8,7.2-3.7,10.5-5.5c2.6-1.5,5.2-2.9,7.6-4.3c2.4-1.4,4.6-2.8,6.6-4.1s3.9-2.6,5.5-3.8s3.1-2.4,4.3-3.5l184.2-165l-1,0.2
						l-186.3,165.8c-1.1,1-2.5,2.1-4,3.2s-3.3,2.3-5.2,3.6c-1.9,1.2-4,2.5-6.2,3.8s-4.6,2.7-7,4c-3.1,1.7-6.4,3.4-9.8,5.1
						c-3.4,1.7-7,3.4-10.6,5.1c-3.7,1.7-7.4,3.3-11.1,4.8c-3.7,1.6-7.5,3-11.1,4.3L382.8,839.2L352.1,853.1z"/>
					<path id="Path_7156" class="st0 delay3" d="M503.5,853l1633.6-639.6c2.3-0.9,4.7-1.9,7.1-3c2.4-1.1,4.8-2.2,7.1-3.3s4.6-2.3,6.8-3.5
						s4.3-2.4,6.3-3.6c1.7-1,3.4-2,4.9-3s3-1.9,4.3-2.9s2.5-1.8,3.6-2.7c1-0.8,1.9-1.6,2.7-2.4L2363.3,7.2l-1,0.2l-185.4,182.9
						c-0.7,0.7-1.5,1.4-2.5,2.2s-2,1.6-3.2,2.4s-2.5,1.7-3.8,2.5s-2.8,1.8-4.4,2.7c-1.8,1-3.7,2.1-5.6,3.1s-4,2.1-6,3.1
						s-4.2,2-6.3,2.9s-4.2,1.8-6.3,2.6L531.2,839.4L503.5,853L503.5,853z"/>
					<path id="Path_7157" class="st0 delay3" d="M656.5,852.8l1481.5-621c3.8-1.6,7.7-3.3,11.5-5.1s7.6-3.7,11.3-5.6
						c3.7-1.9,7.3-3.9,10.7-5.8c3.4-1.9,6.7-3.9,9.8-5.8c2.8-1.7,5.5-3.5,7.9-5.2s4.7-3.3,6.8-4.9c2-1.6,3.9-3.1,5.5-4.5
						c1.4-1.2,2.8-2.6,4-4L2368.9,4.4l-1,0.2l-165.6,187.6c-1.2,1.3-2.4,2.6-3.8,3.7c-1.5,1.3-3.2,2.7-5.1,4.2c-1.9,1.5-4,3-6.3,4.5
						c-2.3,1.6-4.8,3.2-7.4,4.8c-2.9,1.8-5.9,3.6-9.1,5.4c-3.2,1.8-6.5,3.6-9.9,5.4c-3.4,1.8-6.9,3.5-10.4,5.2
						c-3.6,1.7-7.1,3.3-10.6,4.7L681.4,839.5L656.5,852.8l7.5-3.1L656.5,852.8z"/>
					<path id="Path_7158" class="st0 delay3" d="M794.4,852.7L2164.6,240c3.3-1.5,6.6-3,9.8-4.7c3.2-1.6,6.5-3.3,9.6-5.1
						c3.1-1.7,6.2-3.5,9.1-5.3c2.9-1.8,5.7-3.5,8.3-5.3c2.5-1.7,4.9-3.3,7.1-5c2.2-1.6,4.2-3.2,6-4.7s3.4-2.9,4.8-4.3
						c1.2-1.2,2.3-2.4,3.4-3.8L2373.1,2.3l-1,0.2l-152.8,200.9c-1,1.2-2,2.4-3.1,3.5c-1.3,1.2-2.7,2.6-4.4,3.9s-3.5,2.8-5.5,4.3
						s-4.2,3-6.5,4.5c-2.4,1.6-5,3.2-7.6,4.8c-2.7,1.6-5.5,3.2-8.3,4.8c-2.9,1.6-5.8,3.1-8.8,4.6s-6,2.9-9,4.3L817,839.6
						L794.4,852.7z"/>
					<path id="Path_7159" class="st0 delay3" d="M937.3,852.5l1232.5-594.4c4.3-2.1,8.7-4.3,13-6.6c4.2-2.3,8.4-4.7,12.5-7.1
						c4-2.4,7.9-4.8,11.6-7.2c3.7-2.4,7.2-4.8,10.5-7.1c3.4-2.4,6.5-4.8,9.4-7.1s5.5-4.5,7.8-6.6s4.3-4.1,6-5.9
						c1.5-1.6,2.9-3.3,4.1-5.1L2375.5,2.7l-1,0.2l-133,204c-1.2,1.7-2.5,3.3-3.9,4.9c-1.6,1.8-3.5,3.6-5.7,5.6s-4.7,4-7.4,6.2
						s-5.7,4.4-8.9,6.6c-3.1,2.2-6.4,4.4-9.9,6.7s-7.1,4.5-10.9,6.7c-3.8,2.2-7.7,4.4-11.6,6.6c-4,2.1-8,4.2-12.1,6.2L957.1,840
						L937.3,852.5z"/>
					<path id="Path_7160" class="st0 delay2" d="M1075.2,852.4l1119-583.2c4-2.1,8.1-4.3,12-6.6c3.9-2.3,7.8-4.6,11.5-7s7.2-4.7,10.7-7.1
						c3.4-2.4,6.6-4.7,9.6-7c3.3-2.5,6.4-5,9.2-7.4s5.3-4.7,7.5-6.9c2-2,3.9-4,5.6-6.2c1.4-1.6,2.6-3.4,3.6-5.3L2378.6,1.2l-1,0.2
						l-117,215.9c-1,1.8-2.2,3.4-3.5,5c-1.7,2-3.4,4-5.3,5.8c-2.1,2.1-4.4,4.2-7,6.4s-5.5,4.6-8.6,6.9c-2.8,2.2-5.9,4.4-9,6.6
						c-3.2,2.2-6.5,4.4-9.9,6.6c-3.5,2.2-7,4.4-10.7,6.5c-3.7,2.1-7.4,4.2-11.2,6.1L1092.6,840L1075.2,852.4z"/>
					<path id="Path_7161" class="st0 delay2" d="M1200.9,852.3l1026.7-575.5c3.3-1.8,6.5-3.7,9.7-5.7c3.1-2,6.2-4,9.2-6.1
						c3-2,5.8-4.1,8.6-6.2c2.7-2.1,5.3-4.1,7.7-6.1c2.7-2.3,5.3-4.6,7.6-6.7c2.3-2.2,4.4-4.3,6.2-6.3c1.6-1.8,3.2-3.7,4.6-5.6
						c1.1-1.5,2-3.1,2.8-4.8L2381.7,0l-0.9,0.2L2280.7,231c-0.7,1.6-1.6,3.1-2.6,4.5c-1.3,1.8-2.7,3.6-4.3,5.2
						c-1.7,1.9-3.6,3.8-5.7,5.8c-2.2,2-4.5,4.1-7.1,6.2c-2.3,1.9-4.6,3.8-7.1,5.6c-2.5,1.9-5.2,3.8-7.9,5.7
						c-2.7,1.9-5.6,3.7-8.4,5.5c-2.9,1.8-5.9,3.6-8.8,5.2L1216.4,840.1L1200.9,852.3z"/>
					<path id="Path_7162" class="st0 delay2" d="M1328.4,852.1l929.1-565.3c2.8-1.7,5.5-3.5,8.2-5.3s5.3-3.7,7.8-5.6s4.9-3.8,7.2-5.7
						c2.3-1.9,4.5-3.8,6.5-5.7c2.4-2.2,4.7-4.4,6.8-6.6c2-2.1,3.8-4.2,5.4-6.1c1.4-1.7,2.7-3.6,3.9-5.5c0.9-1.5,1.7-3,2.2-4.7
						L2384.3,0l-0.9,0.2l-80.9,243.5c-0.5,1.5-1.2,2.9-2.1,4.3c-1.1,1.7-2.3,3.4-3.6,5c-1.4,1.8-3.1,3.7-5,5.6s-4,4-6.2,6
						c-1.9,1.7-3.9,3.4-6,5.2c-2.1,1.7-4.3,3.5-6.6,5.2s-4.7,3.4-7.1,5.1c-2.4,1.7-4.9,3.3-7.5,4.8l-916.5,555.5L1328.4,852.1
						L1328.4,852.1z"/>
					<path id="Path_7163" class="st0 delay2" d="M1462.1,851.9l816.4-546.3c3.1-2.1,6.2-4.3,9.2-6.5s5.9-4.5,8.6-6.8
						c2.8-2.3,5.4-4.6,7.9-6.8c2.5-2.3,4.9-4.5,7.1-6.8c2.8-2.8,5.4-5.6,7.7-8.2s4.3-5.2,6-7.6c1.5-2.1,2.9-4.4,4.1-6.7
						c1-1.8,1.7-3.7,2.1-5.7l54.5-249.4l-0.9,0.2L2328,252.6c-0.5,1.8-1.1,3.6-2,5.3c-1.1,2.2-2.4,4.3-3.9,6.2
						c-1.6,2.2-3.5,4.6-5.6,7c-2.1,2.5-4.5,5-7.1,7.6c-2.1,2.1-4.3,4.1-6.6,6.2s-4.8,4.2-7.3,6.3c-2.6,2.1-5.2,4.2-7.9,6.2
						c-2.8,2-5.6,4-8.4,5.9l-805.8,537L1462.1,851.9l10.5-7.1L1462.1,851.9z"/>
					<path id="Path_7164" class="st0 delay2" d="M1582.7,851.9l724.4-529.2c3.1-2.3,6.2-4.7,9.2-7.1s5.8-4.9,8.6-7.4c2.7-2.5,5.3-5,7.8-7.5
						s4.8-4.9,6.9-7.4c2.8-3.1,5.3-6.2,7.6-9.2c2.1-2.7,4-5.5,5.8-8.4c1.5-2.4,2.7-4.8,3.8-7.4c0.8-2,1.4-4,1.7-6.2l29-261.1
						l-0.9,0.2l-31.2,263.1c-0.3,2-0.8,3.9-1.6,5.8c-1,2.4-2.2,4.7-3.6,6.9c-1.7,2.7-3.5,5.3-5.4,7.8c-2.1,2.8-4.5,5.6-7.1,8.5
						c-2,2.2-4.2,4.5-6.4,6.8c-2.3,2.3-4.7,4.6-7.2,6.9s-5.2,4.6-7.9,6.8c-2.8,2.2-5.6,4.4-8.5,6.5l-715.1,520L1582.7,851.9
						L1582.7,851.9z"/>
					<path id="Path_7165" class="st0 delay1" d="M1702.5,851.8L2335.4,340c3.1-2.5,6.2-5.1,9.1-7.8c2.9-2.6,5.7-5.3,8.4-8s5.2-5.4,7.6-8.1
						c2.4-2.7,4.6-5.3,6.7-7.9c2.8-3.5,5.3-7,7.6-10.3c2-3,3.9-6.2,5.6-9.4c1.4-2.6,2.5-5.4,3.5-8.2c0.7-2.2,1.2-4.5,1.3-6.8
						L2390,0.7l-0.9,0.2l-7,274.9c-0.1,2.2-0.5,4.3-1.2,6.3c-0.9,2.6-2,5.2-3.3,7.7c-1.6,3-3.3,5.9-5.2,8.7
						c-2.1,3.1-4.4,6.3-7.1,9.6c-1.9,2.4-4,4.9-6.2,7.3c-2.2,2.5-4.6,5-7,7.4c-2.5,2.5-5.1,5-7.8,7.4s-5.5,4.8-8.4,7.1l-625.2,503
						L1702.5,851.8L1702.5,851.8z"/>
					<path id="Path_7166" class="st0 delay1" d="M1821.6,851.7l548-494c2.9-2.7,5.8-5.4,8.6-8.2c2.7-2.8,5.3-5.6,7.8-8.4s4.8-5.6,7-8.4
						s4.2-5.5,6.1-8.2c2.6-3.8,5-7.5,7-11.1c1.9-3.3,3.5-6.6,5-10.1c1.2-2.8,2.2-5.8,2.9-8.8c0.6-2.3,0.8-4.8,0.6-7.2L2391.4,0.8
						l-0.9,0.2l21.2,288.9c0.1,2.3-0.1,4.5-0.6,6.7c-0.7,2.8-1.6,5.5-2.7,8.2c-1.4,3.2-2.9,6.3-4.7,9.4c-1.9,3.3-4.1,6.8-6.6,10.3
						c-1.8,2.5-3.7,5.1-5.7,7.6c-2,2.6-4.2,5.2-6.5,7.8c-2.3,2.6-4.7,5.2-7.2,7.7c-2.5,2.6-5.2,5.1-7.9,7.5L1828,840.6L1821.6,851.7
						z"/>
					<path id="Path_7167" class="st0 delay1" d="M1942.9,851.6L2398.7,385c3.3-3.3,6.4-6.8,9.4-10.3c3-3.4,5.8-6.9,8.5-10.4
						c2.7-3.4,5.2-6.9,7.5-10.3s4.5-6.7,6.4-10c2.9-4.8,5.4-9.5,7.5-14c2-4.1,3.6-8.3,5.1-12.6c1.2-3.5,2-7.1,2.6-10.8
						c0.4-2.9,0.4-5.8,0-8.7L2393.5,1.1l-0.9,0.2l50.3,299.2c0.4,2.7,0.4,5.5,0,8.2c-0.5,3.5-1.3,6.9-2.5,10.2c-1.4,4-3,8-4.8,11.8
						c-2,4.2-4.4,8.6-7.1,13.1c-1.9,3.1-3.9,6.2-6.1,9.4c-2.2,3.2-4.5,6.4-7,9.6s-5.2,6.5-7.9,9.7c-2.8,3.2-5.7,6.4-8.8,9.5
						l-450.9,458.7L1942.9,851.6L1942.9,851.6z"/>
					<path id="Path_7168" class="st0 delay1" d="M2060.9,851.4l376.8-443.9c3.1-3.6,6-7.4,8.9-11.1c2.8-3.7,5.4-7.5,7.9-11.2
						c2.4-3.7,4.7-7.4,6.8-11.1c2.1-3.6,4-7.2,5.8-10.8c2.5-5.1,4.8-10.3,6.9-15.6c1.7-4.5,3.2-9.2,4.3-13.9
						c0.9-3.9,1.5-7.8,1.7-11.8c0.2-3.2-0.1-6.4-0.9-9.5L2395.6,1.1l-0.9,0.2l81.5,314.1c0.7,2.9,1,6,0.8,9
						c-0.2,3.8-0.8,7.5-1.7,11.2c-1.1,4.4-2.5,8.8-4.1,13.1c-1.9,5-4.1,9.9-6.5,14.6c-1.7,3.3-3.5,6.7-5.5,10
						c-2,3.4-4.1,6.9-6.4,10.3c-2.3,3.5-4.8,7-7.4,10.4c-2.6,3.5-5.4,6.9-8.3,10.3L2064,840.8L2060.9,851.4L2060.9,851.4z"/>
					<path id="Path_7169" class="st0 delay1" d="M2177.8,851.3l305.8-422.7c2.7-3.7,5.3-7.5,7.7-11.4c2.4-3.8,4.6-7.6,6.7-11.5
						c2.1-3.8,4-7.6,5.7-11.3c1.7-3.7,3.3-7.4,4.7-11c2.1-5.4,4-10.9,5.6-16.4c1.3-4.8,2.4-9.7,3.1-14.6c0.6-4.1,0.8-8.2,0.6-12.4
						c-0.1-3.4-0.7-6.7-1.8-9.8L2397,1.1l-0.9,0.2l117.2,332.2l0,0c1,3,1.6,6.1,1.7,9.3c0.1,3.9-0.1,7.8-0.7,11.7
						c-0.7,4.6-1.7,9.2-3,13.7c-1.5,5.2-3.2,10.3-5.3,15.4c-1.3,3.4-2.8,6.8-4.5,10.2c-1.6,3.5-3.4,7-5.4,10.5s-4,7.1-6.3,10.6
						c-2.2,3.6-4.6,7.1-7.1,10.5L2179.6,841L2177.8,851.3z"/>
				</g>
			</g>
		</g>
	</g>
</g>
</svg>
