<svg xmlns="http://www.w3.org/2000/svg" xmlns:xlink="http://www.w3.org/1999/xlink" width="1251.607" height="1289.998" viewBox="0 0 1251.607 1289.998">
  <defs>
    <clipPath id="clip-path">
      <rect id="Rectangle_469" data-name="Rectangle 469" width="1021.975" height="1074.683" fill="rgba(227,227,227,0.2)"/>
    </clipPath>
  </defs>
  <g id="Group_9276" data-name="Group 9276" transform="translate(447.582 410.863)">
    <g id="Group_730" data-name="Group 730" transform="translate(544.036 879.135) rotate(-166)" clip-path="url(#clip-path)">
      <path id="Path_7148" data-name="Path 7148" d="M2197.887,632.392l87.844,63.822c7.386,5.367,11.631,15.688,11.63,26.393a38.941,38.941,0,0,1-2.167,12.916l-103.783,294.23-1.871-1.221L2293.322,734.3a35.244,35.244,0,0,0,1.963-11.694c0-9.7-3.842-19.043-10.532-23.9l-87.843-63.821.978-2.491Z" transform="translate(-2184.262 -312.124)" fill="rgba(227,227,227,0.2)"/>
      <path id="Path_7149" data-name="Path 7149" d="M2101.012,511.714l127.439,99.751c7.815,6.118,12.225,17.269,12.223,28.765a42.9,42.9,0,0,1-2.8,15.4L2094.49,1026.773l-1.837-1.313,143.383-371.142a39.215,39.215,0,0,0,2.564-14.088c0-10.523-4.032-20.721-11.183-26.318l-127.44-99.751,1.035-2.447Z" transform="translate(-2087.357 -241.009)" fill="rgba(227,227,227,0.2)"/>
      <path id="Path_7150" data-name="Path 7150" d="M1987.43,434.66l173.8,151.893c6.516,5.695,10.11,15.328,10.109,25.193a38.435,38.435,0,0,1-2.9,14.821L1987.77,1056.605l-1.8-1.4,180.663-430.039a34.782,34.782,0,0,0,2.627-13.42c0-8.941-3.251-17.659-9.155-22.818l-173.8-151.893,1.122-2.375Z" transform="translate(-1973.732 -227.336)" fill="rgba(227,227,227,0.2)"/>
      <path id="Path_7151" data-name="Path 7151" d="M1888.125,372.978l214.157,196.645c7.1,6.515,10.948,17.174,10.947,28.036a42.994,42.994,0,0,1-3.872,18.085L1888.42,1089.13l-1.753-1.513L2107.6,614.23a39.369,39.369,0,0,0,3.549-16.571c0-9.964-3.527-19.723-10.032-25.7L1886.963,375.318l1.161-2.34Z" transform="translate(-1874.407 -225.034)" fill="rgba(227,227,227,0.2)"/>
      <path id="Path_7152" data-name="Path 7152" d="M1777.9,298.5l261.357,257.381c6.177,6.083,9.479,15.605,9.478,25.269a39.341,39.341,0,0,1-4,17.566l-266.588,530.4-1.714-1.593,266.587-530.4a35.754,35.754,0,0,0,3.637-15.972c0-8.8-3-17.447-8.619-22.982L1776.679,300.784l1.217-2.287Z" transform="translate(-1764.151 -222.964)" fill="rgba(227,227,227,0.2)"/>
      <path id="Path_7153" data-name="Path 7153" d="M1672.054,239.416l305.693,319.71c5.929,6.2,9.056,15.56,9.054,25.024a39.515,39.515,0,0,1-4.48,18.611L1672.258,1178.7l-1.674-1.668,310.063-575.938a35.949,35.949,0,0,0,4.079-16.944c0-8.626-2.843-17.137-8.244-22.786l-305.694-319.71,1.265-2.238Z" transform="translate(-1658.284 -239.192)" fill="rgba(227,227,227,0.2)"/>
      <path id="Path_7154" data-name="Path 7154" d="M1638.635,185.453,1920.6,492.094c5.634,6.126,8.571,15.156,8.57,24.259a38.5,38.5,0,0,1-4.962,19.3l-362.325,619.531-1.624-1.757L1922.584,533.9a34.987,34.987,0,0,0,4.51-17.546c0-8.285-2.665-16.481-7.79-22.054L1637.339,187.658l1.3-2.2Z" transform="translate(-1554.857 -185.212)" fill="rgba(227,227,227,0.2)"/>
      <path id="Path_7155" data-name="Path 7155" d="M1603.926,167.437,1855.265,456.6c6.712,7.722,10.172,18.749,10.171,29.838a48.1,48.1,0,0,1-6.759,25.151l-393.93,635.727-1.587-1.819,393.93-635.727a44.614,44.614,0,0,0,6.271-23.332c0-10.3-3.205-20.513-9.436-27.682L1602.585,169.592l1.34-2.155Z" transform="translate(-1450.817 -167.172)" fill="rgba(227,227,227,0.2)"/>
      <path id="Path_7156" data-name="Path 7156" d="M1559.736,123.776l234.906,286.8c3.967,4.843,5.994,11.552,5.993,18.279a30.073,30.073,0,0,1-4.5,16.215l-442.179,683.213-1.558-1.865L1794.575,443.2a26.6,26.6,0,0,0,3.985-14.349,25.75,25.75,0,0,0-5.3-16.178l-234.906-286.8,1.386-2.1Z" transform="translate(-1340.038 -123.483)" fill="rgba(227,227,227,0.2)"/>
      <path id="Path_7157" data-name="Path 7157" d="M1530.616,77.536l207.459,263.826c5.978,7.6,9,17.9,9,28.218,0,9.436-2.531,18.907-7.64,26.348l-488.892,712.2-1.517-1.926L1737.921,394c4.738-6.9,7.08-15.666,7.081-24.421,0-9.571-2.8-19.1-8.344-26.156L1529.2,79.6l1.417-2.062.379.482Z" transform="translate(-1243.574 -77.224)" fill="rgba(227,227,227,0.2)"/>
      <path id="Path_7158" data-name="Path 7158" d="M1484.542,41.566l194.664,254.269c5.064,6.614,7.612,15.458,7.611,24.3,0,8.517-2.364,17.056-7.107,23.615l-541.3,748.71-1.48-1.979,541.3-748.71c4.35-6.016,6.511-13.823,6.512-21.635,0-8.108-2.33-16.195-6.973-22.262L1483.1,43.6l1.438-2.036Z" transform="translate(-1136.778 -41.242)" fill="rgba(227,227,227,0.2)"/>
      <path id="Path_7159" data-name="Path 7159" d="M1441.807,48.372l168.885,234.86c6.185,8.6,9.27,19.768,9.269,30.915,0,11.5-3.281,23-9.812,31.659l-565.108,749.583-1.449-2.021L1608.7,343.785c6.118-8.116,9.184-18.865,9.185-29.638,0-10.444-2.883-20.883-8.677-28.941L1440.324,50.346l1.483-1.974Z" transform="translate(-1031.18 -48.016)" fill="rgba(227,227,227,0.2)"/>
      <path id="Path_7160" data-name="Path 7160" d="M1401.622,20.965l152.694,223.923c5.556,8.147,8.309,18.488,8.308,28.792,0,11.318-3.32,22.618-9.878,30.953l-612.718,778.8-1.417-2.062,612.719-778.8c6.124-7.786,9.218-18.317,9.219-28.89,0-9.625-2.565-19.261-7.754-26.872L1400.1,22.885l1.521-1.92Z" transform="translate(-930.265 -20.582)" fill="rgba(227,227,227,0.2)"/>
      <path id="Path_7161" data-name="Path 7161" d="M1346.957.406,1491.5,217.063a43.17,43.17,0,0,1,6.75,23.77c0,9.677-2.906,19.332-8.615,26.318L829.955,1074.467l-1.388-2.1,659.675-807.316c5.258-6.435,7.927-15.3,7.928-24.219a39.705,39.705,0,0,0-6.211-21.873L1345.42,2.3l1.537-1.9Z" transform="translate(-820.208 -0.012)" fill="rgba(227,227,227,0.2)"/>
      <path id="Path_7162" data-name="Path 7162" d="M1289.249.379l132.826,207.643a38.782,38.782,0,0,1,5.709,20.74c0,8.826-2.707,17.617-7.989,23.865L725.267,1074.433l-1.362-2.13L1418.433,250.5c4.814-5.7,7.274-13.688,7.275-21.735a35.305,35.305,0,0,0-5.2-18.887L1287.683,2.232l1.566-1.853Z" transform="translate(-706.301 0.037)" fill="rgba(227,227,227,0.2)"/>
      <path id="Path_7163" data-name="Path 7163" d="M1229.066,20.876l116.208,191.788a44.838,44.838,0,0,1,6.093,23.067c0,10.365-3.253,20.666-9.548,27.84L622.537,1083.328l-1.333-2.164,719.283-819.758c5.808-6.62,8.8-16.107,8.805-25.676a41.331,41.331,0,0,0-5.62-21.271L1227.464,22.671l1.6-1.8.66,1.089Z" transform="translate(-587.254 -20.431)" fill="rgba(227,227,227,0.2)"/>
      <path id="Path_7164" data-name="Path 7164" d="M1167.841,20.847l107.652,178.524a45.618,45.618,0,0,1,6.157,23.39c0,10.759-3.446,21.441-10.084,28.737l-756.9,831.815-1.3-2.2,756.9-831.815c6.134-6.743,9.312-16.594,9.313-26.541a42.107,42.107,0,0,0-5.686-21.6L1166.237,22.637l1.6-1.79Z" transform="translate(-472.773 -20.399)" fill="rgba(227,227,227,0.2)"/>
      <path id="Path_7165" data-name="Path 7165" d="M1117.311,14.554l95.958,166.175a47.276,47.276,0,0,1,5.977,23.481c0,11.276-3.673,22.45-10.7,29.955L416.065,1080.55l-1.282-2.22,792.48-846.385c6.51-6.953,9.905-17.285,9.907-27.735a43.753,43.753,0,0,0-5.533-21.738L1115.678,16.3l1.632-1.744Z" transform="translate(-369.447 -14.083)" fill="rgba(227,227,227,0.2)"/>
      <path id="Path_7166" data-name="Path 7166" d="M1059.425,14.53l87.161,154.443a46.706,46.706,0,0,1,5.7,22.8c0,11.3-3.748,22.493-10.879,29.87L311.3,1080.527l-1.257-2.247L1140.153,219.4c6.6-6.826,10.058-17.159,10.059-27.622a43.167,43.167,0,0,0-5.272-21.086L1057.779,16.249l1.646-1.719Z" transform="translate(-259.01 -14.047)" fill="rgba(227,227,227,0.2)"/>
      <path id="Path_7167" data-name="Path 7167" d="M1001.632,20.782l74.893,138a53.829,53.829,0,0,1,6.183,25.516c0,13.172-4.437,26.184-12.821,34.618L210.773,1083.228l-1.234-2.27,859.114-864.316c7.837-7.885,11.979-20.031,11.98-32.349a50.271,50.271,0,0,0-5.778-23.839l-74.893-138,1.67-1.676Z" transform="translate(-147.713 -20.277)" fill="rgba(227,227,227,0.2)"/>
      <path id="Path_7168" data-name="Path 7168" d="M943.058,20.764l65.8,125.682a54.717,54.717,0,0,1,5.939,25.225c0,13.521-4.622,26.855-13.3,35.361L107.784,1083.2l-1.214-2.29,893.714-876.168c8.117-7.958,12.434-20.416,12.436-33.071a51.15,51.15,0,0,0-5.554-23.587L941.368,22.4l1.691-1.637Z" transform="translate(-37.058 -20.24)" fill="rgba(227,227,227,0.2)"/>
      <path id="Path_7169" data-name="Path 7169" d="M883.375,20.745,942.067,135.8a52.519,52.519,0,0,1,5.469,23.726c0,13.13-4.554,26.058-13.055,34.164L1.691,1083.178.5,1080.867,933.29,191.379h0c7.928-7.56,12.169-19.6,12.171-31.852a48.942,48.942,0,0,0-5.1-22.117L881.67,22.354l1.705-1.609Z" transform="translate(74.231 -20.207)" fill="rgba(227,227,227,0.2)"/>
    </g>
  </g>
</svg>
