<?xml version="1.0" encoding="utf-8"?>
<!-- Generator: Adobe Illustrator 27.7.0, SVG Export Plug-In . SVG Version: 6.00 Build 0)  -->
<svg version="1.1" id="Layer_1" xmlns="http://www.w3.org/2000/svg" xmlns:xlink="http://www.w3.org/1999/xlink" x="0px" y="0px"
	 viewBox="0 0 2309.4 1080" style="enable-background:new 0 0 2309.4 1080;" xml:space="preserve">
<style type="text/css">
	.st0{clip-path:url(#SVGID_00000096032652995409806280000016849450689050588825_);}
	.st1{fill:#1E6144;}
	.st2{clip-path:url(#SVGID_00000062168258410079375900000007611968210600701070_);}
	.st3{clip-path:url(#SVGID_00000111157600814872939140000015617884787698998671_);}
 
	.st5{fill:#FFFFFF;}
	.st6{clip-path:url(#SVGID_00000075138910630579967820000011713713276432821390_);}


	.st4{ 
	
	fill: #3bba78;
 
 transition-timing-function: ease;
  animation: coloring 5s infinite;

  }
	.st5{fill:#FFFFFF;}
	.st6{clip-path:url(#SVGID_00000157989369051591007420000014502495269640097161_);}


@keyframes coloring {
 0% {fill: #1E6144;}
   50%   {fill: #319b61;}
 100% {fill: #1E6144;}
}

.delay1{
	animation-delay: 0.5s;
}


.delay2{
	animation-delay: 1s;
}



.delay3{
	animation-delay: 1.5s;
}



.delay4{
	animation-delay: 2s;
}


.delay5{
	animation-delay: 2.5s;
}


.delay6{
	animation-delay: 3s;
}

</style>
<g>
	<g>
		<defs>
			<rect id="SVGID_1_" y="-193.6" width="2309.4" height="1091.8"/>
		</defs>
		<clipPath id="SVGID_00000119091414981838559970000012451041574258410633_">
			<use xlink:href="#SVGID_1_"  style="overflow:visible;"/>
		</clipPath>
		<g style="clip-path:url(#SVGID_00000119091414981838559970000012451041574258410633_);">
			<g id="Group_2636">
				<path id="Path_7731" class="st1" d="M-237.9-20.6h2779.7v918.8H-237.9V-20.6z"/>
			</g>
			<g>
				<g>
					<defs>
						<rect id="SVGID_00000109722645846268412670000010235059283961441947_" x="-731.6" y="-49.3" width="1778.8" height="848.4"/>
					</defs>
					<clipPath id="SVGID_00000161592133380140918520000017148513158036627090_">
						<use xlink:href="#SVGID_00000109722645846268412670000010235059283961441947_"  style="overflow:visible;"/>
					</clipPath>
					<g style="clip-path:url(#SVGID_00000161592133380140918520000017148513158036627090_);">
						<g>
							<g>
								<g>
									<defs>
										
											<rect id="SVGID_00000148645467055889439450000003263836271969319096_" x="-459.1" y="-421" transform="matrix(0.2419 -0.9703 0.9703 0.2419 -50.7967 378.979)" width="1352.4" height="1286"/>
									</defs>
									<clipPath id="SVGID_00000173874350150166292420000000580497351163004811_">
										<use xlink:href="#SVGID_00000148645467055889439450000003263836271969319096_"  style="overflow:visible;"/>
									</clipPath>
									<g style="clip-path:url(#SVGID_00000173874350150166292420000000580497351163004811_);">
										<g id="Group_730">
											<path id="Path_7148" class="st4  delay1" d="M758.4,638.5l-87.8-104.7c-7.4-8.8-9.4-22.7-6.2-35.8c1.3-5.4,3.5-10.5,6.6-15.1
												l216.3-327.7l1.9,2.1L672.9,485c-2.7,4.2-4.8,8.8-6,13.7c-3,11.8-1.1,24.4,5.6,32.4l87.8,104.7L758.4,638.5L758.4,638.5
												L758.4,638.5z"/>
											<path id="Path_7149" class="st4  delay1" d="M743.3,699L618,538.4c-7.7-9.8-9.7-24.8-6.2-38.8c1.6-6.4,4.3-12.5,8.1-18L908,72.1
												l1.8,2.2l-288,409.5c-3.5,5-6,10.5-7.4,16.4c-3.2,12.9-1.4,26.5,5.6,35.5l125.2,160.6L743.3,699L743.3,699L743.3,699z"/>
											<path id="Path_7150" class="st4  delay1" d="M723.9,776.4L557.9,538c-6.2-8.9-7.7-21.8-4.7-33.8c1.5-6.2,4.3-12.1,8-17.2
												L912.8,16.9l1.8,2.3l-351.5,470c-3.4,4.7-5.9,10-7.3,15.6c-2.7,10.9-1.4,22.6,4.2,30.7l166,238.4L723.9,776.4
												L723.9,776.4L723.9,776.4z"/>
											<path id="Path_7151" class="st4  delay2" d="M705.8,848.9L504.2,543.6c-6.7-10.1-8.1-24.3-4.8-37.6c1.8-7.6,5.3-14.8,10.2-20.9
												L923.5-25.6l1.7,2.4L511.3,487.5c-4.5,5.6-7.7,12.2-9.4,19.2c-3,12.2-1.7,25.2,4.4,34.4l201.6,305.3L705.8,848.9
												L705.8,848.9L705.8,848.9z"/>
											<path id="Path_7152" class="st4  delay2" d="M683.7,937.3L443,543.5c-5.7-9.3-6.8-21.9-3.9-33.7c1.8-7.4,5.3-14.4,10.2-20.2
												L936.3-77l1.6,2.5L450.9,492c-4.5,5.3-7.7,11.6-9.3,18.4c-2.7,10.7-1.7,22.2,3.5,30.7l240.8,393.8L683.7,937.3
												L683.7,937.3L683.7,937.3z"/>
											<path id="Path_7153" class="st4  delay2" d="M660.8,1029.2l-276-483.4c-5.4-9.4-6.3-21.8-3.4-33.3c1.9-7.9,5.7-15.3,11.1-21.4
												l553.9-608.8l1.5,2.6L394.1,493.7c-4.9,5.5-8.4,12.2-10.1,19.5c-2.6,10.5-1.8,21.8,3.1,30.3L663,1026.9L660.8,1029.2
												L660.8,1029.2z"/>
											<path id="Path_7154" class="st4  delay3" d="M575.3,1007.9L324.4,547.6c-5-9.2-5.9-21.1-3.1-32.2c2-8.3,6.1-15.9,11.9-22.1
												l631-646.2l1.4,2.6L334.7,496c-5.3,5.6-9.1,12.5-10.9,20.1c-2.5,10.1-1.8,20.9,2.8,29.3l250.9,460.2L575.3,1007.9
												L575.3,1007.9L575.3,1007.9z"/>
											<path id="Path_7155" class="st4  delay3" d="M490.6,986.8L271.8,557.2c-5.8-11.5-6.7-26-3.3-39.5c2.6-10.8,8.1-20.8,15.9-28.7
												l674.5-656.3l1.4,2.7L285.7,491.7c-7.3,7.3-12.4,16.5-14.8,26.6c-3.1,12.6-2.3,26,3.1,36.7l218.9,429.6L490.6,986.8
												L490.6,986.8L490.6,986.8z"/>
											<path id="Path_7156" class="st4  delay3" d="M409.3,966.5L209.8,544.8c-3.4-7.1-3.8-15.9-1.8-24.1c1.6-7,5.3-13.4,10.4-18.4
												l747.9-699.6l1.3,2.8L219.9,504.9c-4.6,4.5-7.8,10.1-9.2,16.3c-1.9,7.1-1.4,14.6,1.5,21.4l199.5,421.7L409.3,966.5
												L409.3,966.5L409.3,966.5z"/>
											<path id="Path_7157" class="st4  delay3" d="M327.1,945.9l-173-385.3c-5-11.1-5.5-24.6-2.4-37.2c2.9-11.5,8.9-22.3,17.4-29.9
												l813.8-720.8l1.3,2.8L170.3,496.4c-7.9,7-13.4,17-16.1,27.7c-2.9,11.7-2.4,24.2,2.2,34.5l173,385.3L327.1,945.9l-0.3-0.7
												L327.1,945.9L327.1,945.9z"/>
											<path id="Path_7158" class="st4  delay3" d="M253,927.4L92.7,557.7c-4.2-9.6-4.6-21.2-1.9-32c2.6-10.4,8.1-20.1,15.9-26.7
												l888.9-749.4l1.2,2.9L107.9,501.9c-7.1,6-12.2,14.9-14.5,24.4c-2.5,9.9-2.1,20.5,1.7,29.3l160.3,369.7L253,927.4
												L253,927.4L253,927.4z"/>
											<path id="Path_7159" class="st4  delay4" d="M176.2,908.3L41.5,570.1c-4.9-12.4-5.3-27-1.9-40.6c3.5-14,11-27.1,21.6-35.7
												l918.2-743.2l1.2,2.9L62.4,496.7c-9.9,8-17,20.2-20.2,33.4c-3.2,12.8-2.8,26.4,1.8,38l134.7,338.2L176.2,908.3
												L176.2,908.3z"/>
											<path id="Path_7160" class="st4  delay4" d="M102.1,889.7L-16.2,569.8c-4.3-11.6-4.5-25.1-1.4-37.7c3.5-13.8,10.9-26.6,21.5-34.8
												L989.2-267l1.1,2.9L5,500.3c-9.8,7.6-16.8,19.6-20,32.5c-2.9,11.8-2.7,24.3,1.3,35.2l118.3,319.9L102.1,889.7
												L102.1,889.7L102.1,889.7z"/>
											<path id="Path_7161" class="st4  delay4" d="M34.5,872.9L-76.1,564.3c-3.4-10-3.7-20.8-1-31.1c2.9-11.8,9.4-22.7,18.5-29.5
												L992.7-281.2l1.1,3L-57.5,506.7c-8.4,6.3-14.3,16.3-17,27.2c-2.5,9.4-2.2,19.4,0.9,28.6L36.9,871L34.5,872.9L34.5,872.9
												L34.5,872.9z"/>
											<path id="Path_7162" class="st4  delay4" d="M-34.1,855.7l-99-294c-2.8-8.8-3-18.2-0.7-27.1c2.7-10.8,8.7-20.7,17-26.7L981.5-284
												l1,3L-115.7,511c-7.6,5.5-13,14.5-15.5,24.3c-2.1,8.1-1.9,16.7,0.6,24.6l99,294L-34.1,855.7L-34.1,855.7z"/>
											<path id="Path_7163" class="st4  delay4" d="M-106,837.8l-83.5-269.5c-2.8-9.8-3-20.2-0.4-30c3.2-12.7,10.3-24.2,20.1-31.1
												L958-274.9l1,3l-1127.8,782c-9.1,6.3-15.7,17-18.6,28.7c-2.4,9.1-2.2,18.7,0.4,27.7l83.5,269.6L-106,837.8l-0.5-1.5
												L-106,837.8L-106,837.8z"/>
											<path id="Path_7164" class="st4  delay4" d="M-171,821.6l-77.1-250.8c-2.9-9.9-3-20.4-0.4-30.4c3.3-13.1,10.7-25.1,21.1-32
												L949.9-276.9l0.9,3.1L-226.6,511.4c-9.5,6.4-16.4,17.4-19.4,29.6c-2.4,9.2-2.3,18.9,0.4,28.1l77.1,250.8L-171,821.6
												L-171,821.6L-171,821.6z"/>
											<path id="Path_7165" class="st4  delay5" d="M-235.5,805.4l-66.6-232.1c-2.7-10-2.8-20.5-0.1-30.5c3.4-13.8,11.3-26.3,22.2-33.3
												L945.3-282.7l0.9,3.1L-279.1,512.6c-10.1,6.5-17.4,18.1-20.5,30.8c-2.4,9.3-2.4,19,0.1,28.2l66.6,232.1L-235.5,805.4
												L-235.5,805.4L-235.5,805.4z"/>
											<path id="Path_7166" class="st4  delay5" d="M-299.7,789.4l-59.4-215.1c-2.5-9.7-2.5-19.9,0-29.6c3.4-13.8,11.4-26.3,22.4-33.2
												l1275-796l0.8,3.1l-1275,796c-10.1,6.3-17.5,17.9-20.7,30.7c-2.3,9-2.3,18.4,0,27.3l59.4,215.1L-299.7,789.4
												L-299.7,789.4z"/>
											<path id="Path_7167" class="st4  delay5" d="M-365,773.1l-49.4-191.3c-2.7-10.9-2.6-22.2,0.2-33c4-16.1,13.4-30.6,26.2-38.4
												L924.1-283.4l0.8,3.1L-387.2,513.6c-12,7.2-20.7,20.8-24.5,35.8c-2.6,10.1-2.7,20.7-0.2,30.9l49.4,191.3L-365,773.1
												L-365,773.1L-365,773.1z"/>
											<path id="Path_7168" class="st4  delay5" d="M-428.6,757.2l-42.1-173.5c-2.5-10.8-2.3-21.9,0.4-32.6c4.1-16.5,13.8-31.4,27-39.1
												l1358-797.7l0.8,3.2l-1358,797.7c-12.3,7.2-21.4,21.1-25.2,36.6c-2.6,10-2.7,20.4-0.4,30.5l42.1,173.5L-428.6,757.2
												L-428.6,757.2L-428.6,757.2z"/>
											<path id="Path_7169" class="st4  delay5" d="M-491.6,741.5l-36.6-158.4c-2.2-10.1-2-20.6,0.5-30.6c4-16,13.5-30.4,26.3-37.7
												L908.4-287.3l0.8,3.2L-500.6,518l0,0c-12,6.8-20.8,20.2-24.6,35.2c-2.4,9.3-2.6,19.1-0.5,28.6l36.6,158.4L-491.6,741.5
												L-491.6,741.5z"/>
										</g>
									</g>
								</g>
							</g>
						</g>
					</g>
				</g>
			</g>
		</g>
	</g>
</g>
<g>
	<rect x="-14.1" y="725" class="st5" width="2337.6" height="376.1"/>
	<g>
		<g>
			<defs>
				<rect id="SVGID_00000096752622856231602220000007181378200003844247_" x="-14.1" y="725" width="2337.6" height="376.1"/>
			</defs>
			<clipPath id="SVGID_00000003071095786021680680000005022621978109032099_">
				<use xlink:href="#SVGID_00000096752622856231602220000007181378200003844247_"  style="overflow:visible;"/>
			</clipPath>
			<g style="clip-path:url(#SVGID_00000003071095786021680680000005022621978109032099_);">
				<g id="Group_2636-2">
					<path id="Path_7731-2" class="st5" d="M-19,784.7h2340.8v316.4H-19V784.7L-19,784.7z"/>
				</g>
			</g>
		</g>
	</g>
</g>
</svg>
