<svg width="56" height="56" xmlns="http://www.w3.org/2000/svg"><defs><linearGradient x1="100%" y1="76.182%" x2="0%" y2="0%" id="a"><stop stop-color="#066058" offset="0%"/><stop stop-color="#3CA078" offset="100%"/></linearGradient></defs><g fill="none" fill-rule="evenodd"><path d="M28 56C12.537 56 0 43.464 0 28S12.537 0 28 0s28 12.536 28 28-12.537 28-28 28z" fill="url(#a)"/><path d="M23.703 13l.314.02c4.493.373 8.062 3.95 8.426 8.496l.016.24v.484c.002.44-.029.877-.09 1.309a9.114 9.114 0 013.739.972 9.24 9.24 0 015.107 8.262l-.006.358-.02.357a9.125 9.125 0 01-.657 2.768l-.119.276 1.725 5.176.028.103.016.094a.974.974 0 01-1.275 1.033l-5.175-1.725-.276.12-.303.118a9.242 9.242 0 01-11.445-4.546 9.123 9.123 0 01-.978-4.134v-.484l.016-.24a9.48 9.48 0 01.065-.582 9.07 9.07 0 01-2.774-.554l-.303-.118-.277-.12-5.175 1.725a.974.974 0 01-1.275-1.034l.016-.093.029-.104 1.724-5.175-.12-.276a9.125 9.125 0 01-.655-2.768l-.02-.358-.006-.358a9.24 9.24 0 015.106-8.262 9.126 9.126 0 013.805-.975l.331-.005h.486zm.92 18.656a7.797 7.797 0 00.824 4.385 7.298 7.298 0 006.526 4.039 7.182 7.182 0 003.258-.771l.118-.05.123-.035a.973.973 0 01.505.03l3.7 1.233-1.234-3.7-.029-.106a.973.973 0 01.084-.64 7.18 7.18 0 00.77-3.255 7.297 7.297 0 00-4.034-6.527 7.185 7.185 0 00-3.26-.773c-5.28.102-7.16 4.159-7.35 6.17zm10.44.39l.102.006a.81.81 0 01-.094 1.617l-.103-.006a.81.81 0 01.095-1.616zm-3.252 0l.103.006a.81.81 0 01-.094 1.617l-.103-.006a.81.81 0 01.094-1.616zm-3.25 0l.102.006a.81.81 0 01-.095 1.617l-.102-.006a.81.81 0 01.094-1.616zm-4.912-17.102l-.435.002a7.185 7.185 0 00-3.26.773 7.297 7.297 0 00-4.034 6.526 7.18 7.18 0 00.771 3.256c.1.198.13.424.084.64l-.029.106-1.234 3.7 3.7-1.234a.973.973 0 01.505-.03l.123.035.119.05a7.178 7.178 0 003.258.771l.086-.001a9.22 9.22 0 017.072-5.877c.075-.373.12-.753.134-1.136l.005-.283.001-.432a7.277 7.277 0 00-6.865-6.866zm-3.523 6.562a.81.81 0 01.095 1.617l-.103.005a.81.81 0 01-.094-1.616l.102-.006zm3.252 0a.81.81 0 01.094 1.617l-.102.005a.81.81 0 01-.095-1.616l.103-.006zm3.251 0a.81.81 0 01.095 1.617l-.103.005a.81.81 0 01-.095-1.616l.103-.006z" fill="#FFF" fill-rule="nonzero"/></g></svg>