<svg width="40" height="40" xmlns="http://www.w3.org/2000/svg"><path d="M8.565 8.395a4.2 4.2 0 014.2 3.617c.173 1.304.493 2.585.952 3.814l.088.257a4.19 4.19 0 01-1.037 4.17l-1.151 1.148.089.141a22.072 22.072 0 006.727 6.716l.14.087 1.155-1.152a4.204 4.204 0 014.17-1.032l.257.087a17.5 17.5 0 003.836.953c2.111.297 3.664 2.127 3.612 4.223v4.369a4.188 4.188 0 01-1.36 3.106 4.215 4.215 0 01-3.24 1.083 30.212 30.212 0 01-13.152-4.667 29.72 29.72 0 01-9.15-9.131 30.115 30.115 0 01-4.684-13.22 4.187 4.187 0 011.08-3.203 4.204 4.204 0 013.1-1.366zm.025 2.551H4.198a1.646 1.646 0 00-1.637 1.768 27.56 27.56 0 004.291 12.092c2.142 3.364 5 6.217 8.38 8.362a27.635 27.635 0 0012.024 4.275 1.645 1.645 0 001.79-1.645l.001-4.406a1.638 1.638 0 00-1.401-1.663 20.066 20.066 0 01-4.387-1.091 1.643 1.643 0 00-1.728.364l-1.855 1.852a1.28 1.28 0 01-1.536.206 24.625 24.625 0 01-9.242-9.226c-.284-.5-.2-1.127.207-1.533l1.85-1.846a1.64 1.64 0 00.369-1.734 19.94 19.94 0 01-1.09-4.364 1.643 1.643 0 00-1.644-1.411zm8.073-6.47a13.134 13.134 0 0118.792-.985c5.094 4.68 5.823 12.482 1.911 18.02l1.125-.058a.64.64 0 01.667.612.64.64 0 01-.599.679l-2.531.133a.628.628 0 01-.463-.166.646.646 0 01-.205-.476l-.134-2.553a.64.64 0 01.599-.68.64.64 0 01.667.613l.043.832C39.84 15.458 39.125 8.6 34.608 4.45a11.884 11.884 0 00-17.002.891.625.625 0 01-.895.047.656.656 0 01-.048-.913zm4.495 5.22c2.023 0 2.872 1.186 2.872 2.422 0 1.087-.45 1.936-2.06 3.421l-.624.587v.025a55.399 55.399 0 012.135-.037h.824v1.848H18.66V16.4l.85-.824c2.06-1.998 2.384-2.547 2.384-3.11 0-.573-.4-.998-1.174-.998a3.01 3.01 0 00-1.66.512l-.337-1.71c.636-.338 1.51-.575 2.434-.575zm10.18.15v4.72h.987v1.71h-.987v1.686h-1.872v-1.686h-3.397l-.174-1.61 2.846-4.82h2.597zm-1.835 1.91h-.012l-1.699 2.835c.283-.017.805-.023 1.218-.025h.493v-2.81z" fill="#FFF" fill-rule="evenodd"/></svg>