<svg xmlns="http://www.w3.org/2000/svg" width="67" height="57"><g fill="#3CA078" fill-rule="evenodd"><rect width="40" height="40" rx="20" fill-opacity=".2" transform="translate(22 3)"/><path d="M20.42 11.24a.82.82 0 011.16 0l20.18 20.18a.821.821 0 01-.58 1.4h-3.61v18.54h3.61a.82.82 0 110 1.64H.82a.82.82 0 110-1.64h3.61V32.82H.82a.821.821 0 01-.58-1.4l12.47-12.47zm4.025 25.354h-6.89v14.765h6.89V36.594zM21 18.546L6.966 32.58a.819.819 0 01-.58.24H6.07v18.54h9.844V35.773a.82.82 0 01.82-.82h8.532a.82.82 0 01.82.82v15.585h9.844V32.82h-.316a.82.82 0 01-.58-.24L21 18.546zm12.305 16.407a.82.82 0 01.82.82v8.204a.82.82 0 01-.82.82H28.71a.82.82 0 01-.82-.82v-8.203a.82.82 0 01.82-.82zm-20.016 0a.82.82 0 01.82.82v8.204a.82.82 0 01-.82.82H8.695a.82.82 0 01-.82-.82v-8.203a.82.82 0 01.82-.82zm6.153 8.203a.83.83 0 01.58.24.83.83 0 01.24.58.827.827 0 01-.24.58.828.828 0 01-.58.241.827.827 0 01-.58-.24.823.823 0 01.58-1.4zm13.042-6.562h-2.953v6.562h2.953v-6.562zm-20.015 0H9.516v6.562h2.953v-6.562zM21 12.98l-7.13 7.131L2.8 31.18h3.246L20.42 16.806a.82.82 0 011.16 0L35.954 31.18h3.245L21 12.98z"/></g></svg>