<svg xmlns="http://www.w3.org/2000/svg" xmlns:xlink="http://www.w3.org/1999/xlink" id="Layer_1" data-name="Layer 1" viewBox="0 0 3716.21 965.83">
  <defs>
    <style>
      .cls-1 {
        fill: url(#New_Pattern);
      }

      .cls-1, .cls-2, .cls-3, .cls-4, .cls-5, .cls-6, .cls-7, .cls-8, .cls-9, .cls-10, .cls-11, .cls-12, .cls-13, .cls-14, .cls-15, .cls-16, .cls-17, .cls-18, .cls-19, .cls-20, .cls-21, .cls-22, .cls-23, .cls-24, .cls-25, .cls-26, .cls-27, .cls-28, .cls-29, .cls-30, .cls-31, .cls-32, .cls-33, .cls-34, .cls-35, .cls-36, .cls-37, .cls-38, .cls-39, .cls-40, .cls-41, .cls-42, .cls-43, .cls-44, .cls-45, .cls-46, .cls-47, .cls-48, .cls-49, .cls-50, .cls-51, .cls-52, .cls-53, .cls-54, .cls-55, .cls-56, .cls-57, .cls-58, .cls-59, .cls-60, .cls-61, .cls-62, .cls-63, .cls-64, .cls-65, .cls-66, .cls-67, .cls-68, .cls-69, .cls-70, .cls-71, .cls-72, .cls-73, .cls-74, .cls-75, .cls-76, .cls-77, .cls-78, .cls-79, .cls-80, .cls-81, .cls-82, .cls-83, .cls-84, .cls-85, .cls-86, .cls-87, .cls-88, .cls-89, .cls-90 {
        stroke-width: 0px;
      }

      .cls-2 {
        fill: #dbbb59;
      }

      .cls-3 {
        fill: #c7992f;
      }

      .cls-91 {
        fill: url(#linear-gradient-2);
      }

      .cls-4 {
        fill: #be8d23;
      }

      .cls-5 {
        fill: #bf8f24;
      }

      .cls-6 {
        fill: #c39933;
      }

      .cls-7 {
        fill: #203a37;
      }

      .cls-8 {
        fill: #b58014;
      }

      .cls-9 {
        fill: #dcb750;
      }

      .cls-10 {
        fill: #c2932a;
      }

      .cls-11 {
        fill: #000;
      }

      .cls-12 {
        fill: #edd16e;
      }

      .cls-13 {
        fill: #d8b552;
      }

      .cls-14 {
        fill: #dcb751;
      }

      .cls-15 {
        fill: #fbe992;
      }

      .cls-16 {
        fill: #fcee9e;
      }

      .cls-17 {
        fill: #fcec98;
      }

      .cls-18 {
        fill: #ca9e35;
      }

      .cls-19 {
        fill: #b68115;
      }

      .cls-20 {
        fill: #fced9b;
      }

      .cls-21 {
        fill: #c08f24;
      }

      .cls-22 {
        fill: #c08f23;
      }

      .cls-92 {
        clip-path: url(#clippath-2);
      }

      .cls-23 {
        fill: #bf8d22;
      }

      .cls-24 {
        fill: #a48735;
      }

      .cls-25 {
        fill: #d7b048;
      }

      .cls-26 {
        fill: #e7c761;
      }

      .cls-27 {
        fill: #ecce68;
      }

      .cls-28 {
        fill: #c8a23f;
      }

      .cls-29, .cls-93 {
        fill: none;
      }

      .cls-30 {
        fill: #f0dc83;
      }

      .cls-31 {
        fill: #edcf6b;
      }

      .cls-94 {
        clip-path: url(#clippath-7);
      }

      .cls-32 {
        fill: #c79b33;
      }

      .cls-33 {
        fill: #ca9e34;
      }

      .cls-34 {
        fill: #f6df7f;
      }

      .cls-35 {
        fill: #c19228;
      }

      .cls-36 {
        fill: #bc8a1f;
      }

      .cls-37 {
        fill: #d1a73d;
      }

      .cls-95 {
        clip-path: url(#clippath-1);
      }

      .cls-38 {
        fill: #debc57;
      }

      .cls-39 {
        fill: #5c5b33;
      }

      .cls-40 {
        fill: #cb9e35;
      }

      .cls-41 {
        fill: #b78316;
      }

      .cls-42 {
        fill: #c89c32;
      }

      .cls-43 {
        fill: #fae68c;
      }

      .cls-44 {
        fill: #e0c15e;
      }

      .cls-93 {
        stroke: #916f34;
        stroke-linejoin: round;
      }

      .cls-45 {
        fill: #b78114;
      }

      .cls-46 {
        fill: #dfbc56;
      }

      .cls-47 {
        fill: #fef0a2;
      }

      .cls-48 {
        fill: #b0811b;
      }

      .cls-49 {
        fill: #2f544f;
      }

      .cls-50 {
        fill: #fbe890;
      }

      .cls-51 {
        fill: #c79a31;
      }

      .cls-52 {
        fill: #efd26e;
      }

      .cls-53 {
        fill: #c0c085;
      }

      .cls-54 {
        fill: #f3d976;
      }

      .cls-55 {
        fill: #e3c25c;
      }

      .cls-96 {
        clip-path: url(#clippath);
      }

      .cls-56 {
        fill: #c09026;
      }

      .cls-57 {
        fill: #c39227;
      }

      .cls-58 {
        fill: #c39429;
      }

      .cls-59 {
        fill: #bd8a1e;
      }

      .cls-60 {
        fill: #d2a83f;
      }

      .cls-61 {
        fill: #dbb64e;
      }

      .cls-97 {
        clip-path: url(#clippath-3);
      }

      .cls-62 {
        fill: #cbc072;
      }

      .cls-63 {
        fill: #fae488;
      }

      .cls-64 {
        fill: #f2d774;
      }

      .cls-65 {
        fill: #f8e58c;
      }

      .cls-66 {
        fill: #b78419;
      }

      .cls-67 {
        fill: #b1831f;
      }

      .cls-68 {
        fill: #bf8e22;
      }

      .cls-69 {
        fill: #f5e28a;
      }

      .cls-70 {
        fill: #f7df7f;
      }

      .cls-71 {
        fill: #e4c35f;
      }

      .cls-72 {
        fill: #d6b049;
      }

      .cls-98 {
        mask: url(#mask);
      }

      .cls-73 {
        fill: #f8e07e;
      }

      .cls-74 {
        fill: #f4d874;
      }

      .cls-75 {
        fill: #e2c462;
      }

      .cls-99 {
        clip-path: url(#clippath-5);
      }

      .cls-76 {
        fill: #d2a942;
      }

      .cls-77 {
        fill: #d2aa43;
      }

      .cls-100 {
        fill: url(#linear-gradient);
      }

      .cls-78 {
        fill: #e7c966;
      }

      .cls-79 {
        fill: #bc8b20;
      }

      .cls-80 {
        fill: #c39a35;
      }

      .cls-81 {
        fill: #b78318;
      }

      .cls-82 {
        fill: #cc9f35;
      }

      .cls-83 {
        fill: #f9e182;
      }

      .cls-84 {
        fill: #c89b32;
      }

      .cls-85 {
        fill: #eace6d;
      }

      .cls-86 {
        fill: #f3d773;
      }

      .cls-87 {
        fill: #dcb851;
      }

      .cls-88 {
        fill: #e2be58;
      }

      .cls-89 {
        fill: #c5962b;
      }

      .cls-90 {
        fill: #e6c560;
      }
    </style>
    <mask id="mask" x="-3608.79" y="21.5" width="5380.49" height="1843" maskUnits="userSpaceOnUse"/>
    <clipPath id="clippath">
      <rect class="cls-29" x="0" y="1014.06" width="1771.71" height="507.03"/>
    </clipPath>
    <clipPath id="clippath-1">
      <rect class="cls-29" x="0" y="507.03" width="1771.71" height="507.03"/>
    </clipPath>
    <clipPath id="clippath-2">
      <rect class="cls-29" x="0" y="0" width="1771.71" height="507.03"/>
    </clipPath>
    <pattern id="New_Pattern" data-name="New Pattern" x="0" y="0" width="1771.71" height="1521.09" patternTransform="translate(-3468.67 380.21)" patternUnits="userSpaceOnUse" viewBox="0 0 1771.71 1521.09">
      <g>
        <rect class="cls-29" width="1771.71" height="1521.09"/>
        <g class="cls-96">
          <path class="cls-93" d="M1770.32,1369.41c0-6.54-3.67-12.53-9.51-15.49l-171.13-86.93c-.37-.19-.75-.33-1.12-.49-.27-.11-.53-.25-.8-.35-.14-.05-.28-.08-.42-.13-4.46-1.5-9.37-1.15-13.6,1.07l-171.39,89.98c-5.72,3-9.3,8.93-9.3,15.38v18.37l107.56-29.66-107.56,46.01v36.58l108.31-14.56-108.31,30.73v33.91l107.45,17.14-107.45-1.83v35.22l108.31,38.42-108.31-21.98v31.83c0,7.98,5.44,14.94,13.19,16.86l171.19,42.51c2.75.68,5.62.68,8.37,0h0s171.33-42.51,171.33-42.51c7.75-1.92,13.19-8.88,13.19-16.86v-31.95l-108.9,22.1,108.9-38.63v-35.02l-108.04,1.84,108.04-17.23v-33.65l-108.9-30.9,108.9,14.63v-36.41l-108.14-46.26,108.14,29.82v-21.59Z"/>
          <path class="cls-93" d="M1770.32,1038.91c0-6.54-3.67-12.53-9.51-15.49l-171.13-86.93c-.37-.19-.75-.33-1.12-.49-.27-.11-.53-.25-.8-.35-.14-.05-.28-.08-.42-.13-4.46-1.5-9.37-1.15-13.6,1.07l-171.39,89.98c-5.72,3-9.3,8.93-9.3,15.38v18.37l107.56-29.66-107.56,46.01v36.58l108.31-14.56-108.31,30.73v33.91l107.45,17.14-107.45-1.83v35.22l108.31,38.42-108.31-21.98v31.83c0,7.98,5.44,14.94,13.19,16.86l171.19,42.51c2.75.68,5.62.68,8.37,0h0s171.33-42.51,171.33-42.51c7.75-1.92,13.19-8.88,13.19-16.86v-31.95l-108.9,22.1,108.9-38.63v-35.02l-108.04,1.84,108.04-17.23v-33.65l-108.9-30.9,108.9,14.63v-36.41l-108.14-46.26,108.14,29.82v-21.59Z"/>
          <path class="cls-93" d="M1538.38,869.83c0-6.54-3.67-12.53-9.51-15.49l-171.13-86.93c-.37-.19-.75-.33-1.12-.49-.27-.11-.53-.25-.8-.35-.14-.05-.28-.08-.42-.13-4.46-1.5-9.37-1.15-13.6,1.07l-171.39,89.98c-5.72,3-9.3,8.93-9.3,15.38v18.37l107.56-29.66-107.56,46.01v36.58l108.31-14.56-108.31,30.73v33.91l107.45,17.14-107.45-1.83v35.22l108.31,38.42-108.31-21.98v31.83c0,7.98,5.44,14.94,13.19,16.86l171.19,42.51c2.75.68,5.62.68,8.37,0h0s171.33-42.51,171.33-42.51c7.75-1.92,13.19-8.88,13.19-16.86v-31.95l-108.9,22.1,108.9-38.63v-35.02l-108.04,1.84,108.04-17.23v-33.65l-108.9-30.9,108.9,14.63v-36.41l-108.14-46.26,108.14,29.82v-21.59Z"/>
          <path id="_Pth_" data-name="&amp;lt;Pth&amp;gt;" class="cls-93" d="M1537.43,1202.52c0-6.54-3.67-12.53-9.51-15.49l-171.13-86.93c-.37-.19-.75-.33-1.12-.49-.27-.11-.53-.25-.8-.35-.14-.05-.28-.08-.42-.13-4.46-1.5-9.37-1.15-13.6,1.07l-171.39,89.98c-5.72,3-9.3,8.93-9.3,15.38v18.37l107.56-29.66-107.56,46.01v36.58l108.31-14.56-108.31,30.73v33.91l107.45,17.14-107.45-1.83v35.22l108.31,38.42-108.31-21.98v31.83c0,7.98,5.44,14.94,13.19,16.86l171.19,42.51c2.75.68,5.62.68,8.37,0h0s171.33-42.51,171.33-42.51c7.75-1.92,13.19-8.88,13.19-16.86v-31.95l-108.9,22.1,108.9-38.63v-35.02l-108.04,1.84,108.04-17.23v-33.65l-108.9-30.9,108.9,14.63v-36.41l-108.14-46.26,108.14,29.82v-21.59Z"/>
          <path class="cls-93" d="M1539.05,1533.39c0-6.54-3.67-12.53-9.51-15.49l-171.13-86.93c-.37-.19-.75-.33-1.12-.49-.27-.11-.53-.25-.8-.35-.14-.05-.28-.08-.42-.13-4.46-1.5-9.37-1.15-13.6,1.07l-171.39,89.98c-5.72,3-9.3,8.93-9.3,15.38v18.37l107.56-29.66-107.56,46.01v36.58l108.31-14.56-108.31,30.73v33.91l107.45,17.14-107.45-1.83v35.22l108.31,38.42-108.31-21.98v31.83c0,7.98,5.44,14.94,13.19,16.86l171.19,42.51c2.75.68,5.62.68,8.37,0h0s171.33-42.51,171.33-42.51c7.75-1.92,13.19-8.88,13.19-16.86v-31.95l-108.9,22.1,108.9-38.63v-35.02l-108.04,1.84,108.04-17.23v-33.65l-108.9-30.9,108.9,14.63v-36.41l-108.14-46.26,108.14,29.82v-21.59Z"/>
          <path class="cls-93" d="M1307.54,1368.92c0-6.54-3.67-12.53-9.51-15.49l-171.13-86.93c-.37-.19-.75-.33-1.12-.49-.27-.11-.53-.25-.8-.35-.14-.05-.28-.08-.42-.13-4.46-1.5-9.37-1.15-13.6,1.07l-171.39,89.98c-5.72,3-9.3,8.93-9.3,15.38v18.37l107.56-29.66-107.56,46.01v36.58l108.31-14.56-108.31,30.73v33.91l107.45,17.14-107.45-1.83v35.22l108.31,38.42-108.31-21.98v31.83c0,7.98,5.44,14.94,13.19,16.86l171.19,42.51c2.75.68,5.62.68,8.37,0h0s171.33-42.51,171.33-42.51c7.75-1.92,13.19-8.88,13.19-16.86v-31.95l-108.9,22.1,108.9-38.63v-35.02l-108.04,1.84,108.04-17.23v-33.65l-108.9-30.9,108.9,14.63v-36.41l-108.14-46.26,108.14,29.82v-21.59Z"/>
          <path class="cls-93" d="M1306.16,1036.25c0-6.54-3.67-12.53-9.51-15.49l-171.13-86.93c-.37-.19-.75-.33-1.12-.49-.27-.11-.53-.25-.8-.35-.14-.05-.28-.08-.42-.13-4.46-1.5-9.37-1.15-13.6,1.07l-171.39,89.98c-5.72,3-9.3,8.93-9.3,15.38v18.37l107.56-29.66-107.56,46.01v36.58l108.31-14.56-108.31,30.73v33.91l107.45,17.14-107.45-1.83v35.22l108.31,38.42-108.31-21.98v31.83c0,7.98,5.44,14.94,13.19,16.86l171.19,42.51c2.75.68,5.62.68,8.37,0h0s171.33-42.51,171.33-42.51c7.75-1.92,13.19-8.88,13.19-16.86v-31.95l-108.9,22.1,108.9-38.63v-35.02l-108.04,1.84,108.04-17.23v-33.65l-108.9-30.9,108.9,14.63v-36.41l-108.14-46.26,108.14,29.82v-21.59Z"/>
          <path class="cls-93" d="M1074.49,1532.4c0-6.54-3.67-12.53-9.51-15.49l-171.13-86.93c-.37-.19-.75-.33-1.12-.49-.27-.11-.53-.25-.8-.35-.14-.05-.28-.08-.42-.13-4.46-1.5-9.37-1.15-13.6,1.07l-171.39,89.98c-5.72,3-9.3,8.93-9.3,15.38v18.37l107.56-29.66-107.56,46.01v36.58l108.31-14.56-108.31,30.73v33.91l107.45,17.14-107.45-1.83v35.22l108.31,38.42-108.31-21.98v31.83c0,7.98,5.44,14.94,13.19,16.86l171.19,42.51c2.75.68,5.62.68,8.37,0h0s171.33-42.51,171.33-42.51c7.75-1.92,13.19-8.88,13.19-16.86v-31.95l-108.9,22.1,108.9-38.63v-35.02l-108.04,1.84,108.04-17.23v-33.65l-108.9-30.9,108.9,14.63v-36.41l-108.14-46.26,108.14,29.82v-21.59Z"/>
          <path id="Path_" data-name="Path&amp;gt;" class="cls-93" d="M1074.49,1202.72c0-6.54-3.67-12.53-9.51-15.49l-171.13-86.93c-.37-.19-.75-.33-1.12-.49-.27-.11-.53-.25-.8-.35-.14-.05-.28-.08-.42-.13-4.46-1.5-9.37-1.15-13.6,1.07l-171.39,89.98c-5.72,3-9.3,8.93-9.3,15.38v18.37l107.56-29.66-107.56,46.01v36.58l108.31-14.56-108.31,30.73v33.91l107.45,17.14-107.45-1.83v35.22l108.31,38.42-108.31-21.98v31.83c0,7.98,5.44,14.94,13.19,16.86l171.19,42.51c2.75.68,5.62.68,8.37,0h0s171.33-42.51,171.33-42.51c7.75-1.92,13.19-8.88,13.19-16.86v-31.95l-108.9,22.1,108.9-38.63v-35.02l-108.04,1.84,108.04-17.23v-33.65l-108.9-30.9,108.9,14.63v-36.41l-108.14-46.26,108.14,29.82v-21.59Z"/>
          <path id="_Path" data-name="&amp;lt;Path" class="cls-93" d="M1074.49,871.89c0-6.54-3.67-12.53-9.51-15.49l-171.13-86.93c-.37-.19-.75-.33-1.12-.49-.27-.11-.53-.25-.8-.35-.14-.05-.28-.08-.42-.13-4.46-1.5-9.37-1.15-13.6,1.07l-171.39,89.98c-5.72,3-9.3,8.93-9.3,15.38v18.37l107.56-29.66-107.56,46.01v36.58l108.31-14.56-108.31,30.73v33.91l107.45,17.14-107.45-1.83v35.22l108.31,38.42-108.31-21.98v31.83c0,7.98,5.44,14.94,13.19,16.86l171.19,42.51c2.75.68,5.62.68,8.37,0h0s171.33-42.51,171.33-42.51c7.75-1.92,13.19-8.88,13.19-16.86v-31.95l-108.9,22.1,108.9-38.63v-35.02l-108.04,1.84,108.04-17.23v-33.65l-108.9-30.9,108.9,14.63v-36.41l-108.14-46.26,108.14,29.82v-21.59Z"/>
          <path class="cls-93" d="M843.13,1367c0-6.54-3.67-12.53-9.51-15.49l-171.13-86.93c-.37-.19-.75-.33-1.12-.49-.27-.11-.53-.25-.8-.35-.14-.05-.28-.08-.42-.13-4.46-1.5-9.37-1.15-13.6,1.07l-171.39,89.98c-5.72,3-9.3,8.93-9.3,15.38v18.37l107.56-29.66-107.56,46.01v36.58l108.31-14.56-108.31,30.73v33.91l107.45,17.14-107.45-1.83v35.22l108.31,38.42-108.31-21.98v31.83c0,7.98,5.44,14.94,13.19,16.86l171.19,42.51c2.75.68,5.62.68,8.37,0h0s171.33-42.51,171.33-42.51c7.75-1.92,13.19-8.88,13.19-16.86v-31.95l-108.9,22.1,108.9-38.63v-35.02l-108.04,1.84,108.04-17.23v-33.65l-108.9-30.9,108.9,14.63v-36.41l-108.14-46.26,108.14,29.82v-21.59Z"/>
          <path class="cls-93" d="M843.13,1036.18c0-6.54-3.67-12.53-9.51-15.49l-171.13-86.93c-.37-.19-.75-.33-1.12-.49-.27-.11-.53-.25-.8-.35-.14-.05-.28-.08-.42-.13-4.46-1.5-9.37-1.15-13.6,1.07l-171.39,89.98c-5.72,3-9.3,8.93-9.3,15.38v18.37l107.56-29.66-107.56,46.01v36.58l108.31-14.56-108.31,30.73v33.91l107.45,17.14-107.45-1.83v35.22l108.31,38.42-108.31-21.98v31.83c0,7.98,5.44,14.94,13.19,16.86l171.19,42.51c2.75.68,5.62.68,8.37,0h0s171.33-42.51,171.33-42.51c7.75-1.92,13.19-8.88,13.19-16.86v-31.95l-108.9,22.1,108.9-38.63v-35.02l-108.04,1.84,108.04-17.23v-33.65l-108.9-30.9,108.9,14.63v-36.41l-108.14-46.26,108.14,29.82v-21.59Z"/>
          <path class="cls-93" d="M610.15,870.36c0-6.54-3.67-12.53-9.51-15.49l-171.13-86.93c-.37-.19-.75-.33-1.12-.49-.27-.11-.53-.25-.8-.35-.14-.05-.28-.08-.42-.13-4.46-1.5-9.37-1.15-13.6,1.07l-171.39,89.98c-5.72,3-9.3,8.93-9.3,15.38v18.37l107.56-29.66-107.56,46.01v36.58l108.31-14.56-108.31,30.73v33.91l107.45,17.14-107.45-1.83v35.22l108.31,38.42-108.31-21.98v31.83c0,7.98,5.44,14.94,13.19,16.86l171.19,42.51c2.75.68,5.62.68,8.37,0h0s171.33-42.51,171.33-42.51c7.75-1.92,13.19-8.88,13.19-16.86v-31.95l-108.9,22.1,108.9-38.63v-35.02l-108.04,1.84,108.04-17.23v-33.65l-108.9-30.9,108.9,14.63v-36.41l-108.14-46.26,108.14,29.82v-21.59Z"/>
          <path class="cls-93" d="M610.87,1202.95c0-6.54-3.67-12.53-9.51-15.49l-171.13-86.93c-.37-.19-.75-.33-1.12-.49-.27-.11-.53-.25-.8-.35-.14-.05-.28-.08-.42-.13-4.46-1.5-9.37-1.15-13.6,1.07l-171.39,89.98c-5.72,3-9.3,8.93-9.3,15.38v18.37l107.56-29.66-107.56,46.01v36.58l108.31-14.56-108.31,30.73v33.91l107.45,17.14-107.45-1.83v35.22l108.31,38.42-108.31-21.98v31.83c0,7.98,5.44,14.94,13.19,16.86l171.19,42.51c2.75.68,5.62.68,8.37,0h0s171.33-42.51,171.33-42.51c7.75-1.92,13.19-8.88,13.19-16.86v-31.95l-108.9,22.1,108.9-38.63v-35.02l-108.04,1.84,108.04-17.23v-33.65l-108.9-30.9,108.9,14.63v-36.41l-108.14-46.26,108.14,29.82v-21.59Z"/>
          <path class="cls-93" d="M611.65,1533.38c0-6.54-3.67-12.53-9.51-15.49l-171.13-86.93c-.37-.19-.75-.33-1.12-.49-.27-.11-.53-.25-.8-.35-.14-.05-.28-.08-.42-.13-4.46-1.5-9.37-1.15-13.6,1.07l-171.39,89.98c-5.72,3-9.3,8.93-9.3,15.38v18.37l107.56-29.66-107.56,46.01v36.58l108.31-14.56-108.31,30.73v33.91l107.45,17.14-107.45-1.83v35.22l108.31,38.42-108.31-21.98v31.83c0,7.98,5.44,14.94,13.19,16.86l171.19,42.51c2.75.68,5.62.68,8.37,0h0s171.33-42.51,171.33-42.51c7.75-1.92,13.19-8.88,13.19-16.86v-31.95l-108.9,22.1,108.9-38.63v-35.02l-108.04,1.84,108.04-17.23v-33.65l-108.9-30.9,108.9,14.63v-36.41l-108.14-46.26,108.14,29.82v-21.59Z"/>
          <path class="cls-93" d="M380.89,1367.35c0-6.54-3.67-12.53-9.51-15.49l-171.13-86.93c-.37-.19-.75-.33-1.12-.49-.27-.11-.53-.25-.8-.35-.14-.05-.28-.08-.42-.13-4.46-1.5-9.37-1.15-13.6,1.07l-171.39,89.98c-5.72,3-9.3,8.93-9.3,15.38v18.37l107.56-29.66-107.56,46.01v36.58l108.31-14.56-108.31,30.73v33.91l107.45,17.14-107.45-1.83v35.22l108.31,38.42-108.31-21.98v31.83c0,7.98,5.44,14.94,13.19,16.86l171.19,42.51c2.75.68,5.62.68,8.37,0h0s171.33-42.51,171.33-42.51c7.75-1.92,13.19-8.88,13.19-16.86v-31.95l-108.9,22.1,108.9-38.63v-35.02l-108.04,1.84,108.04-17.23v-33.65l-108.9-30.9,108.9,14.63v-36.41l-108.14-46.26,108.14,29.82v-21.59Z"/>
          <path class="cls-93" d="M380.7,1034.63c0-6.54-3.67-12.53-9.51-15.49l-171.13-86.93c-.37-.19-.75-.33-1.12-.49-.27-.11-.53-.25-.8-.35-.14-.05-.28-.08-.42-.13-4.46-1.5-9.37-1.15-13.6,1.07L12.73,1022.3c-5.72,3-9.3,8.93-9.3,15.38v18.37l107.56-29.66-107.56,46.01v36.58l108.31-14.56-108.31,30.73v33.91l107.45,17.14-107.45-1.83v35.22l108.31,38.42-108.31-21.98v31.83c0,7.98,5.44,14.94,13.19,16.86l171.19,42.51c2.75.68,5.62.68,8.37,0h0s171.33-42.51,171.33-42.51c7.75-1.92,13.19-8.88,13.19-16.86v-31.95l-108.9,22.1,108.9-38.63v-35.02l-108.04,1.84,108.04-17.23v-33.65l-108.9-30.9,108.9,14.63v-36.41l-108.14-46.26,108.14,29.82v-21.59Z"/>
        </g>
        <g class="cls-95">
          <path class="cls-93" d="M1770.32,862.38c0-6.54-3.67-12.53-9.51-15.49l-171.13-86.93c-.37-.19-.75-.33-1.12-.49-.27-.11-.53-.25-.8-.35-.14-.05-.28-.08-.42-.13-4.46-1.5-9.37-1.15-13.6,1.07l-171.39,89.98c-5.72,3-9.3,8.93-9.3,15.38v18.37l107.56-29.66-107.56,46.01v36.58l108.31-14.56-108.31,30.73v33.91l107.45,17.14-107.45-1.83v35.22l108.31,38.42-108.31-21.98v31.83c0,7.98,5.44,14.94,13.19,16.86l171.19,42.51c2.75.68,5.62.68,8.37,0h0s171.33-42.51,171.33-42.51c7.75-1.92,13.19-8.88,13.19-16.86v-31.95l-108.9,22.1,108.9-38.63v-35.02l-108.04,1.84,108.04-17.23v-33.65l-108.9-30.9,108.9,14.63v-36.41l-108.14-46.26,108.14,29.82v-21.59Z"/>
          <path class="cls-93" d="M1770.32,531.88c0-6.54-3.67-12.53-9.51-15.49l-171.13-86.93c-.37-.19-.75-.33-1.12-.49-.27-.11-.53-.25-.8-.35-.14-.05-.28-.08-.42-.13-4.46-1.5-9.37-1.15-13.6,1.07l-171.39,89.98c-5.72,3-9.3,8.93-9.3,15.38v18.37l107.56-29.66-107.56,46.01v36.58l108.31-14.56-108.31,30.73v33.91l107.45,17.14-107.45-1.83v35.22l108.31,38.42-108.31-21.98v31.83c0,7.98,5.44,14.94,13.19,16.86l171.19,42.51c2.75.68,5.62.68,8.37,0h0s171.33-42.51,171.33-42.51c7.75-1.92,13.19-8.88,13.19-16.86v-31.95l-108.9,22.1,108.9-38.63v-35.02l-108.04,1.84,108.04-17.23v-33.65l-108.9-30.9,108.9,14.63v-36.41l-108.14-46.26,108.14,29.82v-21.59Z"/>
          <path class="cls-93" d="M1538.38,362.8c0-6.54-3.67-12.53-9.51-15.49l-171.13-86.93c-.37-.19-.75-.33-1.12-.49-.27-.11-.53-.25-.8-.35-.14-.05-.28-.08-.42-.13-4.46-1.5-9.37-1.15-13.6,1.07l-171.39,89.98c-5.72,3-9.3,8.93-9.3,15.38v18.37l107.56-29.66-107.56,46.01v36.58l108.31-14.56-108.31,30.73v33.91l107.45,17.14-107.45-1.83v35.22l108.31,38.42-108.31-21.98v31.83c0,7.98,5.44,14.94,13.19,16.86l171.19,42.51c2.75.68,5.62.68,8.37,0h0s171.33-42.51,171.33-42.51c7.75-1.92,13.19-8.88,13.19-16.86v-31.95l-108.9,22.1,108.9-38.63v-35.02l-108.04,1.84,108.04-17.23v-33.65l-108.9-30.9,108.9,14.63v-36.41l-108.14-46.26,108.14,29.82v-21.59Z"/>
          <path id="_Pth_-2" data-name="&amp;lt;Pth&amp;gt;" class="cls-93" d="M1537.43,695.49c0-6.54-3.67-12.53-9.51-15.49l-171.13-86.93c-.37-.19-.75-.33-1.12-.49-.27-.11-.53-.25-.8-.35-.14-.05-.28-.08-.42-.13-4.46-1.5-9.37-1.15-13.6,1.07l-171.39,89.98c-5.72,3-9.3,8.93-9.3,15.38v18.37l107.56-29.66-107.56,46.01v36.58l108.31-14.56-108.31,30.73v33.91l107.45,17.14-107.45-1.83v35.22l108.31,38.42-108.31-21.98v31.83c0,7.98,5.44,14.94,13.19,16.86l171.19,42.51c2.75.68,5.62.68,8.37,0h0s171.33-42.51,171.33-42.51c7.75-1.92,13.19-8.88,13.19-16.86v-31.95l-108.9,22.1,108.9-38.63v-35.02l-108.04,1.84,108.04-17.23v-33.65l-108.9-30.9,108.9,14.63v-36.41l-108.14-46.26,108.14,29.82v-21.59Z"/>
          <path class="cls-93" d="M1539.05,1026.35c0-6.54-3.67-12.53-9.51-15.49l-171.13-86.93c-.37-.19-.75-.33-1.12-.49-.27-.11-.53-.25-.8-.35-.14-.05-.28-.08-.42-.13-4.46-1.5-9.37-1.15-13.6,1.07l-171.39,89.98c-5.72,3-9.3,8.93-9.3,15.38v18.37l107.56-29.66-107.56,46.01v36.58l108.31-14.56-108.31,30.73v33.91l107.45,17.14-107.45-1.83v35.22l108.31,38.42-108.31-21.98v31.83c0,7.98,5.44,14.94,13.19,16.86l171.19,42.51c2.75.68,5.62.68,8.37,0h0s171.33-42.51,171.33-42.51c7.75-1.92,13.19-8.88,13.19-16.86v-31.95l-108.9,22.1,108.9-38.63v-35.02l-108.04,1.84,108.04-17.23v-33.65l-108.9-30.9,108.9,14.63v-36.41l-108.14-46.26,108.14,29.82v-21.59Z"/>
          <path class="cls-93" d="M1307.54,861.89c0-6.54-3.67-12.53-9.51-15.49l-171.13-86.93c-.37-.19-.75-.33-1.12-.49-.27-.11-.53-.25-.8-.35-.14-.05-.28-.08-.42-.13-4.46-1.5-9.37-1.15-13.6,1.07l-171.39,89.98c-5.72,3-9.3,8.93-9.3,15.38v18.37l107.56-29.66-107.56,46.01v36.58l108.31-14.56-108.31,30.73v33.91l107.45,17.14-107.45-1.83v35.22l108.31,38.42-108.31-21.98v31.83c0,7.98,5.44,14.94,13.19,16.86l171.19,42.51c2.75.68,5.62.68,8.37,0h0s171.33-42.51,171.33-42.51c7.75-1.92,13.19-8.88,13.19-16.86v-31.95l-108.9,22.1,108.9-38.63v-35.02l-108.04,1.84,108.04-17.23v-33.65l-108.9-30.9,108.9,14.63v-36.41l-108.14-46.26,108.14,29.82v-21.59Z"/>
          <path class="cls-93" d="M1306.16,529.22c0-6.54-3.67-12.53-9.51-15.49l-171.13-86.93c-.37-.19-.75-.33-1.12-.49-.27-.11-.53-.25-.8-.35-.14-.05-.28-.08-.42-.13-4.46-1.5-9.37-1.15-13.6,1.07l-171.39,89.98c-5.72,3-9.3,8.93-9.3,15.38v18.37l107.56-29.66-107.56,46.01v36.58l108.31-14.56-108.31,30.73v33.91l107.45,17.14-107.45-1.83v35.22l108.31,38.42-108.31-21.98v31.83c0,7.98,5.44,14.94,13.19,16.86l171.19,42.51c2.75.68,5.62.68,8.37,0h0s171.33-42.51,171.33-42.51c7.75-1.92,13.19-8.88,13.19-16.86v-31.95l-108.9,22.1,108.9-38.63v-35.02l-108.04,1.84,108.04-17.23v-33.65l-108.9-30.9,108.9,14.63v-36.41l-108.14-46.26,108.14,29.82v-21.59Z"/>
          <path class="cls-93" d="M1074.49,1025.37c0-6.54-3.67-12.53-9.51-15.49l-171.13-86.93c-.37-.19-.75-.33-1.12-.49-.27-.11-.53-.25-.8-.35-.14-.05-.28-.08-.42-.13-4.46-1.5-9.37-1.15-13.6,1.07l-171.39,89.98c-5.72,3-9.3,8.93-9.3,15.38v18.37l107.56-29.66-107.56,46.01v36.58l108.31-14.56-108.31,30.73v33.91l107.45,17.14-107.45-1.83v35.22l108.31,38.42-108.31-21.98v31.83c0,7.98,5.44,14.94,13.19,16.86l171.19,42.51c2.75.68,5.62.68,8.37,0h0s171.33-42.51,171.33-42.51c7.75-1.92,13.19-8.88,13.19-16.86v-31.95l-108.9,22.1,108.9-38.63v-35.02l-108.04,1.84,108.04-17.23v-33.65l-108.9-30.9,108.9,14.63v-36.41l-108.14-46.26,108.14,29.82v-21.59Z"/>
          <path id="Path_-2" data-name="Path&amp;gt;" class="cls-93" d="M1074.49,695.69c0-6.54-3.67-12.53-9.51-15.49l-171.13-86.93c-.37-.19-.75-.33-1.12-.49-.27-.11-.53-.25-.8-.35-.14-.05-.28-.08-.42-.13-4.46-1.5-9.37-1.15-13.6,1.07l-171.39,89.98c-5.72,3-9.3,8.93-9.3,15.38v18.37l107.56-29.66-107.56,46.01v36.58l108.31-14.56-108.31,30.73v33.91l107.45,17.14-107.45-1.83v35.22l108.31,38.42-108.31-21.98v31.83c0,7.98,5.44,14.94,13.19,16.86l171.19,42.51c2.75.68,5.62.68,8.37,0h0s171.33-42.51,171.33-42.51c7.75-1.92,13.19-8.88,13.19-16.86v-31.95l-108.9,22.1,108.9-38.63v-35.02l-108.04,1.84,108.04-17.23v-33.65l-108.9-30.9,108.9,14.63v-36.41l-108.14-46.26,108.14,29.82v-21.59Z"/>
          <path id="_Path-2" data-name="&amp;lt;Path" class="cls-93" d="M1074.49,364.86c0-6.54-3.67-12.53-9.51-15.49l-171.13-86.93c-.37-.19-.75-.33-1.12-.49-.27-.11-.53-.25-.8-.35-.14-.05-.28-.08-.42-.13-4.46-1.5-9.37-1.15-13.6,1.07l-171.39,89.98c-5.72,3-9.3,8.93-9.3,15.38v18.37l107.56-29.66-107.56,46.01v36.58l108.31-14.56-108.31,30.73v33.91l107.45,17.14-107.45-1.83v35.22l108.31,38.42-108.31-21.98v31.83c0,7.98,5.44,14.94,13.19,16.86l171.19,42.51c2.75.68,5.62.68,8.37,0h0s171.33-42.51,171.33-42.51c7.75-1.92,13.19-8.88,13.19-16.86v-31.95l-108.9,22.1,108.9-38.63v-35.02l-108.04,1.84,108.04-17.23v-33.65l-108.9-30.9,108.9,14.63v-36.41l-108.14-46.26,108.14,29.82v-21.59Z"/>
          <path class="cls-93" d="M843.13,859.97c0-6.54-3.67-12.53-9.51-15.49l-171.13-86.93c-.37-.19-.75-.33-1.12-.49-.27-.11-.53-.25-.8-.35-.14-.05-.28-.08-.42-.13-4.46-1.5-9.37-1.15-13.6,1.07l-171.39,89.98c-5.72,3-9.3,8.93-9.3,15.38v18.37l107.56-29.66-107.56,46.01v36.58l108.31-14.56-108.31,30.73v33.91l107.45,17.14-107.45-1.83v35.22l108.31,38.42-108.31-21.98v31.83c0,7.98,5.44,14.94,13.19,16.86l171.19,42.51c2.75.68,5.62.68,8.37,0h0s171.33-42.51,171.33-42.51c7.75-1.92,13.19-8.88,13.19-16.86v-31.95l-108.9,22.1,108.9-38.63v-35.02l-108.04,1.84,108.04-17.23v-33.65l-108.9-30.9,108.9,14.63v-36.41l-108.14-46.26,108.14,29.82v-21.59Z"/>
          <path class="cls-93" d="M843.13,529.15c0-6.54-3.67-12.53-9.51-15.49l-171.13-86.93c-.37-.19-.75-.33-1.12-.49-.27-.11-.53-.25-.8-.35-.14-.05-.28-.08-.42-.13-4.46-1.5-9.37-1.15-13.6,1.07l-171.39,89.98c-5.72,3-9.3,8.93-9.3,15.38v18.37l107.56-29.66-107.56,46.01v36.58l108.31-14.56-108.31,30.73v33.91l107.45,17.14-107.45-1.83v35.22l108.31,38.42-108.31-21.98v31.83c0,7.98,5.44,14.94,13.19,16.86l171.19,42.51c2.75.68,5.62.68,8.37,0h0s171.33-42.51,171.33-42.51c7.75-1.92,13.19-8.88,13.19-16.86v-31.95l-108.9,22.1,108.9-38.63v-35.02l-108.04,1.84,108.04-17.23v-33.65l-108.9-30.9,108.9,14.63v-36.41l-108.14-46.26,108.14,29.82v-21.59Z"/>
          <path class="cls-93" d="M610.15,363.33c0-6.54-3.67-12.53-9.51-15.49l-171.13-86.93c-.37-.19-.75-.33-1.12-.49-.27-.11-.53-.25-.8-.35-.14-.05-.28-.08-.42-.13-4.46-1.5-9.37-1.15-13.6,1.07l-171.39,89.98c-5.72,3-9.3,8.93-9.3,15.38v18.37l107.56-29.66-107.56,46.01v36.58l108.31-14.56-108.31,30.73v33.91l107.45,17.14-107.45-1.83v35.22l108.31,38.42-108.31-21.98v31.83c0,7.98,5.44,14.94,13.19,16.86l171.19,42.51c2.75.68,5.62.68,8.37,0h0s171.33-42.51,171.33-42.51c7.75-1.92,13.19-8.88,13.19-16.86v-31.95l-108.9,22.1,108.9-38.63v-35.02l-108.04,1.84,108.04-17.23v-33.65l-108.9-30.9,108.9,14.63v-36.41l-108.14-46.26,108.14,29.82v-21.59Z"/>
          <path class="cls-93" d="M610.87,695.91c0-6.54-3.67-12.53-9.51-15.49l-171.13-86.93c-.37-.19-.75-.33-1.12-.49-.27-.11-.53-.25-.8-.35-.14-.05-.28-.08-.42-.13-4.46-1.5-9.37-1.15-13.6,1.07l-171.39,89.98c-5.72,3-9.3,8.93-9.3,15.38v18.37l107.56-29.66-107.56,46.01v36.58l108.31-14.56-108.31,30.73v33.91l107.45,17.14-107.45-1.83v35.22l108.31,38.42-108.31-21.98v31.83c0,7.98,5.44,14.94,13.19,16.86l171.19,42.51c2.75.68,5.62.68,8.37,0h0s171.33-42.51,171.33-42.51c7.75-1.92,13.19-8.88,13.19-16.86v-31.95l-108.9,22.1,108.9-38.63v-35.02l-108.04,1.84,108.04-17.23v-33.65l-108.9-30.9,108.9,14.63v-36.41l-108.14-46.26,108.14,29.82v-21.59Z"/>
          <path class="cls-93" d="M611.65,1026.35c0-6.54-3.67-12.53-9.51-15.49l-171.13-86.93c-.37-.19-.75-.33-1.12-.49-.27-.11-.53-.25-.8-.35-.14-.05-.28-.08-.42-.13-4.46-1.5-9.37-1.15-13.6,1.07l-171.39,89.98c-5.72,3-9.3,8.93-9.3,15.38v18.37l107.56-29.66-107.56,46.01v36.58l108.31-14.56-108.31,30.73v33.91l107.45,17.14-107.45-1.83v35.22l108.31,38.42-108.31-21.98v31.83c0,7.98,5.44,14.94,13.19,16.86l171.19,42.51c2.75.68,5.62.68,8.37,0h0s171.33-42.51,171.33-42.51c7.75-1.92,13.19-8.88,13.19-16.86v-31.95l-108.9,22.1,108.9-38.63v-35.02l-108.04,1.84,108.04-17.23v-33.65l-108.9-30.9,108.9,14.63v-36.41l-108.14-46.26,108.14,29.82v-21.59Z"/>
          <path class="cls-93" d="M380.89,860.32c0-6.54-3.67-12.53-9.51-15.49l-171.13-86.93c-.37-.19-.75-.33-1.12-.49-.27-.11-.53-.25-.8-.35-.14-.05-.28-.08-.42-.13-4.46-1.5-9.37-1.15-13.6,1.07L12.92,847.99c-5.72,3-9.3,8.93-9.3,15.38v18.37l107.56-29.66L3.62,898.1v36.58l108.31-14.56-108.31,30.73v33.91l107.45,17.14-107.45-1.83v35.22l108.31,38.42-108.31-21.98v31.83c0,7.98,5.44,14.94,13.19,16.86l171.19,42.51c2.75.68,5.62.68,8.37,0h0s171.33-42.51,171.33-42.51c7.75-1.92,13.19-8.88,13.19-16.86v-31.95l-108.9,22.1,108.9-38.63v-35.02l-108.04,1.84,108.04-17.23v-33.65l-108.9-30.9,108.9,14.63v-36.41l-108.14-46.26,108.14,29.82v-21.59Z"/>
          <path class="cls-93" d="M380.7,527.59c0-6.54-3.67-12.53-9.51-15.49l-171.13-86.93c-.37-.19-.75-.33-1.12-.49-.27-.11-.53-.25-.8-.35-.14-.05-.28-.08-.42-.13-4.46-1.5-9.37-1.15-13.6,1.07L12.73,515.27c-5.72,3-9.3,8.93-9.3,15.38v18.37l107.56-29.66L3.43,565.38v36.58l108.31-14.56-108.31,30.73v33.91l107.45,17.14-107.45-1.83v35.22l108.31,38.42-108.31-21.98v31.83c0,7.98,5.44,14.94,13.19,16.86l171.19,42.51c2.75.68,5.62.68,8.37,0h0s171.33-42.51,171.33-42.51c7.75-1.92,13.19-8.88,13.19-16.86v-31.95l-108.9,22.1,108.9-38.63v-35.02l-108.04,1.84,108.04-17.23v-33.65l-108.9-30.9,108.9,14.63v-36.41l-108.14-46.26,108.14,29.82v-21.59Z"/>
        </g>
        <g class="cls-92">
          <path class="cls-93" d="M1770.32,355.34c0-6.54-3.67-12.53-9.51-15.49l-171.13-86.93c-.37-.19-.75-.33-1.12-.49-.27-.11-.53-.25-.8-.35-.14-.05-.28-.08-.42-.13-4.46-1.5-9.37-1.15-13.6,1.07l-171.39,89.98c-5.72,3-9.3,8.93-9.3,15.38v18.37l107.56-29.66-107.56,46.01v36.58l108.31-14.56-108.31,30.73v33.91l107.45,17.14-107.45-1.83v35.22l108.31,38.42-108.31-21.98v31.83c0,7.98,5.44,14.94,13.19,16.86l171.19,42.51c2.75.68,5.62.68,8.37,0h0s171.33-42.51,171.33-42.51c7.75-1.92,13.19-8.88,13.19-16.86v-31.95l-108.9,22.1,108.9-38.63v-35.02l-108.04,1.84,108.04-17.23v-33.65l-108.9-30.9,108.9,14.63v-36.41l-108.14-46.26,108.14,29.82v-21.59Z"/>
          <path class="cls-93" d="M1770.32,24.84c0-6.54-3.67-12.53-9.51-15.49l-171.13-86.93c-.37-.19-.75-.33-1.12-.49-.27-.11-.53-.25-.8-.35-.14-.05-.28-.08-.42-.13-4.46-1.5-9.37-1.15-13.6,1.07l-171.39,89.98c-5.72,3-9.3,8.93-9.3,15.38v18.37l107.56-29.66-107.56,46.01v36.58l108.31-14.56-108.31,30.73v33.91l107.45,17.14-107.45-1.83v35.22l108.31,38.42-108.31-21.98v31.83c0,7.98,5.44,14.94,13.19,16.86l171.19,42.51c2.75.68,5.62.68,8.37,0h0s171.33-42.51,171.33-42.51c7.75-1.92,13.19-8.88,13.19-16.86v-31.95l-108.9,22.1,108.9-38.63v-35.02l-108.04,1.84,108.04-17.23v-33.65l-108.9-30.9,108.9,14.63v-36.41l-108.14-46.26,108.14,29.82v-21.59Z"/>
          <path class="cls-93" d="M1538.38-144.24c0-6.54-3.67-12.53-9.51-15.49l-171.13-86.93c-.37-.19-.75-.33-1.12-.49-.27-.11-.53-.25-.8-.35-.14-.05-.28-.08-.42-.13-4.46-1.5-9.37-1.15-13.6,1.07l-171.39,89.98c-5.72,3-9.3,8.93-9.3,15.38v18.37l107.56-29.66-107.56,46.01v36.58l108.31-14.56-108.31,30.73V-19.78l107.45,17.14-107.45-1.83V30.75l108.31,38.42-108.31-21.98v31.83c0,7.98,5.44,14.94,13.19,16.86l171.19,42.51c2.75.68,5.62.68,8.37,0h0s171.33-42.51,171.33-42.51c7.75-1.92,13.19-8.88,13.19-16.86v-31.95l-108.9,22.1,108.9-38.63V-4.48l-108.04,1.84,108.04-17.23v-33.65l-108.9-30.9,108.9,14.63v-36.41l-108.14-46.26,108.14,29.82v-21.59Z"/>
          <path id="_Pth_-3" data-name="&amp;lt;Pth&amp;gt;" class="cls-93" d="M1537.43,188.46c0-6.54-3.67-12.53-9.51-15.49l-171.13-86.93c-.37-.19-.75-.33-1.12-.49-.27-.11-.53-.25-.8-.35-.14-.05-.28-.08-.42-.13-4.46-1.5-9.37-1.15-13.6,1.07l-171.39,89.98c-5.72,3-9.3,8.93-9.3,15.38v18.37l107.56-29.66-107.56,46.01v36.58l108.31-14.56-108.31,30.73v33.91l107.45,17.14-107.45-1.83v35.22l108.31,38.42-108.31-21.98v31.83c0,7.98,5.44,14.94,13.19,16.86l171.19,42.51c2.75.68,5.62.68,8.37,0h0s171.33-42.51,171.33-42.51c7.75-1.92,13.19-8.88,13.19-16.86v-31.95l-108.9,22.1,108.9-38.63v-35.02l-108.04,1.84,108.04-17.23v-33.65l-108.9-30.9,108.9,14.63v-36.41l-108.14-46.26,108.14,29.82v-21.59Z"/>
          <path class="cls-93" d="M1539.05,519.32c0-6.54-3.67-12.53-9.51-15.49l-171.13-86.93c-.37-.19-.75-.33-1.12-.49-.27-.11-.53-.25-.8-.35-.14-.05-.28-.08-.42-.13-4.46-1.5-9.37-1.15-13.6,1.07l-171.39,89.98c-5.72,3-9.3,8.93-9.3,15.38v18.37l107.56-29.66-107.56,46.01v36.58l108.31-14.56-108.31,30.73v33.91l107.45,17.14-107.45-1.83v35.22l108.31,38.42-108.31-21.98v31.83c0,7.98,5.44,14.94,13.19,16.86l171.19,42.51c2.75.68,5.62.68,8.37,0h0s171.33-42.51,171.33-42.51c7.75-1.92,13.19-8.88,13.19-16.86v-31.95l-108.9,22.1,108.9-38.63v-35.02l-108.04,1.84,108.04-17.23v-33.65l-108.9-30.9,108.9,14.63v-36.41l-108.14-46.26,108.14,29.82v-21.59Z"/>
          <path class="cls-93" d="M1307.54,354.86c0-6.54-3.67-12.53-9.51-15.49l-171.13-86.93c-.37-.19-.75-.33-1.12-.49-.27-.11-.53-.25-.8-.35-.14-.05-.28-.08-.42-.13-4.46-1.5-9.37-1.15-13.6,1.07l-171.39,89.98c-5.72,3-9.3,8.93-9.3,15.38v18.37l107.56-29.66-107.56,46.01v36.58l108.31-14.56-108.31,30.73v33.91l107.45,17.14-107.45-1.83v35.22l108.31,38.42-108.31-21.98v31.83c0,7.98,5.44,14.94,13.19,16.86l171.19,42.51c2.75.68,5.62.68,8.37,0h0s171.33-42.51,171.33-42.51c7.75-1.92,13.19-8.88,13.19-16.86v-31.95l-108.9,22.1,108.9-38.63v-35.02l-108.04,1.84,108.04-17.23v-33.65l-108.9-30.9,108.9,14.63v-36.41l-108.14-46.26,108.14,29.82v-21.59Z"/>
          <path class="cls-93" d="M1306.16,22.19c0-6.54-3.67-12.53-9.51-15.49l-171.13-86.93c-.37-.19-.75-.33-1.12-.49-.27-.11-.53-.25-.8-.35-.14-.05-.28-.08-.42-.13-4.46-1.5-9.37-1.15-13.6,1.07L938.19,9.86c-5.72,3-9.3,8.93-9.3,15.38v18.37l107.56-29.66-107.56,46.01v36.58l108.31-14.56-108.31,30.73v33.91l107.45,17.14-107.45-1.83v35.22l108.31,38.42-108.31-21.98v31.83c0,7.98,5.44,14.94,13.19,16.86l171.19,42.51c2.75.68,5.62.68,8.37,0h0s171.33-42.51,171.33-42.51c7.75-1.92,13.19-8.88,13.19-16.86v-31.95l-108.9,22.1,108.9-38.63v-35.02l-108.04,1.84,108.04-17.23v-33.65l-108.9-30.9,108.9,14.63v-36.41l-108.14-46.26,108.14,29.82v-21.59Z"/>
          <path class="cls-93" d="M1074.49,518.34c0-6.54-3.67-12.53-9.51-15.49l-171.13-86.93c-.37-.19-.75-.33-1.12-.49-.27-.11-.53-.25-.8-.35-.14-.05-.28-.08-.42-.13-4.46-1.5-9.37-1.15-13.6,1.07l-171.39,89.98c-5.72,3-9.3,8.93-9.3,15.38v18.37l107.56-29.66-107.56,46.01v36.58l108.31-14.56-108.31,30.73v33.91l107.45,17.14-107.45-1.83v35.22l108.31,38.42-108.31-21.98v31.83c0,7.98,5.44,14.94,13.19,16.86l171.19,42.51c2.75.68,5.62.68,8.37,0h0s171.33-42.51,171.33-42.51c7.75-1.92,13.19-8.88,13.19-16.86v-31.95l-108.9,22.1,108.9-38.63v-35.02l-108.04,1.84,108.04-17.23v-33.65l-108.9-30.9,108.9,14.63v-36.41l-108.14-46.26,108.14,29.82v-21.59Z"/>
          <path id="Path_-3" data-name="Path&amp;gt;" class="cls-93" d="M1074.49,188.66c0-6.54-3.67-12.53-9.51-15.49l-171.13-86.93c-.37-.19-.75-.33-1.12-.49-.27-.11-.53-.25-.8-.35-.14-.05-.28-.08-.42-.13-4.46-1.5-9.37-1.15-13.6,1.07l-171.39,89.98c-5.72,3-9.3,8.93-9.3,15.38v18.37l107.56-29.66-107.56,46.01v36.58l108.31-14.56-108.31,30.73v33.91l107.45,17.14-107.45-1.83v35.22l108.31,38.42-108.31-21.98v31.83c0,7.98,5.44,14.94,13.19,16.86l171.19,42.51c2.75.68,5.62.68,8.37,0h0s171.33-42.51,171.33-42.51c7.75-1.92,13.19-8.88,13.19-16.86v-31.95l-108.9,22.1,108.9-38.63v-35.02l-108.04,1.84,108.04-17.23v-33.65l-108.9-30.9,108.9,14.63v-36.41l-108.14-46.26,108.14,29.82v-21.59Z"/>
          <path id="_Path-3" data-name="&amp;lt;Path" class="cls-93" d="M1074.49-142.17c0-6.54-3.67-12.53-9.51-15.49l-171.13-86.93c-.37-.19-.75-.33-1.12-.49-.27-.11-.53-.25-.8-.35-.14-.05-.28-.08-.42-.13-4.46-1.5-9.37-1.15-13.6,1.07l-171.39,89.98c-5.72,3-9.3,8.93-9.3,15.38v18.37l107.56-29.66-107.56,46.01v36.58l108.31-14.56-108.31,30.73V-17.72L804.67-.58l-107.45-1.83v35.22l108.31,38.42-108.31-21.98v31.83c0,7.98,5.44,14.94,13.19,16.86l171.19,42.51c2.75.68,5.62.68,8.37,0h0s171.33-42.51,171.33-42.51c7.75-1.92,13.19-8.88,13.19-16.86v-31.95l-108.9,22.1,108.9-38.63V-2.42l-108.04,1.84,108.04-17.23v-33.65l-108.9-30.9,108.9,14.63v-36.41l-108.14-46.26,108.14,29.82v-21.59Z"/>
          <path class="cls-93" d="M843.13,352.94c0-6.54-3.67-12.53-9.51-15.49l-171.13-86.93c-.37-.19-.75-.33-1.12-.49-.27-.11-.53-.25-.8-.35-.14-.05-.28-.08-.42-.13-4.46-1.5-9.37-1.15-13.6,1.07l-171.39,89.98c-5.72,3-9.3,8.93-9.3,15.38v18.37l107.56-29.66-107.56,46.01v36.58l108.31-14.56-108.31,30.73v33.91l107.45,17.14-107.45-1.83v35.22l108.31,38.42-108.31-21.98v31.83c0,7.98,5.44,14.94,13.19,16.86l171.19,42.51c2.75.68,5.62.68,8.37,0h0s171.33-42.51,171.33-42.51c7.75-1.92,13.19-8.88,13.19-16.86v-31.95l-108.9,22.1,108.9-38.63v-35.02l-108.04,1.84,108.04-17.23v-33.65l-108.9-30.9,108.9,14.63v-36.41l-108.14-46.26,108.14,29.82v-21.59Z"/>
          <path class="cls-93" d="M843.13,22.12c0-6.54-3.67-12.53-9.51-15.49l-171.13-86.93c-.37-.19-.75-.33-1.12-.49-.27-.11-.53-.25-.8-.35-.14-.05-.28-.08-.42-.13-4.46-1.5-9.37-1.15-13.6,1.07L475.16,9.79c-5.72,3-9.3,8.93-9.3,15.38v18.37l107.56-29.66-107.56,46.01v36.58l108.31-14.56-108.31,30.73v33.91l107.45,17.14-107.45-1.83v35.22l108.31,38.42-108.31-21.98v31.83c0,7.98,5.44,14.94,13.19,16.86l171.19,42.51c2.75.68,5.62.68,8.37,0h0s171.33-42.51,171.33-42.51c7.75-1.92,13.19-8.88,13.19-16.86v-31.95l-108.9,22.1,108.9-38.63v-35.02l-108.04,1.84,108.04-17.23v-33.65l-108.9-30.9,108.9,14.63v-36.41l-108.14-46.26,108.14,29.82v-21.59Z"/>
          <path class="cls-93" d="M610.15-143.7c0-6.54-3.67-12.53-9.51-15.49l-171.13-86.93c-.37-.19-.75-.33-1.12-.49-.27-.11-.53-.25-.8-.35-.14-.05-.28-.08-.42-.13-4.46-1.5-9.37-1.15-13.6,1.07l-171.39,89.98c-5.72,3-9.3,8.93-9.3,15.38v18.37l107.56-29.66-107.56,46.01v36.58l108.31-14.56-108.31,30.73V-19.25L340.34-2.11l-107.45-1.83V31.28l108.31,38.42-108.31-21.98v31.83c0,7.98,5.44,14.94,13.19,16.86l171.19,42.51c2.75.68,5.62.68,8.37,0h0s171.33-42.51,171.33-42.51c7.75-1.92,13.19-8.88,13.19-16.86v-31.95l-108.9,22.1,108.9-38.63V-3.95l-108.04,1.84,108.04-17.23v-33.65l-108.9-30.9,108.9,14.63v-36.41l-108.14-46.26,108.14,29.82v-21.59Z"/>
          <path class="cls-93" d="M610.87,188.88c0-6.54-3.67-12.53-9.51-15.49l-171.13-86.93c-.37-.19-.75-.33-1.12-.49-.27-.11-.53-.25-.8-.35-.14-.05-.28-.08-.42-.13-4.46-1.5-9.37-1.15-13.6,1.07l-171.39,89.98c-5.72,3-9.3,8.93-9.3,15.38v18.37l107.56-29.66-107.56,46.01v36.58l108.31-14.56-108.31,30.73v33.91l107.45,17.14-107.45-1.83v35.22l108.31,38.42-108.31-21.98v31.83c0,7.98,5.44,14.94,13.19,16.86l171.19,42.51c2.75.68,5.62.68,8.37,0h0s171.33-42.51,171.33-42.51c7.75-1.92,13.19-8.88,13.19-16.86v-31.95l-108.9,22.1,108.9-38.63v-35.02l-108.04,1.84,108.04-17.23v-33.65l-108.9-30.9,108.9,14.63v-36.41l-108.14-46.26,108.14,29.82v-21.59Z"/>
          <path class="cls-93" d="M611.65,519.31c0-6.54-3.67-12.53-9.51-15.49l-171.13-86.93c-.37-.19-.75-.33-1.12-.49-.27-.11-.53-.25-.8-.35-.14-.05-.28-.08-.42-.13-4.46-1.5-9.37-1.15-13.6,1.07l-171.39,89.98c-5.72,3-9.3,8.93-9.3,15.38v18.37l107.56-29.66-107.56,46.01v36.58l108.31-14.56-108.31,30.73v33.91l107.45,17.14-107.45-1.83v35.22l108.31,38.42-108.31-21.98v31.83c0,7.98,5.44,14.94,13.19,16.86l171.19,42.51c2.75.68,5.62.68,8.37,0h0s171.33-42.51,171.33-42.51c7.75-1.92,13.19-8.88,13.19-16.86v-31.95l-108.9,22.1,108.9-38.63v-35.02l-108.04,1.84,108.04-17.23v-33.65l-108.9-30.9,108.9,14.63v-36.41l-108.14-46.26,108.14,29.82v-21.59Z"/>
          <path class="cls-93" d="M380.89,353.29c0-6.54-3.67-12.53-9.51-15.49l-171.13-86.93c-.37-.19-.75-.33-1.12-.49-.27-.11-.53-.25-.8-.35-.14-.05-.28-.08-.42-.13-4.46-1.5-9.37-1.15-13.6,1.07L12.92,340.96c-5.72,3-9.3,8.93-9.3,15.38v18.37l107.56-29.66L3.62,391.07v36.58l108.31-14.56L3.62,443.83v33.91l107.45,17.14-107.45-1.83v35.22l108.31,38.42-108.31-21.98v31.83c0,7.98,5.44,14.94,13.19,16.86l171.19,42.51c2.75.68,5.62.68,8.37,0h0s171.33-42.51,171.33-42.51c7.75-1.92,13.19-8.88,13.19-16.86v-31.95l-108.9,22.1,108.9-38.63v-35.02l-108.04,1.84,108.04-17.23v-33.65l-108.9-30.9,108.9,14.63v-36.41l-108.14-46.26,108.14,29.82v-21.59Z"/>
          <path class="cls-93" d="M380.7,20.56c0-6.54-3.67-12.53-9.51-15.49l-171.13-86.93c-.37-.19-.75-.33-1.12-.49-.27-.11-.53-.25-.8-.35-.14-.05-.28-.08-.42-.13-4.46-1.5-9.37-1.15-13.6,1.07L12.73,8.24c-5.72,3-9.3,8.93-9.3,15.38v18.37L110.98,12.34,3.43,58.35v36.58l108.31-14.56L3.43,111.1v33.91l107.45,17.14-107.45-1.83v35.22l108.31,38.42L3.43,211.99v31.83c0,7.98,5.44,14.94,13.19,16.86l171.19,42.51c2.75.68,5.62.68,8.37,0h0s171.33-42.51,171.33-42.51c7.75-1.92,13.19-8.88,13.19-16.86v-31.95l-108.9,22.1,108.9-38.63v-35.02l-108.04,1.84,108.04-17.23v-33.65l-108.9-30.9,108.9,14.63v-36.41l-108.14-46.26,108.14,29.82v-21.59Z"/>
        </g>
      </g>
    </pattern>
    <clipPath id="clippath-3">
      <rect class="cls-29" x="-274.79" y="-2986.5" width="1434" height="2069"/>
    </clipPath>
    <linearGradient id="linear-gradient" x1="87.9" y1="-484.17" x2="1544.28" y2="-484.17" gradientUnits="userSpaceOnUse">
      <stop offset="0" stop-color="#926f34"/>
      <stop offset=".57" stop-color="#dfbd69"/>
    </linearGradient>
    <clipPath id="clippath-5">
      <rect class="cls-29" x="1192.21" y="-1886.5" width="1089" height="1087"/>
    </clipPath>
    <linearGradient id="linear-gradient-2" x1="1468.03" y1="-466.3" x2="2572.14" y2="-466.3" gradientUnits="userSpaceOnUse">
      <stop offset="0" stop-color="#203a37"/>
      <stop offset=".06" stop-color="#213c39"/>
      <stop offset=".6" stop-color="#2b4d49"/>
      <stop offset=".99" stop-color="#2f544f"/>
    </linearGradient>
    <clipPath id="clippath-7">
      <rect class="cls-29" width="3716.21" height="965.83"/>
    </clipPath>
  </defs>
  
  
  
  <g class="cls-94">
    <g id="Group_57825" data-name="Group 57825">
      <path id="Path_223153" data-name="Path 223153" class="cls-7" d="M3458.32,412.67c83.51,23.72,167.32,47.51,250.83,70.91,4.97,1.46,6.75,3.17,6.75,8.8-.29,23.72,0,47.51,0,71.2,0,4.69-1.17,6.14-5.86,7.03-81.74,12.89-163.2,26.07-244.97,38.99-1.29.92-2.82,1.42-4.4,1.46,14.66,0,29.01.89,43.67,0,52.45-.89,104.52-1.46,157.05-2.34,16.41,0,32.81-.3,49.21-.89,3.8,0,5.57.29,5.57,4.97v77.37c0,4.97-2.63,5.57-5.86,6.75-84.69,29.9-169.38,60.17-254.06,91.12,2.06.09,4.13-.11,6.14-.6,81.74-16.69,163.8-33.13,245.54-49.82q7.92-1.77,7.92,6.33v68.57c1.5,21.97-13.79,41.55-35.47,45.42l-375.08,93.18c-17.58,4.4-35.47,8.49-53.05,12.67-5.86,1.77-8.2-.89-8.2-6.33v-315.03c-.09-3.73.12-7.45.6-11.15,1.17-4.12,3.8-3.17,6.33-1.46,7.63,5.86,14.95,12.32,21.98,18.75,2.63,2.34,2.06,5.29.29,8.2-1.92,2.98-3.49,6.17-4.69,9.5-1.77,4.97-1.17,7.03,2.63,12.67,1.01-5.17,2.89-10.13,5.57-14.66,4.69-6.14,6.14-6.75,12.32-2.06,3.8,2.95,7.63,5.86,11.43,9.09,6.81,5.06,15.44,6.98,23.75,5.29,9.16-1.1,16-8.96,15.84-18.18.49-4.13-2.13-8-6.14-9.09-4.69-1.17-6.33,2.06-8.2,5.57-4.12,8.8-8.49,10.26-17.01,5.86-2.44-1.2-4.79-2.57-7.03-4.12-11.43-8.49-9.66-9.09-4.4-17.58,4.61-5.56,3.84-13.81-1.72-18.42-.02-.02-.03-.03-.05-.05.36,6.53-1.85,12.93-6.14,17.86-2.34,2.63-5.29,4.12-8.2,1.17-6.14-5.86-13.18-10.83-18.75-17.29-3.17-3.8-3.17-6.75.6-9.98,31.73-28.49,69.69-49.17,110.85-60.36,9.73-2.7,19.8-3.98,29.9-3.8,1.48-.21,2.97.21,4.12,1.17-1.17-1.46-3.17-.89-4.69-1.17-40.35-9.5-82.83.36-114.87,26.67-12.67,9.09-24.04,19-36.04,29.01-2.06,1.77-4.97,5.57-7.31,0-.67-8.43-.77-16.89-.29-25.34-.06-2.28.66-4.52,2.06-6.33,4.12-3.17,9.5-1.17,14.95-2.34-5.49-3.48-8.06-10.14-6.33-16.41,2.1-9.66,2.01-19.68-.29-29.3.59-3.58.88-7.2.89-10.83-.09-1.09.11-2.18.57-3.17,1.88-6.02,1.35-12.53-1.46-18.18,0-3.17,1.17-6.33.89-9.66-.19-2.43-.03-4.87.45-7.25.75-3.27,1.04-6.63.89-9.98,3.17-3.8-2.34-5.57-2.34-8.49,0-4.4,1.17-8.8.89-13.18.29-3.17,1.46-6.14,1.77-9.5,0-.6.57-1.17.89-1.77,1.17-1.17,2.34-.6,3.51,0s1.46,2.06,2.34,2.95c1.05,1.46,1.93,3.03,2.63,4.69.57,1.17,1.17,2.63,1.77,4.12.65,2,1.43,3.96,2.34,5.86.46,1.52,1.06,2.99,1.77,4.4.86,1.79,1.55,3.65,2.06,5.57,1.17,4.69,2.34,9.5,3.51,13.78.89,3.17,0,6.33,1.46,9.5,0,.6.29,1.46.29,2.06,0,7.63.57,15.23,0,21.69,2.92-9.62,5.27-19.4,7.03-29.3.88-4.44,1.18-8.98.89-13.49v-5.57c-.26-5.03-.94-10.03-2.06-14.95-.6-2.34-.6-4.69-1.17-7.03-.43-1.53-.73-3.1-.89-4.69,0-1,.56-1.91,1.46-2.34h2.06c1.41.64,2.63,1.66,3.51,2.95,2.63,3.8,5.86,7.32,8.2,11.43,1.46,2.63,2.95,4.97,4.69,7.63,6.87,11.78,11.72,24.62,14.35,38,1.35-17.13-.74-34.36-6.14-50.67-1.07-3.16-2.45-6.2-4.12-9.09-1.78-4.35-4.04-8.48-6.75-12.32-.65-1.07-1.05-2.27-1.17-3.52.04-1.01.76-1.86,1.74-2.06,1.25.08,2.47.48,3.51,1.17,3.02,2.11,5.85,4.46,8.49,7.03,2.06,2.06,4.12,4.12,6.14,5.86,7.34,8.05,13.47,17.13,18.18,26.95-1.72-13.07-6.33-25.58-13.49-36.64-1.59-2.73-3.46-5.29-5.57-7.63-1.84-2.88-4.12-5.45-6.75-7.63-1.39-1.45-2.86-2.82-4.4-4.12-1.24-1.21-2.63-2.28-4.12-3.17-1.7-1.31-3.27-2.79-4.69-4.4-.89-3.52,1.77-2.63,3.51-2.63,2.1.75,4.15,1.63,6.14,2.63,1.89,1.1,3.85,2.08,5.86,2.95,4.4,2.34,8.49,4.97,12.89,7.92,1.77,1.17,2.95,2.34,4.4,3.52,4.93,3.61,9.28,7.96,12.89,12.89-2.22-6.41-5.42-12.44-9.5-17.86-1.2-2.16-2.58-4.21-4.12-6.14-2.95-3.16-6.13-6.1-9.5-8.8-1.46-1.17-2.95-2.34-4.12-3.17-1.84-1.43-3.8-2.71-5.86-3.8-2.03-1.15-4.14-2.14-6.33-2.95-1.8-.99-3.66-1.87-5.57-2.63-1.17-.6-2.34-.89-3.51-1.46-1.61-.48-3.1-1.28-4.4-2.34-.57-1.17,0-2.06,1.17-2.63,6.59-1.12,13.31-1.22,19.92-.29l7.31,1.77c2.89.8,5.72,1.79,8.49,2.95,2.71.88,5.35,1.94,7.92,3.17-1.46-1.77-3.51-3.17-5.29-4.97-1.94-2.32-4.33-4.22-7.03-5.57-1.69-1.27-3.57-2.26-5.57-2.95-2.49-1.56-5.15-2.83-7.92-3.8-1.43-.53-2.9-.92-4.4-1.17-2.17-.18-4.3-.67-6.33-1.46-.71-.1-1.4-.3-2.06-.6-2.28-.64-4.67-.84-7.03-.6h-7.63c-3.17-.29-7.03.89-9.66-2.63,3.51-5.86,9.66-4.69,14.95-6.75,4.69-.29,9.5-2.63,12.89-1.17-2.78-1.04-5.61-1.92-8.49-2.63-6.2-2.62-13.07-3.25-19.64-1.77-3.83.61-7.57,1.67-11.15,3.17-2.34.6-4.97,1.77-7.31.29-1.93-2.68-3.41-5.65-4.4-8.8-1.46-4.69-3.8-9.5-5.29-14.06-.74-3.67-1.04-7.41-.89-11.15V12.67c0-4.4-1.46-9.5,3.51-12.67,6.45-.36,12.87,1.17,18.46,4.4,140.94,71.49,281.79,143.09,422.55,214.79,17.59,7.43,28.45,25.3,26.95,44.34-.29,14.66,0,29.01,0,43.67,0,4.97-.6,6.14-6.14,4.69-81.46-22.57-163.12-45.13-244.97-67.68-1.17-.29-2.63-.6-4.12-.89-.6-.29-1.77-.6-2.06,0s.6.89.89,1.17c83.21,35.75,166.43,71.3,249.66,106.67,4.2,1.12,6.91,5.19,6.33,9.5-.29,25.78,0,51.56,0,77.37,0,5.29-.89,6.75-6.33,5.86-35.47-4.97-71.2-9.66-106.67-14.66-47.19-6.33-94.35-12.67-141.82-18.75-2.34-1.17-4.97.6-7.63-.6-1.01.05-1.99-.38-2.63-1.17,0,.6.89.6,1.46.89,2.12.06,4.17.78,5.86,2.06l.52,1.01Z"/>
      <path id="Path_223154" data-name="Path 223154" class="cls-49" d="M3247.65.7c-1.35,2.4-1.86,5.19-1.46,7.92v302.11c-.23,2.81.27,5.64,1.46,8.2-2.19,7.55-5.44,14.75-9.66,21.38-4.12,1.77-7.32-1.17-11.15-2.06-2.01-.62-4.07-1.11-6.14-1.46-7.27-1.18-14.71-.57-21.69,1.77-3.52,0-6.33,2.63-8.49,2.63,1.61-.46,3.29-.67,4.97-.6,3.05.32,6.09.81,9.09,1.46,4.78.77,9.36,2.46,13.49,4.97.62.49.85,1.32.57,2.06-3.17,3.17-7.32,1.77-11.15,2.34-4.01-.1-8.02.1-12,.6-4.1.53-8.12,1.52-12,2.95-5.36,1.44-10.42,3.82-14.95,7.03-4.12,2.95-7.92,6.14-12.89,10.26,2.91-.72,5.68-1.9,8.2-3.52,5.05-1.78,10.25-3.16,15.52-4.12,7.4-1.06,14.93-.66,22.17,1.17.57.6.57,1.17,0,2.06-1.44,1.01-3.02,1.8-4.69,2.34-3.52,1.17-6.75,2.63-9.98,3.8-18.18,8.72-32.26,24.17-39.27,43.07,3.17-3.52,6.14-6.14,8.8-9.09,4.4-4.4,9.5-7.32,14.06-11.43,2.63-2.95,6.75-3.52,9.98-5.57,1.99-1,4.04-1.88,6.14-2.63,1.3-.26,2.64-.04,3.8.6.89,4.97-4.12,6.33-6.14,9.66-12.13,10.4-21.06,24.01-25.78,39.27-1.77,4.97-2.34,10.26-3.52,14.95,8.63-15.66,20.05-29.62,33.7-41.17,1.46-.89,3.17-1.77,4.97-.29,1.46,3.52-.89,6.14-2.63,8.8-6.24,9.78-10.71,20.59-13.18,31.92-1.42,5.25-2.12,10.68-2.06,16.12-1.08,7.18-1.28,14.47-.6,21.69,0,1.17-.57,2.34-.57,4.12.6-1.48.8-3.1.57-4.69,4.83-20.24,13.92-39.23,26.67-55.68,1.46-2.06,3.17-4.97,5.86-3.8,3.52,1.46,1.17,4.69.89,7.32-.06.9-.26,1.79-.6,2.63-1.42,5.65-2.11,11.46-2.06,17.29,0,3.52-1.74,7.03-.57,10.55.48,2.91.67,5.86.57,8.8.28,4.98,1.16,9.9,2.63,14.66.71,3.3,1.7,6.53,2.95,9.66.44,2.47,1.02,4.91,1.74,7.32-.77-2.88-1.26-5.83-1.46-8.8,0-5.29,1.77-10.26,1.46-15.23,1.04-7.79,2.51-15.52,4.4-23.15,2.76-10.58,7.87-20.39,14.95-28.73,4.69,1.17,3.8,5.29,4.12,8.49.09,4.02.48,8.04,1.17,12v4.4c-.39,2.09-1.19,4.08-2.34,5.86.1,3.74.49,7.47,1.17,11.15-.19,3.26.21,6.54,1.17,9.66.28,2.1.28,4.23,0,6.33-2.08,4.8-2.59,10.13-1.46,15.23v4.4c.25,2.85.64,5.68,1.17,8.49.26,3.67-.24,7.36-1.46,10.83-1.17,2.3-1.17,5.02,0,7.32.21,4.62.7,9.22,1.46,13.78,1.46,8.49,1.17,16.69-7.63,20.81,5.29-.29,11.43-2.63,17.29,1.46-1.56,7.52-1.95,15.23-1.17,22.87v10.26c-3.52.89-5.57-1.46-7.63-3.52-7.32-6.81-15.05-13.15-23.15-19-1.82-1.63-3.78-3.1-5.86-4.4-2.63-2.36-5.47-4.48-8.49-6.33-1.7-1.16-3.46-2.22-5.29-3.17-2.08-1.55-4.35-2.82-6.75-3.8-1.84-1.43-3.8-2.71-5.86-3.8-1.92-.87-3.78-1.85-5.57-2.95-1.8-1-3.66-1.87-5.57-2.63-1.72-.72-3.48-1.32-5.29-1.77-3.15-1.69-6.5-2.97-9.98-3.8-4.98-1.89-10.21-3.07-15.52-3.52-8.94-1.13-17.95-1.52-26.95-1.17-8,.43-15.94,1.61-23.72,3.52-1.2-.09-2.41.12-3.52.6,1.44-.44,2.91-.73,4.4-.89,7.39.04,14.75.82,21.98,2.34,7.82,1.5,15.56,3.46,23.15,5.86,3.8,1.46,7.92,2.63,11.43,4.12s6.33,2.63,9.66,4.4c1.86,1.16,3.82,2.14,5.86,2.95,1.92.87,3.78,1.85,5.57,2.95,1.77.89,3.8,1.77,5.57,2.63s3.17,1.77,4.69,2.63c2.34,1.46,4.69,2.63,6.75,4.12s3.52,2.06,5.57,3.17c3.8,2.63,7.63,5.29,11.43,7.63,2.06,1.46,4.12,3.17,6.14,4.4,7.32,5.57,14.95,10.83,21.69,17.01,4.97,4.12,4.97,6.33,0,10.55s-9.98,9.09-14.66,13.49c-5.86,5.29-9.5,4.69-14.06-1.77-2.42-3.94-4.01-8.32-4.69-12.89-4.35,4.19-4.97,10.93-1.46,15.84,4.01,6.85,1.71,15.66-5.14,19.67-.14.08-.29.17-.44.25-1.17.89-2.34,1.46-3.52,2.34-9.66,5.29-14.35,3.8-19-6.33-.78-2-2.24-3.66-4.12-4.69-7.92-.6-11.15,3.52-10.26,12.67.72,3.4,2.34,6.53,4.69,9.09,9.57,7.96,23.31,8.44,33.41,1.17,4.78-3.26,9.38-6.78,13.78-10.55,2.68-2.56,6.93-2.47,9.49.21.28.3.54.62.77.97,4.06,4.68,5.98,10.85,5.29,17.01,3.71-2.4,5.57-6.82,4.69-11.15-.31-3.47-1.63-6.77-3.8-9.5-3.11-2.9-3.27-7.77-.37-10.88.53-.57,1.15-1.06,1.83-1.44,6.33-5.57,12.89-11.15,19.64-16.41,1.17-.89,2.34-2.34,4.12-.89v327.6c0,4.69.89,7.63,6.14,7.32-5.62,1.48-11.57,1.17-17.01-.89-140.93-34.88-281.88-69.84-422.84-104.89-20.8-4.04-35.65-22.49-35.15-43.67-.28-24.32,0-48.36,0-72.68,0-5.86,2.34-4.97,6.33-4.12,80,16.41,160.28,32.53,240.29,48.93,1.18-.05,2.36.04,3.52.29,2.06,1.46,4.4-.6,6.33.6.28,0,.57.29.89.29.89,0,.57-1.17,0,0h-.57c-1.5-.38-2.91-1.09-4.12-2.06-58.59-20.81-116.93-41.62-175.52-62.42-23.72-8.49-47.76-17.01-71.51-25.34-3.93-.77-6.54-4.54-5.86-8.49,0-24.89.28-49.82,0-74.71,0-5.57,1.77-6.75,7.03-6.75,67.4,1.18,134.7,2.24,201.9,3.17h4.69c13.08.73,26.19.73,39.27,0-1.17-.6-3.17,0-4.4-1.77l-147.97-23.72c-31.92-5.29-64.16-10.26-96.12-15.23-3.52-.6-4.69-1.77-4.69-5.29v-75.06c0-4.97,2.95-5.57,6.14-6.33,45.7-12.89,91.85-26.07,137.42-38.99,37.5-10.55,74.71-21.38,112.24-31.92,1.72-1.55,4.06-2.21,6.33-1.77,1.74-.6,3.17-1.77,3.8-1.46-1.35.24-2.64.73-3.8,1.46-2.65.05-5.29.26-7.92.6l-80.28,10.55c-46.3,6.14-92.89,12.67-139.19,18.75-9.09,1.17-18.18,2.34-27.24,3.8-5.29.89-7.63.29-7.63-6.14.28-25.78,0-51.56,0-77.37-.53-4.06,1.95-7.9,5.86-9.09,80.57-34.29,161.15-68.77,241.74-103.44,3.01-.8,5.68-2.54,7.63-4.97-14.66,4.12-27.55,7.63-40.73,11.15-69.15,19-138.4,38.14-207.76,57.42-5.86,1.46-7.32.89-7.32-5.57.6-12,0-24.04,0-36.04-.85-18.01,9.36-34.73,25.78-42.19,58.02-30.18,115.76-60.65,173.78-91.12,82.01-42.86,163.89-85.9,245.64-129.12,7.63-4.69,16.38-7.21,25.34-7.32l.16-1.11Z"/>
      <path id="Path_223155" data-name="Path 223155" class="cls-82" d="M3216.04,581.47c11.15,7.03,19.64,16.69,30.18,24.04,7.89-5.11,15.26-11,21.98-17.58,22.5-20.17,49.39-34.82,78.54-42.79,18.86-4.29,38.51-3.58,57.01,2.06.89.89.89,1.77,0,2.34-43.44,3.73-84.76,20.36-118.67,47.76-7.31,5.57-14.35,11.43-21.98,17.01-3.17,2.34-4.4,4.12-.6,7.32,6.33,5.57,12.89,11.43,19,17.29,2.34,2.34,3.8,1.77,5.57-.6,4.11-4.1,6.33-9.72,6.14-15.52,0-1.17-.89-2.95.57-3.52,1.61-.38,3.28.34,4.12,1.77,1.86,2,2.98,4.59,3.17,7.32.07,4.19-.95,8.32-2.95,12q-4.97,9.66,3.8,15.84c2.8,2.05,5.85,3.72,9.09,4.97,6.14,2.63,9.97.89,11.72-5.29,1.77-5.57,4.4-9.5,10.55-8.2,5.46,1.19,8.97,6.52,7.92,12,.07,7.93-5.08,14.97-12.67,17.29-9.13,3.87-19.6,2.88-27.84-2.63-5.32-3.58-10.41-7.49-15.23-11.72-2.95-2.63-4.4-1.77-6.33.89-3.78,4.06-5.88,9.4-5.86,14.95,0,1.17.89,3.17-.89,3.52-1.31-.04-2.56-.56-3.51-1.46-2.88-2.81-4.08-6.92-3.17-10.83.31-3.93,1.73-7.69,4.12-10.83,4.97-5.29,2.95-8.2-2.06-11.72-6.93-6.33-14.27-12.21-21.98-17.58-8.2,7.03-16.4,14.06-24.89,20.81-2.63,2.06-2.06,3.8,0,6.14,3.93,4.55,6.02,10.4,5.86,16.41.13,4.84-3.41,9-8.2,9.66.8-6.94-1.21-13.9-5.57-19.35-2.34-2.63-4.12-2.95-6.75-.6-4.81,4.25-9.89,8.16-15.23,11.72-10.81,7.52-25.44,6.28-34.84-2.95.85-7.94,5.42-14.99,12.32-19,4.69,10.83,8.2,12,18.18,5.86,1.46-.89,3.17-2.06,4.69-2.95,8.2-6.14,8.2-5.86,3.51-14.95-3.74-5.48-4.19-12.56-1.17-18.46,1.17-1.77,2.63-3.52,4.97-2.63s.6,2.63.89,4.12c.44,2.47,1.02,4.91,1.74,7.32,4.12,10.26,7.31,10.83,15.23,3.52,4.69-4.4,9.5-8.8,14.35-12.89,2.63-2.34,3.17-3.8,0-6.14-7.92-5.86-15.52-12.32-23.15-18.46-1.46-7.63,3.51-11.43,8.49-15.23l-.16-.03Z"/>
      <path id="Path_223156" data-name="Path 223156" class="cls-47" d="M3174.39,491.78c-1.31-7.76-1.31-15.68,0-23.44,2.06-3.8,4.4-7.63,6.75-11.15,24.89-36.33,48.36-73.86,73.25-110.47,1.77-3.18,4.16-5.97,7.03-8.2,3.15-2,6.82-3.02,10.55-2.95,1.77-.6,3.8-1.17,4.97.6,1.46,2.34,0,4.4-1.17,6.33-5.57,8.49-11.15,16.69-16.4,25.34-14.35,23.15-30.47,45.42-45.41,68.28-1.46,2.34-2.63,5.57-6.75,4.4v-1.17c-.57-2.95,1.17-5.57,1.46-10.55-15.15,17.94-26.07,39.08-31.93,61.82-.6.89-.89,2.34-2.34,1.46v-.32Z"/>
      <path id="Path_223157" data-name="Path 223157" class="cls-17" d="M3207.49,439.05c3.17,1.17,3.51-1.77,4.69-3.52,11.15-16.41,21.7-33.13,33.1-49.22,10.55-14.66,19-30.75,29.61-45.42,2.63-3.8,2.63-5.86-2.63-5.86,6.97-2.18,14.49-1.66,21.09,1.46,2.63,4.69-.89,5.57-4.12,6.75-4.97,1.46-9.97,2.95-14.95,4.69,1.94,3.89,1.23,8.58-1.77,11.72-20.81,30.18-40.16,61.25-60.65,91.43-1.77,2.63-2.95,6.75-7.31,6.14-.3-6.17.59-12.35,2.63-18.18h.32Z"/>
      <path id="Path_223158" data-name="Path 223158" class="cls-15" d="M3177.02,451.69c2.26-11.92,6.84-23.27,13.49-33.41,1.17-2.06,3.51-3.8,3.17-6.75,0-.29-.29-.89,0-1.17,17.39-20.5,32.98-42.47,46.59-65.65,2.34-3.17,4.12-6.33,6.33-9.66,1.17-1.77,2.34-4.12,5.29-3.52,1.65,2.47,2.73,5.27,3.17,8.2-5.29,9.66-12,18.18-17.58,27.24-16.69,26.95-34.59,52.73-52.45,78.83-2.06,2.95-3.51,6.75-8.2,6.14l.2-.25Z"/>
      <path id="Path_223159" data-name="Path 223159" class="cls-20" d="M3177.02,451.66c2.48-1.21,4.52-3.16,5.86-5.57,18.18-26.95,36.33-53.84,53.84-81.17,4.4-7.03,9.09-13.78,13.49-20.81,1.04-2.11,2.8-3.78,4.97-4.69,2.34,1.17,4.12-1.17,6.33-1.17-14.06,21.09-28.72,42.19-41.9,63.88-12.89,20.81-27.24,40.73-40.73,61.25-1,2.11-2.64,3.85-4.69,4.97-.09-5.69.86-11.35,2.82-16.69Z"/>
      <path id="Path_223160" data-name="Path 223160" class="cls-63" d="M3205.17,476.55c0-3.17-.57-6.14-.89-9.5,3.46-6.23,7.38-12.21,11.72-17.86,20.52-30.75,41.17-61.82,61.25-92.89,1.38-2.91,3.58-5.35,6.33-7.03h8.2c.46.47.68,1.12.6,1.77-17.01,25.78-34.3,51.28-50.67,77.37-2.34,4.12-5.57,4.12-9.5,3.8-4.12,9.09-8.2,18.18-12.67,27.24-2.48,4.71-5.32,9.22-8.49,13.49-1.46,2.06-2.95,4.69-6.33,2.95l.44.66Z"/>
      <path id="Path_223161" data-name="Path 223161" class="cls-82" d="M3247.65,572.23h-18.18c-.29-.29-.57-.89-1.17-1.17,7.27-4.3,10.66-13.01,8.2-21.09v-.89c4.44-7.8,9.34-15.33,14.66-22.55,1.17-1.77,2.06-3.8,4.97-2.95,3.31,8.42,3.72,17.7,1.17,26.38-1.17,8.49-1.17,15.84,7.92,20.81-.12.57-.43,1.09-.89,1.46h-16.69Z"/>
      <path id="Path_223162" data-name="Path 223162" class="cls-73" d="M3232.7,432.91c5.86-.29,7.92-4.97,10.55-9.09l45.7-69.45c.97-1.24,2.03-2.42,3.17-3.52,2.23-1.03,4.8-1.03,7.03,0h1.17c-.89,5.86-5.57,9.66-8.49,14.35l-.89,1.77c-10.55,16.69-21.7,32.81-32.53,49.53-5.03,6.83-9.63,13.97-13.78,21.38-1.01,1.77-2.18,3.44-3.51,4.97-.89,1.17-2.06,2.95-3.8,2.34s-.6-2.95-1.77-4.12c-1.17-2.63,1.17-6.33-2.95-7.92l.09-.25Z"/>
      <path id="Path_223163" data-name="Path 223163" class="cls-43" d="M3251.73,331.21c-7.54,9.57-14.39,19.65-20.52,30.18-8.2,11.43-15.52,23.15-23.15,35.15-3.34,6.26-8.3,11.52-14.35,15.23-2.06-.6-2.63.89-3.8,1.77-2.34-2.95-.57-5.29.89-7.32,13.78-20.52,26.95-41.62,40.73-62.11,1.7-2.05,3.88-3.65,6.33-4.69,1.88-7.48,5.16-14.54,9.66-20.81,1.58,4.09,2.75,8.17,4.21,12.57Z"/>
      <path id="Path_223164" data-name="Path 223164" class="cls-50" d="M3283.68,349.39c-20.81,31.67-41.61,63.34-62.42,94.63-4.53,8.49-10.26,16.29-17.01,23.15-2.06-3.52,0-6.75.6-9.98,1.99-1.2,3.61-2.92,4.69-4.97,17.01-25.34,34.27-50.67,50.1-76.77,3.51-5.57,7.92-10.83,11.43-16.41,1.77-2.95,6.75-5.86,1.17-9.66.6-.6,1.46-.89,2.06-1.46,2.63,2.95,6.15,0,9.38,1.46Z"/>
      <path id="Path_223165" data-name="Path 223165" class="cls-40" d="M3312.38,437.88c7.24,17.93,9.18,37.56,5.57,56.56-4.06-14.57-9.56-28.7-16.4-42.19-.45-6.92,4.33-13.08,11.15-14.35l-.32-.03Z"/>
      <path id="Path_223166" data-name="Path 223166" class="cls-86" d="M3235.32,440.79c.6,1.17,1.46,2.06,2.34,3.52,17.86-26.06,33.98-53.05,52.73-78.23.6-.6.89-.6,1.46,0s.89,1.17,1.46,1.77c1.74,2.95-.29,4.97-1.74,6.75-17.01,24.04-32.81,49.22-48.93,73.86-1.46,2.06-2.34,5.29-5.86,4.97-.6-4.12-.89-8.2-1.46-12.32v-.32Z"/>
      <path id="Path_223167" data-name="Path 223167" class="cls-27" d="M3236.81,453.11c6.36-7.8,12.05-16.13,17.01-24.89,12-19.35,24.89-38,37.81-57.01.7-1.11,1.28-2.29,1.74-3.52,1.52-.15,3.03.38,4.12,1.46.89,3.52-1.46,5.57-2.95,8.2-11.43,17.58-23.75,34.58-35.15,52.16-5.29,7.92-9.5,16.41-15.23,23.72-1.77,2.34-2.95,6.14-7.31,4.4v-4.4l-.03-.13Z"/>
      <path id="Path_223168" data-name="Path 223168" class="cls-26" d="M3236.78,457.2c7.31-3.17,9.94-10.55,13.49-16.69,12-20.52,26.67-39.27,39.56-59.48,2.63-4.12,5.26-8.2,7.63-12.32.96.44,1.94.83,2.95,1.17,2.06,2.95-.29,4.69-1.77,6.75-11.15,17.01-22.58,33.7-33.7,50.39-1.23,2.47-3.47,4.29-6.14,4.97v1.46c-6.26,11.92-13.52,23.29-21.7,33.98-3.17-2.34-1.46-4.69-2.63-6.33,0-1.77,3.51-1.77,2.63-4.12l-.32.22Z"/>
      <path id="Path_223169" data-name="Path 223169" class="cls-25" d="M3265.22,440.83c-.89-1.46-1.46-2.95-2.34-4.4,10.26-14.06,19-29.01,29.3-42.79,1.66-2.44,2.68-5.26,2.95-8.2,3.51-4.12,4.97-9.66,10.55-12.32,2.95-.29,4.69,1.77,7.03,2.95.14,5.99-4.08,11.21-9.97,12.32-2.06,0-2.95.29-2.63,1.46,1.74,2.95-.6,4.69-1.77,6.75-8.8,13.18-17.58,26.67-26.38,39.56-1.46,2.31-2.92,5.54-6.72,4.69Z"/>
      <path id="Path_223170" data-name="Path 223170" class="cls-33" d="M3325.27,415.62c8.71,12.28,13.6,26.85,14.06,41.9-6.25-10.74-13.4-20.94-21.38-30.47-1.61-4.44.69-9.34,5.13-10.95.71-.26,1.44-.42,2.19-.48Z"/>
      <path id="Path_223171" data-name="Path 223171" class="cls-45" d="M3235.04,536.63c-1.72-2.65-1.47-6.11.6-8.49,2.63-2.95.29-6.33,1.17-9.66,4.54-8.89,9.84-17.36,15.84-25.34.68-1.25,2.22-1.76,3.51-1.17,5.29,5.57,2.95,12,1.46,18.18-1.24-.83-1.72-2.42-1.17-3.8-5.99,10.75-13.06,20.86-21.09,30.18l-.32.09Z"/>
      <path id="Path_223172" data-name="Path 223172" class="cls-88" d="M3305.63,373.14c-3.51,3.8-4.97,9.5-9.66,12.32-8.49,16.12-19.35,30.47-29.3,45.7-1.17,1.77-2.63,4.12-5.57,2.95-.82-.42-1.6-.91-2.34-1.46,12.32-15.23,21.98-32.24,33.13-48.36,3.6-4.17,6.47-8.93,8.49-14.06,2.34-.29,3.51,2.06,5.57,2.95l-.31-.03Z"/>
      <path id="Path_223173" data-name="Path 223173" class="cls-60" d="M3265.22,440.79c1-.52,1.89-1.22,2.63-2.06,10.83-16.41,22.55-32.24,32.24-49.22,1.87.56,3.45,1.82,4.4,3.52,1.17,2.63-1.17,4.12-2.34,5.86-5.86,8.8-11.72,17.29-17.29,26.38-.58,1.23-1.26,2.41-2.06,3.52-3.17,4.12-6.14,8.8-9.09,12.89-1.46,2.06-3.17,4.69-6.33,2.95-.6-1.34-1.32-2.62-2.16-3.83Z"/>
      <path id="Path_223174" data-name="Path 223174" class="cls-37" d="M3237.1,490.64c.05-2.35-.04-4.7-.29-7.03,4.14-9.11,9.46-17.62,15.84-25.34.72-1.21,2.22-1.71,3.51-1.17.57,2.95,5.29,4.4,2.63,8.2-4.76,8.52-10.05,16.74-15.84,24.61-1.17,1.77-3.51,6.75-5.57,0l-.28.73Z"/>
      <path id="Path_223175" data-name="Path 223175" class="cls-61" d="M3255.85,457.23c-5.47,6.09-10.37,12.66-14.66,19.64-1.77,2.06-3.17,4.4-4.69,6.33-1.25-3.06-1.65-6.39-1.17-9.66,4.93-9.62,10.62-18.83,17.01-27.55,1.17-1.77,2.06-3.8,4.69-2.95.26,4.64-.24,9.29-1.46,13.78l.29.41Z"/>
      <path id="Path_223176" data-name="Path 223176" class="cls-41" d="M3301.55,417.07c3.27,3.6,5.59,7.95,6.75,12.67-2.47,5.96-6.29,11.27-11.15,15.52-2.63-3.8-5.29-7.63-8.2-11.43,4.98-5.16,7.92-11.5,12.61-16.75Z"/>
      <path id="Path_223177" data-name="Path 223177" class="cls-51" d="M3237.23,490.61c1.77,2.63,2.63,1.77,4.12-.57,4.12-6.33,8.77-12.89,12.89-19.35,1-2.11,2.64-3.85,4.69-4.97.5,3.27.09,6.61-1.17,9.66-4.69,9.66-11.43,17.86-17.01,26.95-1.17,1.77-2.34,4.12-5.29,3.52-2.07-5.04-1.4-10.8,1.77-15.23Z"/>
      <path id="Path_223178" data-name="Path 223178" class="cls-19" d="M3286.63,443.14c1.65,5,2.45,10.25,2.34,15.52-5.57,4.12-7.31,11.15-12.32,15.52-1.17-4.69-2.34-9.5-3.8-14.35,4.12-5.86,6.33-13.49,13.78-17.01v.32Z"/>
      <path id="Path_223179" data-name="Path 223179" class="cls-36" d="M3235.04,536.63c6.14-11.43,14.06-21.69,21.98-33.41,0,2.45.21,4.9.6,7.32v2.63c-2.74,6.05-6.19,11.76-10.26,17.01-5.03,5.83-8.64,12.74-10.55,20.21h-.29c-1.29-4.37-1.69-8.96-1.17-13.49l-.32-.25Z"/>
      <path id="Path_223180" data-name="Path 223180" class="cls-80" d="M3288.09,478.32c-.66,11.49-4.08,22.64-9.97,32.53v-26.06c1.68-3.2,3.64-6.24,5.86-9.09.89-1.17,2.06-2.95,3.8-1.77s.89,2.63,0,4.12l.31.29Z"/>
      <path id="Path_223181" data-name="Path 223181" class="cls-9" d="M3261.42,434.08c4.12-1.77,5.86-5.57,8.2-9.09l23.72-36.04c.89-1.46,1.46-2.95,3.17-3.52.78,2.59.35,5.4-1.17,7.63-9.5,13.18-18.18,26.67-27.24,40.16-1.17,1.77-2.06,3.52-4.69,3.52l-1.74-2.63-.26-.03Z"/>
      <path id="Path_223182" data-name="Path 223182" class="cls-89" d="M3236.78,549.8c-.95-5.67.9-11.46,4.97-15.52,5.86-6.75,9.09-15.23,15.52-21.69.5,3.76.1,7.58-1.17,11.15-5.27,6-9.98,12.48-14.06,19.35-1.77,2.34-2.63,5.29-5.57,7.03l.32-.32Z"/>
      <path id="Path_223183" data-name="Path 223183" class="cls-55" d="M3257.3,443.45c-5.76,6.72-10.87,13.99-15.23,21.69-1.48,3.37-3.8,6.29-6.75,8.49-.57-4.12-.89-8.2-1.46-12.32l1.77,4.4c7.63-10.83,15.23-21.38,22.55-32.24.33,3.27-.07,6.57-1.17,9.66l.28.32Z"/>
      <path id="Path_223184" data-name="Path 223184" class="cls-84" d="M3283.68,425.59c6.31-11.2,13.36-21.97,21.09-32.24,2.06.29,2.34,2.63,3.8,3.52.89,6.33-4.12,9.66-7.31,13.78-1.17.6-2.95.6-3.8,2.06-2.46,4.28-5.2,8.4-8.2,12.32-1.17,1.46-3.17,4.97-5.29.57h-.29Z"/>
      <path id="Path_223185" data-name="Path 223185" class="cls-36" d="M3255.85,491.82c-5.29,3.52-6.33,9.66-10.55,14.35-3.17,3.8-5.86,7.92-9.09,12-.98-2.62-1.38-5.42-1.17-8.2,6.14-7.03,10.26-15.52,15.84-22.87,1.46-2.06,2.34-5.29,5.86-4.97.33,3.27-.07,6.57-1.17,9.66l.28.03Z"/>
      <path id="Path_223186" data-name="Path 223186" class="cls-66" d="M3326.76,401.55l-12.32-7.92c3.17-3.17,5.29-7.32,8.2-10.83,3.94,2.45,7.34,5.68,9.97,9.5-.7,3.72-2.67,7.08-5.57,9.5l-.28-.25Z"/>
      <path id="Path_223187" data-name="Path 223187" class="cls-57" d="M3257.43,482.44c-6.1,7.9-11.78,16.11-17.01,24.61-1.17,1.77-1.17,4.97-4.69,3.17v-4.12c5.99-7.6,11.56-15.52,16.69-23.72,1.74-2.34,2.34-5.57,5.57-6.75.1,2.36-.09,4.72-.57,7.03v-.22Z"/>
      <path id="Path_223188" data-name="Path 223188" class="cls-32" d="M3336.13,397.72c5.34,6.43,9.24,13.92,11.43,21.98-5.57-4.97-11.15-9.98-17.01-14.95-1.46-4.97,1.17-6.33,5.57-7.03"/>
      <path id="Path_223189" data-name="Path 223189" class="cls-8" d="M3312.7,400.35c3.07,1.89,5.51,4.65,7.03,7.92-.56,5.2-3.2,9.95-7.31,13.18l-8.2-7.32c2.16-5,4.91-9.72,8.2-14.06l.28.29Z"/>
      <path id="Path_223190" data-name="Path 223190" class="cls-56" d="M3297.15,445.2c2.76-5.8,6.54-11.05,11.15-15.52,2.06,2.33,3.47,5.16,4.12,8.2-6.33,2.63-8.2,8.8-11.15,14.35-1.92-1.98-3.33-4.39-4.12-7.03"/>
      <path id="Path_223191" data-name="Path 223191" class="cls-23" d="M3286.57,443.17c-5.29,4.97-7.63,12.67-13.78,17.01-.6-1.77-1.17-3.52-1.77-5.57,2.6-6.09,6.16-11.73,10.55-16.69.53-1.26,1.98-1.84,3.24-1.31.09.04.19.09.27.14,1.77,1.77,1.17,4.4,1.46,6.75l.03-.32Z"/>
      <path id="Path_223192" data-name="Path 223192" class="cls-22" d="M3301.55,417.07c-2.95,6.33-5.29,13.49-12.67,16.69-.95-.91-1.83-1.9-2.63-2.95,2.18-6.84,6.36-12.86,12-17.29.72-.1,1.43.25,1.77.89.55.95,1.03,1.93,1.46,2.95l.06-.28Z"/>
      <path id="Path_223193" data-name="Path 223193" class="cls-59" d="M3276.66,474.21c1.94-5.58,4.92-10.75,8.77-15.23.89-1.46,2.34-1.17,3.51-.6v5.57c-3.17,7.03-8.2,12.67-11.15,19.64-1.22-3.07-1.71-6.37-1.46-9.66l.32.29Z"/>
      <path id="Path_223194" data-name="Path 223194" class="cls-5" d="M3312.7,400.38c-1.19,5.43-4.06,10.35-8.2,14.06-.81-.59-1.69-1.08-2.63-1.46-1.17-.29-2.06-.89-1.77-2.34,3.18-4.31,5.93-8.93,8.2-13.78,1.87.59,3.38,1.99,4.12,3.8l.29-.28Z"/>
      <path id="Path_223195" data-name="Path 223195" class="cls-68" d="M3312.7,421.47c.89-5.29,4.97-8.8,7.31-13.18,2.42,1.96,4.33,4.47,5.57,7.32-4.08,2.47-6.79,6.69-7.31,11.43-1.74-1.77-3.51-3.8-5.57-5.57"/>
      <path id="Path_223196" data-name="Path 223196" class="cls-18" d="M3302.72,388.38c4.39-3.11,7.83-7.37,9.94-12.32,2.17.74,4.09,2.05,5.57,3.8,0,6.75-3.51,11.15-9.66,11.15-2.16-.32-4.19-1.23-5.86-2.63Z"/>
      <path id="Path_223197" data-name="Path 223197" class="cls-87" d="M3292.17,366.11h-1.46v-1.46c2.03-1.47,4.55-2.1,7.03-1.77,7.63,1.77,11.15-3.17,13.78-9.09,3.12.39,6.02,1.85,8.2,4.12.16,3.67-2.11,7-5.57,8.2h-21.98Z"/>
      <path id="Path_223198" data-name="Path 223198" class="cls-86" d="M3298.92,364.34h-8.2c3.17-4.69,6.33-9.09,9.66-13.78,2.34.6,4.69.89,6.75,1.46-.98,4.95-3.94,9.29-8.2,12v.32Z"/>
      <path id="Path_223199" data-name="Path 223199" class="cls-10" d="M3278.11,483.9c0-8.8,6.14-13.78,11.15-19.64.63,4.72.23,9.51-1.17,14.06,0-1.17,0-2.63-.57-3.17-1.17-.57-1.77.89-2.34,1.77-1.4,3.42-3.87,6.29-7.03,8.2l-.03-1.24Z"/>
      <path id="Path_223200" data-name="Path 223200" class="cls-3" d="M3285.15,436.42c-6.14,4.97-7.92,13.18-14.06,17.86-.6-1.17-1.17-2.63-1.77-4.12,2.39-6.14,5.86-11.79,10.26-16.69.77-1.51,2.57-2.15,4.12-1.46,1.46.89,1.46,2.63,1.46,4.12v.29Z"/>
      <path id="Path_223201" data-name="Path 223201" class="cls-84" d="M3283.68,432.34c-6.33,4.69-8.49,12.89-14.06,18.18-1.31-1.59-2.13-3.53-2.34-5.57,4.12,0,4.97-4.12,7.03-6.75,2.63-3.17,4.12-7.63,7.92-9.98,1.46.29,3.17.29,2.95,2.63-.49.52-.89,1.12-1.17,1.77l-.32-.29Z"/>
      <path id="Path_223202" data-name="Path 223202" class="cls-75" d="M3298.92,364.47c2.63-4.12,5.57-8.2,8.2-12,1.47-.1,2.92.32,4.12,1.17,0,8.2-3.17,11.15-12.67,10.83h.35Z"/>
      <path id="Path_223203" data-name="Path 223203" class="cls-35" d="M3308.58,391.01c5.57-1.77,7.63-6.33,9.66-11.15l4.12,3.17c-.32,4.93-3.55,9.18-8.2,10.83-2.09-.26-4.04-1.18-5.57-2.63v-.22Z"/>
      <path id="Path_223204" data-name="Path 223204" class="cls-3" d="M3285.05,430.85c-.89-.89-2.06-1.77-2.95-2.63-.13-1.1.46-2.16,1.46-2.63.48.87,1.58,1.19,2.45.72.3-.17.55-.41.72-.72,3.61-4.79,6.79-9.88,9.5-15.23,2.63,0,3.17,2.06,2.95,4.12-6.33,3.8-7.03,12.32-12.67,16.69h-1.46v-.32Z"/>
      <path id="Path_223205" data-name="Path 223205" class="cls-76" d="M3314.16,366.11c1.77-2.63,3.8-5.57,5.57-8.2,2.63-.89,3.51,2.06,5.57,2.95,1.17,4.12,0,6.14-4.4,6.75-2.35.26-4.72-.25-6.75-1.46"/>
      <path id="Path_223206" data-name="Path 223206" class="cls-6" d="M3320.9,367.57c2.15-1.72,3.69-4.09,4.4-6.75,3.51.6,4.97,3.17,7.03,5.57,1.46,2.95,0,4.12-2.95,4.12-3.01-.11-5.94-1.02-8.49-2.63v-.32Z"/>
      <path id="Path_223207" data-name="Path 223207" class="cls-4" d="M3336.13,397.75c-2.63,1.77-5.29,3.52-5.57,7.03l-4.12-3.17c.77-3.69,2.73-7.03,5.57-9.5,2.01,1.22,3.39,3.26,3.8,5.57l.32.06Z"/>
      <path id="Path_223208" data-name="Path 223208" class="cls-30" d="M3289.26,343.53c2.34-1.77,4.97-3.17,4.12-6.75,4.75.7,9.26,2.51,13.18,5.29-6.75.6-12,.89-17.29,1.46"/>
      <path id="Path_223209" data-name="Path 223209" class="cls-67" d="M3329.39,370.2c1.75-.61,2.93-2.26,2.95-4.12,3.82,2.19,6.81,5.59,8.49,9.66-3.8-1.77-7.63-3.8-11.43-5.57"/>
      <path id="Path_223210" data-name="Path 223210" class="cls-39" d="M3299.11,414.13c-.89-1.46-2.06-2.95-2.95-4.12,1.46-2.06,2.63,0,4.12.29.52.83,1.11,1.62,1.77,2.34-.6.6-.89,1.17-1.46,1.46h-1.49v.03Z"/>
      <path id="Path_223211" data-name="Path 223211" class="cls-24" d="M3404.1,549.8v-2.34c2.06.18,4.01,1,5.57,2.34h-5.57Z"/>
      <path id="Path_223212" data-name="Path 223212" class="cls-86" d="M3299.21,350.56h-7.03v-1.17c2.41-.36,4.87.05,7.03,1.17"/>
      <path id="Path_223213" data-name="Path 223213" class="cls-83" d="M3237.92,339.7c-8.18,9.55-15.44,19.85-21.7,30.75-8.2,12-15.84,24.04-23.72,36.33-1.76,1.91-2.7,4.43-2.63,7.03-14.51,12.18-26.46,27.12-35.15,43.96-.95-6.71.16-13.56,3.17-19.64,7.92-14.06,17.86-26.67,26.06-40.73,1.74-3.17,5.86-4.12,7.03-7.63,2.15-6.54,5.54-12.6,9.97-17.86,4.75-8.74,10.77-16.74,17.86-23.72-.57,0-.89,0-1.17-.29-.6-7.63,2.95-11.15,9.97-10.83,3.8,0,6.75,3.17,10.83,2.95l-.53-.32Z"/>
      <path id="Path_223214" data-name="Path 223214" class="cls-16" d="M3136.58,558.61c-7.92-2.06-15.52-3.8-23.44-5.86-4.69-2.63-4.69-3.52,0-9.5,9.68-1.13,19.49-.64,29.01,1.46,1.77.6,4.12.89,3.17,3.52-1.77,4.4-2.63,9.98-9.09,10.26l.35.13Z"/>
      <path id="Path_223215" data-name="Path 223215" class="cls-74" d="M3218.61,347.93c2.06.29,3.51,1.77.89,2.34-3.51.89-4.69,3.52-6.14,5.86-7.63,11.15-14.95,22.17-22.17,33.41h-3.8c-1.27-1.15-1.4-3.1-.29-4.4,3.66-6.79,8.41-12.93,14.06-18.18,0,0,.57-.29.89,0,.6-4.12-3.17-.6-3.8-2.34.84-6.33,4.51-11.93,9.97-15.23,3.51-1.17,7.6,1.46,11.15-1.46h-.76Z"/>
      <path id="Path_223216" data-name="Path 223216" class="cls-90" d="M3169.99,383.37c4.76-4.65,10.45-8.24,16.69-10.55,1.17,3.8-1.77,5.86-3.17,8.49-3.8,5.57-8.2,10.83-11.72,16.69-4.69,3.52-9.09,7.32-13.78,10.83-4.69-1.77-1.46-4.4-.29-6.14,4.12-6.33,8.2-12.89,12.67-19.35l-.41.03Z"/>
      <path id="Path_223217" data-name="Path 223217" class="cls-34" d="M3205.14,476.55c4.12-.29,4.97-4.12,7.03-6.75,2.63-3.17,3.8-7.63,7.92-9.98-1.46,7.92-2.95,15.84-4.4,23.44-2.06,3.17-2.34,8.2-7.92,8.2-1.89-4.85-2.78-10.03-2.63-15.23v.32Z"/>
      <path id="Path_223218" data-name="Path 223218" class="cls-81" d="M3201.94,571.21c3.17,1.54,6.04,3.62,8.49,6.14,0,6.75-4.69,10.83-8.49,15.52l-11.43-7.92c3.8-4.66,5.57-10.8,11.43-13.75Z"/>
      <path id="Path_223219" data-name="Path 223219" class="cls-38" d="M3169.99,383.37c-.89,7.92-7.03,12.89-10.55,19.35-.89,1.77-4.69,3.17-1.77,6.14-3.58,4.71-7.94,8.77-12.89,12,4.31-14.82,12.98-28,24.89-37.81l.32.32Z"/>
      <path id="Path_223220" data-name="Path 223220" class="cls-54" d="M3183.73,397.44c.09,1.59-.12,3.18-.6,4.69-7.6,11.43-15.23,22.55-22.87,33.98-.74.84-1.63,1.54-2.63,2.06,4.28-15.95,13.4-30.18,26.1-40.73Z"/>
      <path id="Path_223221" data-name="Path 223221" class="cls-65" d="M3136.58,558.61c4.4-1.77,5.57-6.33,7.92-9.98,1.46-2.06-1.17-2.63-2.06-3.8,5.27.51,10.42,1.9,15.23,4.12-.09,6.14-3.92,11.6-9.66,13.78-3.9-.8-7.66-2.19-11.15-4.12h-.28Z"/>
      <path id="Path_223222" data-name="Path 223222" class="cls-46" d="M3198.11,364.34c1.46.6,3.8-.89,4.69,1.46l-1.17,1.17c-7.39-1.75-15.05-2.06-22.55-.89-3.8,1.17-3.8-.89-2.95-3.52,2.59-8.07,10.6-13.13,19-12,1.77,6.33-3.17,9.5-6.14,12.67,3.22-.36,6.47.05,9.5,1.17l-.38-.06Z"/>
      <path id="Path_223223" data-name="Path 223223" class="cls-31" d="M3171.73,398.01c0-6.33,5.86-9.98,8.49-14.95,2.06-3.52,4.4-6.75,6.75-10.26,2.87-2.08,6.17-3.49,9.66-4.12-3.64,8.66-8.8,16.59-15.23,23.44-2.63,2.95-7.03,2.63-9.66,5.57v.32Z"/>
      <path id="Path_223224" data-name="Path 223224" class="cls-70" d="M3148.01,562.73c3.99-4,7.26-8.66,9.66-13.78,3.5.38,6.84,1.7,9.66,3.8-.6,6.12-4.4,11.47-9.97,14.06-3.45-.76-6.72-2.16-9.66-4.12l.31.03Z"/>
      <path id="Path_223225" data-name="Path 223225" class="cls-21" d="M3168.5,652.67c-4.71,5.92-8.83,12.29-12.32,19-2.7-2.26-4.3-5.57-4.4-9.09,2.06-8.2,7.03-13.78,12.67-14.06,1.99.47,3.49,2.1,3.8,4.12l.26.03Z"/>
      <path id="Path_223226" data-name="Path 223226" class="cls-78" d="M3198.11,364.34h-10.26c1.46-5.57,6.33-8.49,7.31-13.78,4.09-1.28,8.41-1.68,12.67-1.17-3.17,4.97-6.33,9.98-9.5,14.95h-.22Z"/>
      <path id="Path_223227" data-name="Path 223227" class="cls-42" d="M3189.62,563.87c2.79.17,5.36,1.56,7.03,3.8-.52,6.51-4.93,12.07-11.15,14.06-2.34-1.46-4.69-2.63-7.03-4.12,3.8-4.4,5.86-10.26,10.83-13.78l.32.03Z"/>
      <path id="Path_223228" data-name="Path 223228" class="cls-69" d="M3113.42,543.37c.29,3.17-4.97,6.14,0,9.5l-23.44-2.63c-.89-.17-1.48-1.03-1.31-1.92.03-.15.07-.29.14-.42,8.01-2.79,16.42-4.27,24.89-4.4l-.29-.13Z"/>
      <path id="Path_223229" data-name="Path 223229" class="cls-72" d="M3182.56,353.48c-1.07,3.23-2.76,6.22-4.97,8.8-.89,1.77-2.06,3.52,1.17,3.8l-15.52,4.4c-2.63-4.97,2.34-6.33,4.12-9.66,4.44-3.59,9.66-6.09,15.23-7.32"/>
      <path id="Path_223230" data-name="Path 223230" class="cls-12" d="M3227.12,336.79c-6.75.29-7.92,6.14-9.97,10.83-4.12-1.17-8.2-2.63-12.32-4.12,2.06-8.49,4.4-9.66,17.01-8.2,1.98-.29,3.99.23,5.57,1.46l-.29.03Z"/>
      <path id="Path_223231" data-name="Path 223231" class="cls-52" d="M3157.67,566.81c3.17-4.69,6.33-9.5,9.94-14.06,2,0,3.95.61,5.57,1.77.82,6.66-3.25,12.96-9.66,14.95-2.09-.26-4.04-1.18-5.57-2.63l-.28-.03Z"/>
      <path id="Path_223232" data-name="Path 223232" class="cls-58" d="M3201.91,592.88c1.17-6.14,6.33-9.98,8.49-15.52,1.77,1.46,3.51,2.63,5.57,4.12-2.34,5.29-7.92,9.09-8.49,15.23-1.77-1.46-3.8-2.63-5.57-4.12v.29Z"/>
      <path id="Path_223233" data-name="Path 223233" class="cls-71" d="M3163.24,569.44c4.73-3.82,8.12-9.06,9.66-14.95,1.77.89,3.8,1.77,5.57,2.63.84,6.67-3.24,12.97-9.66,14.95-2.09-.26-4.04-1.18-5.57-2.63"/>
      <path id="Path_223234" data-name="Path 223234" class="cls-14" d="M3168.82,572.39c4.83-3.73,8.24-9.01,9.66-14.95,1.92.87,3.78,1.85,5.57,2.95.7,6.73-3.49,13.01-9.97,14.95-2.08-.26-3.98-1.31-5.29-2.95"/>
      <path id="Path_223235" data-name="Path 223235" class="cls-79" d="M3185.51,581.76c5.57-3.17,7.31-9.5,11.15-14.06,1.95.7,3.75,1.78,5.29,3.17-4.12,4.4-5.29,11.15-11.43,13.78-1.93-.42-3.68-1.43-5.01-2.88Z"/>
      <path id="Path_223236" data-name="Path 223236" class="cls-77" d="M3174.08,575.01c4.83-3.79,8.33-9.03,9.97-14.95,2.63.29,3.8,2.63,5.57,3.8-3.51,4.69-4.97,11.15-10.83,13.78l-4.4-2.63h-.31Z"/>
      <path id="Path_223237" data-name="Path 223237" class="cls-44" d="M3221.83,335.33c-6.89-1.56-13.94,1.84-17.01,8.2-3.17-.29-6.33-.89-9.66-1.17-.89-2.63,1.46-3.8,2.63-5.29,7.49-3.21,15.84-3.83,23.72-1.77l.32.03Z"/>
      <path id="Path_223238" data-name="Path 223238" class="cls-85" d="M3207.77,491.78c3.8-1.77,4.12-6.33,7.92-8.2-.29,5.57-.89,11.15-1.17,16.69-.89,1.46-1.77,2.95-3.8,1.46l-2.63-9.66-.32-.29Z"/>
      <path id="Path_223239" data-name="Path 223239" class="cls-48" d="M3164.7,648.27c-7.03,2.06-7.92,9.98-12.67,14.06-2.23-4.45-1-9.85,2.95-12.89,2.17-2.99,6.35-3.65,9.33-1.48.14.1.26.2.39.3Z"/>
      <path id="Path_223240" data-name="Path 223240" class="cls-64" d="M3181.42,392.46c5.57-7.63,9.09-16.41,15.23-23.72,1.11-1.04,2.6-1.56,4.12-1.46-5.3,6.92-9.92,14.35-13.78,22.17-1.77.89-3.8,1.77-5.57,2.63v.38Z"/>
      <path id="Path_223241" data-name="Path 223241" class="cls-28" d="M3167.36,360.82c-.57,3.52-4.4,5.57-4.12,9.66-3.24,2.38-7.13,3.71-11.15,3.8,4.35-5.26,9.5-9.81,15.27-13.46Z"/>
      <path id="Path_223242" data-name="Path 223242" class="cls-13" d="M3197.83,337.07c0,2.34-2.06,3.52-2.63,5.29-2.64.52-5.38.31-7.92-.6,3.15-2.45,6.88-4.07,10.83-4.69h-.29Z"/>
      <path id="Path_223243" data-name="Path 223243" class="cls-2" d="M3210.72,501.47c1.31-.36,2.59-.85,3.8-1.46v10.55c-1.95-2.7-3.25-5.81-3.8-9.09"/>
      <path id="Path_223244" data-name="Path 223244" class="cls-53" d="M3174.39,491.78c.84-.38,1.63-.87,2.34-1.46,0,1.77,0,4.12-1.77,4.4-1.17,0-.57-1.77-.57-2.95Z"/>
      <path id="Path_223245" data-name="Path 223245" class="cls-62" d="M3088.53,547.46c.29.89.89,1.46,1.17,2.34h-4.69c.29-2.06,2.06-2.06,3.51-2.34"/>
      <path id="Path_223246" data-name="Path 223246" class="cls-11" d="M422.58,469.84h-17.29c-.71-16.67,10.05-31.66,26.06-36.33,12.8-4.3,26.63-4.51,39.56-.6,16.55,4.25,27.82,19.57,26.95,36.64v65.62h83.52c-28.93-20.2-36-60.02-15.8-88.95,1.77-2.53,3.71-4.93,5.82-7.17,22.35-19.93,56.42-18.77,77.37,2.63,22.41,27.09,18.63,67.21-8.46,89.63-1.52,1.26-3.09,2.44-4.72,3.55,2.63,0,4.4.6,6.33.6h49.82c16.74.74,30.91-12.24,31.64-28.98.01-.31.02-.61.03-.92.59-15.95,6.34-31.28,16.41-43.67,19.97-23.43,55.15-26.23,78.58-6.26,3.39,2.89,6.42,6.17,9.02,9.78,7.65,11.03,12.3,23.85,13.49,37.21.88,5.9,2.35,11.69,4.4,17.29,2.9,8.63,10.83,14.57,19.92,14.95,16.79.82,33.62.62,50.39-.6,10.62-1.14,18.83-9.85,19.35-20.52.59-4.37.88-8.77.89-13.18v-123.52h19.64c0,2.06.29,4.12.29,6.33v118.96c.09,5.8-.4,11.59-1.46,17.29-1.79,18.75-16.95,33.42-35.76,34.58-16.57,1.47-33.24,1.47-49.82,0-12.56-1.38-24.04-7.71-31.92-17.58-10.91,30.26-44.28,45.95-74.54,35.04-14.33-5.17-26.07-15.74-32.69-29.46-11.69,9.9-26.97,14.49-42.19,12.67-14.06-.29-28.12.6-42.19-.29-10.55-.6-21.38-2.95-31.92-4.12-3.16-.3-6.34-.3-9.5,0-10.56,1.95-21.22,3.32-31.92,4.12-53.84.29-107.68,0-161.74,0h-8.49v-19h75.03c0-2.63.29-4.69.29-6.33v-54.51c1.45-9.36-3.12-18.62-11.43-23.15-11.85-4.57-25.21-2.8-35.47,4.69-2.96,4.25-5.46,8.79-7.47,13.56ZM782.14,556.58c11.28.32,21.93-5.23,28.12-14.66,13.19-20.69,12.61-47.29-1.46-67.4-11.35-14.75-32.51-17.5-47.26-6.14-2.4,1.85-4.54,4.01-6.36,6.43-13.55,20.19-14.01,46.46-1.17,67.11,6.04,9.5,16.59,15.16,27.84,14.95l.29-.29ZM643.23,481.87c.36-16.31-9.28-31.18-24.32-37.5-19.11-4.93-38.59,6.57-43.51,25.67-1.14,4.44-1.43,9.06-.82,13.6,1.75,19.26,13.91,36.02,31.67,43.67,1.37.68,2.96.78,4.4.29,18.82-7.64,31.52-25.48,32.59-45.76v.03Z"/>
      <path id="Path_223247" data-name="Path 223247" class="cls-11" d="M1156.9,436.71c-2.06-16.12,12.67-10.55,19.92-16.41,0,3.17.57,4.97.57,7.03v74.24c.01,3.73.31,7.46.89,11.15.09,11.97,9.43,21.82,21.38,22.55,11.59,1.27,23.29,1.08,34.84-.57,12.54-1.77,21.74-12.68,21.38-25.34.58-15.03,5.24-29.61,13.49-42.19,17.23-25.41,51.79-32.03,77.2-14.81,5.83,3.95,10.85,8.98,14.81,14.81,6.83,10.15,11.06,21.82,12.32,33.98.58,5.49,1.76,10.89,3.52,16.12,2.98,10.59,12.44,18.05,23.44,18.46,17.01.89,33.98,0,51.56,0v-80.89h20.81c-.57,6.33-1.17,12.89-1.74,20.52,1.1-.93,2.16-1.91,3.17-2.95,19.4-25.76,50.83-39.53,82.91-36.33,21.56-.25,42.06,9.34,55.68,26.06,19.48,24.89,15.1,60.86-9.79,80.34-8.03,6.29-17.6,10.31-27.71,11.66-5.72.84-11.51,1.23-17.29,1.17h-142.52c-17.57,1.17-34.72-5.73-46.59-18.75-10.6,30.2-43.68,46.1-73.88,35.5-14.52-5.1-26.42-15.76-33.07-29.64-10.75,9.52-24.99,14.11-39.27,12.67h-21.38c-19.06,1.66-36.57-10.56-41.62-29.01-8.39,5.42-17.33,9.94-26.67,13.49-23.58,6.22-47.73-7.84-53.95-31.42-.5-1.9-.88-3.84-1.12-5.79-6.03-28.33,12.04-56.19,40.37-62.22,3.01-.64,6.08-1.02,9.16-1.12,9.09-1.17,18.18-1.46,28.5-2.06l.7-.28ZM1469.84,535.17c.29,0,.89.6,1.17.6,31.67,0,63.59.6,95.23,0,20.87-.6,37.41-17.8,37.21-38.67-.75-23.29-19.55-41.94-42.85-42.5-45.23-4.69-85.71,28.18-90.4,73.41-.26,2.48-.4,4.98-.43,7.48l.06-.32ZM1354.97,510.28c-.63-.05-1.23-.25-1.77-.57.17-11.36-2.88-22.54-8.8-32.24-9.41-15.86-29.88-21.08-45.74-11.68-4.81,2.85-8.83,6.87-11.68,11.68-12.33,18.81-12.55,43.08-.57,62.11,8.73,16.1,28.85,22.08,44.95,13.35,5.65-3.06,10.29-7.7,13.35-13.35,4.3-9.47,7.82-19.26,10.55-29.3h-.29ZM1157.19,456.95c-6.75,0-12.89-.29-19,0-24.89,1.77-36.64,12.32-38.67,34.3-1.64,13.54,6.44,26.37,19.35,30.75,14.12,4.2,29.06-3.4,33.98-17.29,4.81-15.53,6.4-31.88,4.69-48.04l-.35.29Z"/>
      <path id="Path_223248" data-name="Path 223248" class="cls-11" d="M1658.28,376.91h19.64v132.73c-.51,13.48,10.01,24.81,23.48,25.32.38.01.75.02,1.13.02,24.32.6,48.36,0,72.68,0,2.34-.18,4.56-1.1,6.33-2.63-1.57-.7-3.04-1.58-4.4-2.63-14.67-12.3-27.06-27.08-36.61-43.67-1.89-3.49-2.51-7.53-1.77-11.43,2.7-22.92,19.25-41.82,41.62-47.51,23.21-7.89,48.87-2.38,66.79,14.35,9.75,10.01,15.85,23.02,17.29,36.93.01,2.68-.7,5.32-2.06,7.63-10.05,16.93-22.83,32.08-37.81,44.85-.89.89-2.06,1.77-3.8,3.52,3.19.59,6.42.99,9.66,1.17h78.23c13.57,1.58,25.85-8.14,27.43-21.7.17-1.45.21-2.91.12-4.36.57-41.17.28-82.06.28-123.07v-9.5h20.21v125.42c0,6.49-.58,12.97-1.74,19.35-3.55,20.23-21.68,34.59-42.18,33.41-25.34,0-51.28.57-76.77,0-10.38-1.34-20.65-3.39-30.75-6.14-2.8-.59-5.69-.59-8.49,0-11.29,2.76-22.75,4.81-34.3,6.14-19.35,1.17-38.67.29-58.02.29-23.19,2.9-44.34-13.54-47.24-36.72-.32-2.53-.4-5.07-.26-7.61-1.17-43.96,0-88.2,0-132.16s0-.89.57-1.77l.76-.19ZM1801.88,442.25c-19.3-.22-36.19,12.92-40.73,31.67-.55,2.35-.35,4.81.57,7.03,7.98,16.7,19.94,31.19,34.84,42.19,2.71,2.83,7.2,2.94,10.03.23.08-.07.15-.15.23-.23,15.08-11.1,27.25-25.68,35.47-42.5,1.08-2.5,1.28-5.29.57-7.92-4.79-18.51-21.61-31.34-40.73-31.07l-.25.6Z"/>
      <path id="Path_223249" data-name="Path 223249" class="cls-11" d="M353.73,430.85h19.35c0,2.06.6,3.8.6,5.57v70.02c.05,6.39-.64,12.77-2.06,19-6,23.51-29.92,37.7-53.43,31.69-6.69-1.71-12.89-4.97-18.08-9.52-4.22-3.78-8.22-7.79-12-12-8.3,14.71-24.32,23.34-41.17,22.17-16.95,0-32.41-9.66-39.84-24.89-9.69,16.67-28.8,25.46-47.76,21.98-10.83-.29-21.69,0-32.53,0-20.53,2.48-39.75-10.5-45.13-30.47-1.17,1.17-2.63,1.77-3.52,2.95-13.56,13.99-34.49,17.86-52.16,9.66-17.86-9.43-28.1-28.86-25.78-48.93,1.7-26.78,23.29-47.99,50.1-49.22,9.5-1.17,18.75-1.46,28.12-2.06,1.46-11.43,2.06-11.72,21.09-15.23v80.57c-.11,4.64.38,9.27,1.46,13.78,1.13,9.9,9.08,17.62,19,18.46,17.16,1.32,34.4,1.32,51.56,0,11.57-.24,20.75-9.81,20.52-21.38,1.17-10.83.89-21.69,1.17-32.53v-41.17h19.92v7.92c.29,20.81,0,41.62,1.17,62.11.27,16.58,13.94,29.8,30.52,29.52,3.49-.06,6.95-.72,10.21-1.97,9.25-2.48,16.01-10.4,17.01-19.92,1.17-12,1.17-24.04,1.17-35.76v-41.9h19.64c0,2.34.29,4.97.29,7.63.29,20.81-.29,41.62,1.17,62.11.17,16.62,13.77,29.95,30.39,29.78,3.53-.04,7.03-.69,10.34-1.94,12.38-4.08,20.12-16.37,18.46-29.3v-76.77l.19.03ZM80.35,456.91c-8.8,0-14.95-.29-21.09,0-24.61,2.06-35.76,12-38.38,33.7-2.01,14.53,7.18,28.25,21.38,31.92,14.58,3.58,29.29-5.34,32.87-19.92.1-.39.18-.78.26-1.18,2.6-14.72,4.27-29.6,4.97-44.53"/>
      <path id="Path_223250" data-name="Path 223250" class="cls-11" d="M2448.85,535.17c-8.53,13.39-23.72,21.04-39.56,19.92h-38.01c-22.86,1.99-43.01-14.93-45-37.79-.14-1.66-.19-3.33-.13-4.99-.89-44.53-.28-89.09-.28-133.62-.01-.64.19-1.26.57-1.77h19c0,2.63.28,5.29.28,7.92v115.44c-.14,3.93.15,7.86.89,11.72-.03,11.63,8.93,21.31,20.52,22.17,15.8,1.47,31.71,1.47,47.51,0,12.18-1.04,21.36-11.51,20.81-23.72.09-12.66,1.08-25.29,2.95-37.81,4.56-31.15,33.51-52.71,64.66-48.15,22.76,3.33,41.29,20.01,46.98,42.3,9.22,25.42,3.33,53.87-15.23,73.54-21.68,22.2-57.25,22.63-79.45.95-.9-.88-1.77-1.79-2.61-2.72-1.17-1.17-2.06-2.34-3.8-4.12l-.09.76ZM2456.76,489.76c-.32,12.77,3.48,25.31,10.83,35.76,11.23,14.93,32.43,17.93,47.36,6.7,3.3-2.48,6.12-5.55,8.31-9.04,12.51-19.59,12.4-44.69-.28-64.16-9.63-15.74-30.2-20.69-45.94-11.06-4.11,2.51-7.62,5.89-10.31,9.89-6.38,9.43-9.85,20.53-9.98,31.92"/>
      <path id="Path_223251" data-name="Path 223251" class="cls-11" d="M2273.04,430.85h19.64c0,2.06.57,4.12.57,6.14v66.51c-.05,6.9-.84,13.78-2.34,20.52-2.68,16.37-16.26,28.75-32.81,29.9-20.68,1.46-41.43,1.46-62.11,0-15.98-1.18-29.37-12.55-33.13-28.12-7.96,5.35-16.45,9.87-25.34,13.49-23.51,6.87-48.13-6.62-54.99-30.13-.54-1.85-.96-3.73-1.25-5.63-6.62-28.41,11.05-56.82,39.46-63.44,3.2-.75,6.47-1.19,9.75-1.33,9.09-1.17,18.18-1.46,28.12-2.06-2.06-16.12,12.67-10.83,21.09-16.69v63.59c-.2,9.87.19,19.75,1.17,29.58.2,11.5,9.32,20.86,20.81,21.38,17.18.97,34.41.77,51.56-.6,10.44-.83,18.55-9.45,18.75-19.92.98-10.81,1.37-21.67,1.17-32.53v-50.99l-.13.32ZM2160.23,456.91c-8.8,0-14.95-.29-21.09,0-24.04,2.06-35.47,11.72-38.38,32.81-2.56,14.69,6.64,28.87,21.09,32.53,14.49,3.71,29.24-5.03,32.95-19.52.19-.72.34-1.45.46-2.18,2.95-14.06,3.17-28.73,4.97-43.96v.32Z"/>
      <path id="Path_223252" data-name="Path 223252" class="cls-11" d="M1388.38,687.83v89.94h-20.21v-138.59c13.17-2.95,15.23-2.06,21.69,8.49,10.55,17.01,20.81,34.3,31.35,51.28,3.17,5.57,6.33,11.15,9.5,16.41,12.89-21.98,25.78-43.96,38.67-66.22,4.49-8.3,13.94-12.6,23.15-10.55v139.19h-21.38v-91.43c-.5.04-1.01-.05-1.46-.29-2.63,4.4-5.29,8.8-7.92,13.49-8.49,14.66-16.69,29.01-25.34,43.67-3.52,6.14-9.09,6.14-12.67,0-10.26-16.69-20.52-33.41-30.47-50.1-1.17-1.77-2.34-3.52-3.8-5.57-.4-.04-.8.06-1.14.28Z"/>
      <path id="Path_223253" data-name="Path 223253" class="cls-11" d="M668.41,777.8h-20.81v-94.06c-1.63,2-3.1,4.11-4.4,6.33-9.98,17.29-19.92,34.84-30.18,52.16-4.4,7.32-9.5,7.32-13.78,0-11.15-18.18-22.17-36.64-34.58-54.51v90.26h-20.52v-138.59c12.89-3.17,14.95-2.34,21.69,8.49,10.26,16.69,20.52,33.41,30.47,50.1,3.52,5.86,6.75,12,10.55,18.75.99-2.71,2.17-5.36,3.52-7.92,13.18-22.55,26.38-44.85,39.56-67.4.97-1.39,2.45-2.34,4.12-2.63,4.4-.29,9.09,0,14.06,0v139.76l.32-.76Z"/>
      <path id="Path_223254" data-name="Path 223254" class="cls-11" d="M1669.97,777.8h-20.21v-141.54c6.54-2.47,13.9.23,17.29,6.33,20.52,29.58,41.9,58.91,63.59,89.09v-93.18h20.52v140.93c-10.83,2.63-11.43,2.34-17.58-6.33-21.09-29.58-41.9-59.19-63.59-89.66v94.35h-.03Z"/>
      <path id="Path_223255" data-name="Path 223255" class="cls-11" d="M258.21,709.23c-1.55,11.76-3.9,23.4-7.03,34.84-10.53,28.91-42.5,43.81-71.41,33.28-15.66-5.7-27.95-18.12-33.48-33.85-7.38-22.53-7.59-46.8-.6-69.45,9.42-29.31,40.82-45.43,70.13-36,17.72,5.7,31.43,19.87,36.54,37.77,2.63,10.26,3.52,21.09,5.57,33.13l.29.28ZM234.49,714.81c.9-14.82-1.92-29.62-8.2-43.07-5.45-10.84-16.91-17.33-29.01-16.41-12.19-.34-23.2,7.24-27.24,18.75-8.95,21.85-8.63,46.39.89,68,4.45,11.95,16.3,19.49,29.01,18.46,13.44.5,25.51-8.19,29.3-21.09,2.44-8.04,4.21-16.27,5.29-24.61"/>
      <path id="Path_223256" data-name="Path 223256" class="cls-11" d="M31.39,717.12v60.36H10.01v-138.91h21.09v57.42h59.19v-57.74h21.09v139.19h-20.52v-60.65H31.39v.32Z"/>
      <path id="Path_223257" data-name="Path 223257" class="cls-11" d="M1179.45,638.29h21.09v57.74h58.59v-57.42h21.38v139.19h-20.81v-60.65h-59.19v60.36h-21.38v-139.19l.32-.03Z"/>
      <path id="Path_223258" data-name="Path 223258" class="cls-11" d="M1541.48,638.61v93.33c-.86,15.19,10.76,28.21,25.95,29.07,3.94.22,7.87-.4,11.55-1.83,8.06-1.24,14.43-7.48,15.84-15.52,1.42-6.54,2.11-13.22,2.06-19.92v-85.51h20.21s.6.57.6.89c0,32.81.89,65.65-.6,98.18,1.02,22.38-16.3,41.35-38.68,42.37-2.06.09-4.12.03-6.16-.19-7.6.16-15.19-.73-22.55-2.63-15.8-2.31-27.81-15.41-28.72-31.35-1.46-35.76-.57-71.51-.57-107.68h20.52l.57.79Z"/>
      <path id="Path_223259" data-name="Path 223259" class="cls-11" d="M837.79,716.87v60.93h-21.09v-139.19h20.81v59.76c.65.28,1.25.68,1.77,1.17,2.16-1.62,4.13-3.49,5.86-5.57,12.89-17.01,26.06-33.98,38.67-51.28,2.08-3.26,5.81-5.08,9.66-4.69,5.86.29,12,0,19.64,0-18.18,23.44-35.47,45.42-51.88,66.51,18.75,23.72,37.81,48.04,57.74,73.54-9.66,0-17.58.29-25.34,0-2.06,0-4.12-2.63-5.57-4.4-14.06-17.58-27.84-35.47-41.9-53.05-1.91-1.92-3.96-3.69-6.14-5.29-.57.57-1.46,1.17-2.06,1.77l-.16-.22Z"/>
      <path id="Path_223260" data-name="Path 223260" class="cls-11" d="M1036.46,778.09c-9.5,0-17.01.29-24.61,0-2.34,0-4.69-2.34-6.33-4.4-14.06-17.58-27.84-35.47-42.19-53.05-1.8-1.79-3.87-3.28-6.14-4.4-.95,2.35-1.65,4.81-2.06,7.32v54.22h-20.81v-139.19h20.81v60.17l1.77.89c2.09-1.7,4.05-3.57,5.86-5.57,12.67-16.69,25.34-33.41,37.81-50.39,2.3-4.04,6.84-6.25,11.43-5.57,5.57.29,11.15,0,18.75,0-18.18,23.15-35.47,45.42-51.88,66.51,18.75,23.72,37.81,47.76,58.02,73.54l-.44-.06Z"/>
      <path id="Path_223261" data-name="Path 223261" class="cls-11" d="M2038.01,727.95v49.82h-21.38v-137.86c19.97-4.65,40.77-4.45,60.65.57,16.72,4.32,28.43,19.37,28.5,36.64,2.67,19.24-8.07,37.83-26.06,45.13-8.78,2.75-17.81,4.62-26.95,5.57-4.98.29-9.97.29-14.95,0l.19.13ZM2038.01,708.6c9.33-.55,18.62-1.61,27.84-3.17,13.29-4.37,20.53-18.68,16.16-31.98-1.88-5.72-5.73-10.59-10.88-13.72-10.53-4.1-21.97-5.31-33.13-3.52v52.45-.06Z"/>
      <path id="Path_223262" data-name="Path 223262" class="cls-11" d="M1163.84,778.4c-7.03,0-13.17.29-19,0-2.23-.48-4.08-2.02-4.97-4.12-3.8-9.09-7.32-18.46-10.26-27.84-1.46-3.8-3.17-5.57-7.32-5.29-11.43.29-23.15,0-34.58,0-3.46-.46-6.67,1.86-7.32,5.29-2.94,9.09-6.33,18.18-9.66,27.24-.68,3.24-3.75,5.41-7.03,4.97-5.29-.29-10.55,0-16.69,0,1.17-3.17,2.06-5.57,2.91-7.92,15.84-42.79,31.96-85.26,47.51-128.04,1.46-3.8,2.63-6.75,7.92-6.75s6.75,2.34,8.2,6.33l48.36,129.22c.6,1.77,1.17,3.8,2.34,7.03l-.41-.13ZM1104.64,677.6c-4.97,14.35-9.98,28.5-15.23,43.36h30.75c-5.29-14.66-10.26-29.01-15.52-43.36"/>
      <path id="Path_223263" data-name="Path 223263" class="cls-11" d="M2216.76,778.37c-7.03,0-13.18.29-19,0-2.47-.51-4.48-2.3-5.29-4.69-3.8-8.8-7.03-17.86-10.26-27.24-.53-3.46-3.76-5.83-7.22-5.31l-.1.02c-11.72.29-23.44,0-35.15.29-2.65.35-4.95,2-6.14,4.4-3.8,9.09-7.03,18.46-10.26,27.84-.54,3.3-3.66,5.53-6.95,4.99-.03,0-.05,0-.08-.01-5.29-.29-10.55,0-16.69,0,1.77-5.29,3.17-9.5,4.69-13.18,15.23-41.17,30.47-82.06,45.7-122.79,1.46-4.12,2.91-6.33,7.92-6.33s6.33,2.63,7.92,6.33c16.11,43.37,32.33,86.74,48.65,130.1l2.06,6.14.22-.57ZM2173.09,721.36c-5.29-14.95-10.26-29.01-15.52-43.36-5.29,14.66-10.26,28.73-15.23,43.36h30.75Z"/>
      <path id="Path_223264" data-name="Path 223264" class="cls-11" d="M796.99,778.09c-7.03,0-13.18.29-19,0-1.77,0-4.12-2.63-4.97-4.4-3.8-9.09-7.32-18.46-10.26-27.84-.68-3.24-3.75-5.41-7.03-4.97h-35.15c-3.25-.29-6.22,1.82-7.03,4.97-2.95,9.09-6.75,18.18-9.66,27.24-.5,3.46-3.7,5.87-7.17,5.37-.16-.02-.31-.05-.47-.08-4.97-.29-9.98,0-16.12,0,.65-2.39,1.43-4.73,2.34-7.03,16.11-43.07,32.13-86.25,48.04-129.53,1.46-4.12,3.17-6.33,8.2-6.14s6.14,2.34,7.63,6.14c16.11,43.37,32.33,86.65,48.65,129.85.6,1.77,1.17,3.8,2.06,6.75l-.06-.32ZM753.32,721.08c-5.29-14.95-10.55-29.01-15.52-43.36-4.97,14.35-9.98,28.73-15.23,43.36h30.75Z"/>
      <path id="Path_223265" data-name="Path 223265" class="cls-11" d="M1928.15,659.13c-9.7-1.55-19.48-2.61-29.3-3.17-15.31-.76-29.28,8.67-34.3,23.15-6.91,16.81-7.43,35.57-1.46,52.73,6.67,22.12,30.01,34.65,52.13,27.98,2.79-.84,5.49-1.97,8.04-3.37l5.86-2.95c.89,2.63,1.77,4.4,2.34,6.75,3.8,12,2.95,13.78-9.5,17.29-13.17,3.76-27.08,4.16-40.44,1.17-16.8-3.71-30.71-15.43-37.21-31.35-10.48-23.72-10.9-50.67-1.17-74.71,8.18-22.74,30.06-37.64,54.22-36.93,12.02-.83,24.06,1.18,35.15,5.86-1.74,6.33-3.52,12.67-4.97,17.58l.6-.03Z"/>
      <path id="Path_223266" data-name="Path 223266" class="cls-11" d="M365.73,638.89c.56-.26,1.16-.46,1.77-.57,13.71-1.25,26.77,6.09,32.81,18.46,7.63,14.06,15.23,28.5,23.15,43.36,9.98-19,19.35-37.21,28.73-55.68,1.49-4.41,5.95-7.09,10.55-6.33,5.37.29,10.75.29,16.12,0-1.46,2.95-2.63,5.29-3.8,7.32-12.89,23.72-26.06,47.76-38.99,71.8-1.94,3.83-3.02,8.03-3.17,12.32-.29,15.84,0,31.67,0,48.04h-21.38v-9.09c1.53-15.13,1.13-30.39-1.17-45.42-5.34-14.24-12.33-27.82-20.81-40.44-7.92-14.35-15.84-29.01-24.04-43.96l.22.19Z"/>
      <path id="Path_223267" data-name="Path 223267" class="cls-11" d="M2504.52,638.04c8.2,0,14.95-.29,21.38,0,2.51.53,4.65,2.14,5.86,4.4,9.5,16.69,18.18,33.7,27.24,50.39,1.17,2.06,2.34,4.12,3.8,6.75,8.8-17.01,18.18-33.13,25.34-50.1,2.34-8.84,11.33-14.17,20.21-12,3.16.3,6.34.3,9.5,0-1.46,2.95-2.63,4.97-3.8,7.32-12.89,23.72-26.06,47.76-38.99,71.8-1.94,3.83-3.02,8.03-3.17,12.32-.28,15.84,0,31.67,0,48.36h-21.38v-9.09c1.53-15.13,1.13-30.39-1.17-45.42-5.22-14.3-12.21-27.88-20.81-40.44-7.92-14.66-15.84-29.01-24.32-44.85l.32.57Z"/>
      <path id="Path_223268" data-name="Path 223268" class="cls-11" d="M2450.02,777.77h-21.69v-120.13h-41.9v-19.35h104.89v18.75h-41.17l-.13,120.73Z"/>
      <path id="Path_223269" data-name="Path 223269" class="cls-11" d="M2253.41,758.77h63.59v19h-84.69v-138.91h21.09v119.91Z"/>
      <path id="Path_223270" data-name="Path 223270" class="cls-11" d="M286.34,777.77v-139.19h21.38v119.84h63.34v19.35h-84.72Z"/>
      <rect id="Rectangle_24528" data-name="Rectangle 24528" class="cls-11" x="1990.85" y="377.23" width="19.35" height="177.58"/>
      <rect id="Rectangle_24529" data-name="Rectangle 24529" class="cls-11" x="989.3" y="376.95" width="19.03" height="177.86"/>
      <rect id="Rectangle_24530" data-name="Rectangle 24530" class="cls-11" x="2586.27" y="376.95" width="19.03" height="177.86"/>
      <rect id="Rectangle_24531" data-name="Rectangle 24531" class="cls-11" x="1786.61" y="638.61" width="20.81" height="139.19"/>
      <rect id="Rectangle_24532" data-name="Rectangle 24532" class="cls-11" x="1960.39" y="638.32" width="20.52" height="139.48"/>
      <path id="Path_223271" data-name="Path 223271" class="cls-11" d="M2343.38,638.32h20.81v139.19h-20.81v-139.19Z"/>
      <path id="Path_223272" data-name="Path 223272" class="cls-11" d="M2574.86,352.31c1.77-20.81,8.2-29.9,21.09-29.3,10.9.84,19.06,10.35,18.22,21.25-.01.15-.02.29-.04.44h-13.18c.28-.29.57-.89.89-1.17-2.63-2.06-5.29-3.8-7.92-5.86-1.77,4.69-3.52,9.09-5.57,14.95,7.92,0,13.78,2.95,18.46-3.8,3.52,3.17,6.75,6.14,11.72,10.55-5.29,2.95-9.5,7.03-13.78,7.32-13.18.89-26.06.29-40.16.29,3.17-5.86,1.46-13.78,10.55-14.35l-.28-.32Z"/>
      <rect id="Rectangle_24533" data-name="Rectangle 24533" class="cls-11" x="65.37" y="385.43" width="21.98" height="22.87"/>
      <rect id="Rectangle_24534" data-name="Rectangle 24534" class="cls-11" x="2145.28" y="385.15" width="21.98" height="22.55"/>
      <rect id="Rectangle_24535" data-name="Rectangle 24535" class="cls-11" x="1143.73" y="385.43" width="21.98" height="22.55"/>
      <rect id="Rectangle_24536" data-name="Rectangle 24536" class="cls-11" x="1107.37" y="385.43" width="21.98" height="22.87"/>
      <rect id="Rectangle_24537" data-name="Rectangle 24537" class="cls-11" x="2242.57" y="376.95" width="21.98" height="22.87"/>
      <rect id="Rectangle_24538" data-name="Rectangle 24538" class="cls-11" x="615.96" y="376.95" width="21.98" height="22.87"/>
      <rect id="Rectangle_24539" data-name="Rectangle 24539" class="cls-11" x="579.64" y="377.23" width="21.69" height="22.55"/>
      <rect id="Rectangle_24540" data-name="Rectangle 24540" class="cls-11" x="2109.24" y="385.43" width="21.69" height="22.87"/>
      <rect id="Rectangle_24541" data-name="Rectangle 24541" class="cls-11" x="29.04" y="385.15" width="21.69" height="22.55"/>
    </g>
  </g>
</svg>