<svg width="50" height="58" viewBox="0 0 50 58" fill="none" xmlns="http://www.w3.org/2000/svg">
<g clip-path="url(#clip0_1_195)">
<path d="M49.4002 27.3992C49.4002 16.3535 40.4459 7.39922 29.4002 7.39922C18.3545 7.39922 9.40021 16.3535 9.40021 27.3992C9.40021 38.4449 18.3545 47.3992 29.4002 47.3992C40.4459 47.3992 49.4002 38.4449 49.4002 27.3992Z" fill="#3CA078" fill-opacity="0.05"/>
<path d="M10.95 31.2491H10.967M18.5999 31.2491H18.6169M26.2499 31.2491H26.2669M15.0299 46.0391L17.5119 49.3484C17.881 49.8405 18.0656 50.0866 18.2918 50.1746C18.49 50.2516 18.7098 50.2516 18.908 50.1746C19.1343 50.0866 19.3188 49.8405 19.6879 49.3484L22.1699 46.0391C22.6682 45.3746 22.9174 45.0424 23.2214 44.7887C23.6266 44.4505 24.105 44.2113 24.6187 44.09C25.004 43.9991 25.4193 43.9991 26.2499 43.9991C28.6262 43.9991 29.8143 43.9991 30.7515 43.6109C32.0012 43.0932 32.994 42.1004 33.5116 40.8508C33.8998 39.9135 33.8998 38.7254 33.8998 36.3491V26.6592C33.8998 23.8029 33.8998 22.3748 33.344 21.2838C32.855 20.3242 32.0748 19.544 31.1152 19.0551C30.0243 18.4992 28.5961 18.4992 25.7399 18.4992H11.4599C8.60369 18.4992 7.17557 18.4992 6.08462 19.0551C5.125 19.544 4.3448 20.3242 3.85585 21.2838C3.29999 22.3748 3.29999 23.8029 3.29999 26.6592V36.3491C3.29999 38.7254 3.29999 39.9135 3.6882 40.8508C4.20582 42.1004 5.19865 43.0932 6.44829 43.6109C7.38552 43.9991 8.57366 43.9991 10.95 43.9991C11.7805 43.9991 12.1958 43.9991 12.5811 44.09C13.0948 44.2113 13.5732 44.4505 13.9785 44.7887C14.2824 45.0424 14.5316 45.3746 15.0299 46.0391ZM11.7999 31.2491C11.7999 31.7186 11.4194 32.0991 10.95 32.0991C10.4805 32.0991 10.1 31.7186 10.1 31.2491C10.1 30.7797 10.4805 30.3991 10.95 30.3991C11.4194 30.3991 11.7999 30.7797 11.7999 31.2491ZM19.4499 31.2491C19.4499 31.7186 19.0694 32.0991 18.5999 32.0991C18.1305 32.0991 17.7499 31.7186 17.7499 31.2491C17.7499 30.7797 18.1305 30.3991 18.5999 30.3991C19.0694 30.3991 19.4499 30.7797 19.4499 31.2491ZM27.0999 31.2491C27.0999 31.7186 26.7193 32.0991 26.2499 32.0991C25.7804 32.0991 25.3999 31.7186 25.3999 31.2491C25.3999 30.7797 25.7804 30.3991 26.2499 30.3991C26.7193 30.3991 27.0999 30.7797 27.0999 31.2491Z" stroke="#3CA078" stroke-width="2.31817" stroke-linecap="round" stroke-linejoin="round"/>
</g>
<defs>
<clipPath id="clip0_1_195">
<rect width="49" height="57" fill="white" transform="translate(0.200012 0.200001)"/>
</clipPath>
</defs>
</svg>
