<svg width="273" height="76" viewBox="0 0 273 76" fill="none" xmlns="http://www.w3.org/2000/svg">
<g clip-path="url(#clip0_1039_12471)">
<path d="M6.78328 4.97361C6.78328 4.15604 7.4991 3.47473 8.35126 3.47473C9.16934 3.47473 9.81699 4.15604 9.81699 4.97361C9.81699 5.79118 9.16934 6.54062 8.35126 6.54062C7.4991 6.50656 6.78328 5.75712 6.78328 4.97361ZM13.7029 9.57245H16.2253V23.1646C16.2253 27.5249 12.0326 29.3304 8.14674 29.3304C4.49947 29.3304 0.102295 27.559 0.102295 23.1646V16.624L2.62471 14.9888V22.9261C2.62471 25.8557 5.48799 26.8436 8.14674 26.8436C10.9759 26.8436 13.7029 25.7195 13.7029 22.9602V9.57245Z" fill="#066058"/>
<path d="M26.6218 12.0592H24.1335C22.8041 12.0592 22.3609 12.6383 22.3609 13.9668V18.0887C22.3609 19.792 23.1449 19.9964 24.6788 19.9964H26.6218V12.0592ZM21.0316 27.048H21.4065C24.3721 27.048 26.6218 26.1623 26.6218 23.2667V22.4832H24.4743C21.7133 22.4832 19.8044 21.1546 19.8044 18.0887V13.9668C19.8044 11.2757 21.4065 9.57239 24.2016 9.57239H29.1442V22.7898C29.1442 26.9117 27.3376 28.9556 22.7018 29.2963L21.0316 27.048Z" fill="#066058"/>
<path d="M39.5405 12.0592H37.0521C35.7228 12.0592 35.2796 12.6383 35.2796 13.9669V18.0888C35.2796 19.7921 36.0636 19.9965 37.5975 19.9965H39.5405V12.0592ZM35.0069 6.50655V5.48459H36.1318C35.9273 5.14394 35.825 4.76922 35.825 4.42856C35.825 3.37253 36.4727 2.4187 37.8361 2.4187H38.9269V3.44066H38.2111C37.3589 3.44066 36.9158 3.78132 36.9158 4.46263C36.9158 5.21207 37.4612 5.51866 38.2111 5.51866H39.6768V6.54062H35.0069V6.50655ZM42.0629 22.4832V22.7898C42.0629 26.9118 40.2563 28.9557 35.6205 29.2963L33.9503 27.048H34.3252C37.2908 27.048 39.5405 26.1623 39.5405 23.2668V22.4832H37.393C34.632 22.4832 32.7231 21.1547 32.7231 18.0888V13.9669C32.7231 11.2757 34.3252 9.57244 37.1203 9.57244H42.0629V19.9965H43.5968V22.4832H42.0629Z" fill="#066058"/>
<path d="M43.4265 19.9965H50.2438V22.4832H43.4265V19.9965Z" fill="#066058"/>
<path d="M50.0391 19.9965H54.2317V22.4832H50.0391V19.9965Z" fill="#066058"/>
<path d="M54.0273 19.9965H58.22V22.4832H54.0273V19.9965Z" fill="#066058"/>
<path d="M58.0496 19.9965H62.2422V22.4832H58.0496V19.9965Z" fill="#066058"/>
<path d="M62.0376 19.9965H66.2303V22.4832H62.0376V19.9965Z" fill="#066058"/>
<path d="M66.0601 19.9965H70.2527V22.4832H66.0601V19.9965Z" fill="#066058"/>
<path d="M70.0481 19.9965H74.2408V22.4832H70.0481V19.9965Z" fill="#066058"/>
<path d="M89.3411 3.09996C88.489 3.09996 87.8413 2.38458 87.8413 1.56701C87.8413 0.715374 88.489 0 89.3411 0C90.1933 0 90.8409 0.715374 90.8409 1.56701C90.8409 2.38458 90.1592 3.09996 89.3411 3.09996ZM91.3522 6.5065C90.5001 6.5065 89.8183 5.79113 89.8183 5.00762C89.8183 4.15598 90.466 3.44061 91.3522 3.44061C92.2044 3.44061 92.8521 4.12192 92.8521 5.00762C92.8861 5.82519 92.1703 6.5065 91.3522 6.5065ZM87.5005 6.5065C86.6483 6.5065 85.9325 5.79113 85.9325 5.00762C85.9325 4.15598 86.6483 3.44061 87.5005 3.44061C88.3185 3.44061 89.0003 4.12192 89.0003 5.00762C89.0344 5.82519 88.3185 6.5065 87.5005 6.5065ZM74.0703 22.4832V19.9964H81.3649V9.57239H83.8191V19.9964H88.1822V9.57239H90.6705V19.9964H94.9995V9.57239H97.4878V19.9964H98.5445V22.4832H74.0703Z" fill="#066058"/>
<path d="M98.3743 22.4832V19.9964H99.3628C100.726 19.9964 101.34 19.5535 101.34 18.0887V4.32629H103.828V18.2931C103.828 20.7458 102.499 22.4832 99.431 22.4832H98.3743Z" fill="#066058"/>
<path d="M107.441 23.8799V4.32629H109.963V22.4832L107.441 23.8799Z" fill="#066058"/>
<path d="M123.53 4.97361C123.53 4.15604 124.246 3.47473 125.03 3.47473C125.848 3.47473 126.53 4.19011 126.53 4.97361C126.53 5.79118 125.814 6.54062 125.03 6.54062C124.212 6.50656 123.53 5.79118 123.53 4.97361ZM125.234 12.0592H122.746C121.689 12.0592 120.939 12.4339 120.939 13.9669V18.1569C120.939 19.6217 121.928 20.0305 123.087 20.0305C124.28 20.0305 125.234 19.6558 125.234 18.1569V12.0592ZM119.678 4.97361C119.678 4.15604 120.394 3.47473 121.246 3.47473C122.064 3.47473 122.78 4.19011 122.78 4.97361C122.78 5.79118 122.064 6.54062 121.246 6.54062C120.36 6.50656 119.678 5.79118 119.678 4.97361ZM127.757 18.0888C127.757 21.4272 125.439 22.4832 123.087 22.4832C120.496 22.4832 118.417 21.1547 118.417 18.0207V13.9669C118.417 11.1735 120.121 9.57245 122.746 9.57245H127.757V18.0888Z" fill="#066058"/>
<path d="M130.211 27.082C132.767 26.2644 133.313 25.2425 133.313 22.8579V9.60645H135.801V23.6073C135.801 26.2644 134.438 28.2402 131.949 29.2963L130.211 27.082Z" fill="#066058"/>
<path d="M139.415 23.8799V4.32629H141.971V22.4832L139.415 23.8799Z" fill="#066058"/>
<path d="M147.254 4.9735C147.254 4.15593 147.902 3.44055 148.754 3.44055C149.572 3.44055 150.22 4.15593 150.22 4.9735C150.22 5.79107 149.572 6.54051 148.754 6.54051C147.902 6.50644 147.254 5.757 147.254 4.9735ZM144.391 27.082C146.948 26.2644 147.493 25.2424 147.493 22.8579V9.6064H149.981V23.6073C149.981 26.2644 148.618 28.2402 146.13 29.2962L144.391 27.082Z" fill="#066058"/>
<path d="M160.446 12.0592H157.958C156.628 12.0592 156.185 12.6383 156.185 13.9668V18.0887C156.185 19.792 156.969 19.9964 158.503 19.9964H160.446V12.0592ZM154.822 27.048H155.197C158.162 27.048 160.412 26.1623 160.412 23.2667V22.4832H158.264C155.503 22.4832 153.594 21.1546 153.594 18.0887V13.9668C153.594 11.2757 155.197 9.57239 157.992 9.57239H162.934V22.7898C162.934 26.9117 161.162 28.9556 156.492 29.2963L154.822 27.048Z" fill="#066058"/>
<path d="M5.07891 34.8829C5.07891 34.0653 5.79473 33.384 6.61281 33.384C7.43089 33.384 8.14671 34.0653 8.14671 34.8829C8.14671 35.7005 7.43089 36.4499 6.61281 36.4499C5.79473 36.4499 5.07891 35.7005 5.07891 34.8829ZM6.78324 42.0026H4.29492C3.23823 42.0026 2.52241 42.3773 2.52241 43.8421V48.0662C2.52241 49.1904 2.82919 49.9398 4.46535 49.9398H6.78324V42.0026ZM1.22712 34.8829C1.22712 34.0653 1.94294 33.384 2.79511 33.384C3.61319 33.384 4.29492 34.0653 4.29492 34.8829C4.29492 35.7005 3.5791 36.4499 2.79511 36.4499C1.90885 36.4159 1.22712 35.7005 1.22712 34.8829ZM6.78324 52.3925V50.7574L5.59021 52.3925H4.66987C1.56799 52.3925 0 50.7574 0 47.9981V43.8762C0 40.9125 1.94294 39.4817 4.39718 39.4817H9.33974V49.9058H10.8736V52.3925H6.78324Z" fill="#066058"/>
<path d="M10.6692 49.9059H14.8618V52.3927H10.6692V49.9059Z" fill="#066058"/>
<path d="M19.2588 57.7068C19.2588 56.8892 19.9064 56.2079 20.7927 56.2079C21.6108 56.2079 22.2584 56.8892 22.2584 57.7068C22.2584 58.5585 21.6108 59.2057 20.7927 59.2057C19.9405 59.2057 19.2588 58.5585 19.2588 57.7068ZM16.9409 59.2057C16.0887 59.2057 15.407 58.5585 15.407 57.7068C15.407 56.8892 16.0546 56.2079 16.9409 56.2079C17.759 56.2079 18.4748 56.8892 18.4748 57.7068C18.4407 58.5585 17.759 59.2057 16.9409 59.2057ZM14.6912 52.3926V49.9058H17.7249C18.9861 49.9058 19.5656 49.3267 19.5656 48.2026V39.4818H22.0539V48.0663C22.0539 51.1322 19.9746 52.3926 17.5544 52.3926H14.6912Z" fill="#066058"/>
<path d="M32.4165 42.0027H29.9281C28.5987 42.0027 28.1556 42.5818 28.1556 43.9103V48.0322C28.1556 49.7355 28.9396 49.9399 30.4735 49.9399H32.4165V42.0027ZM26.8262 56.9574H27.2012C30.1667 56.9574 32.4165 56.0717 32.4165 53.1761V52.3926H30.269C27.508 52.3926 25.5991 51.0641 25.5991 47.9982V43.8763C25.5991 41.1851 27.2012 39.4818 29.9963 39.4818H34.9389V52.6992C34.9389 56.8211 33.1323 58.865 28.4965 59.2057L26.8262 56.9574Z" fill="#066058"/>
<path d="M37.3928 56.9914C39.9493 56.1739 40.4947 55.1519 40.4947 52.7673V39.5159H42.983V49.9399H44.551V52.4267H42.983V53.5508C42.983 56.2079 41.6196 58.1837 39.1312 59.2398L37.3928 56.9914Z" fill="#066058"/>
<path d="M44.3467 49.9059H48.5393V52.3927H44.3467V49.9059Z" fill="#066058"/>
<path d="M56.277 34.8829C56.277 34.0653 57.0269 33.384 57.845 33.384C58.6631 33.384 59.3789 34.0653 59.3789 34.8829C59.3789 35.7005 58.6631 36.4499 57.845 36.4499C57.0269 36.4159 56.277 35.7005 56.277 34.8829ZM58.0495 42.0026H55.5612C54.5045 42.0026 53.7546 42.3773 53.7546 43.9103V49.9398H58.0495V42.0026ZM52.4593 34.8829C52.4593 34.0653 53.1751 33.384 54.0273 33.384C54.8454 33.384 55.493 34.0653 55.493 34.8829C55.493 35.7005 54.8454 36.4499 54.0273 36.4499C53.1751 36.4159 52.4593 35.7005 52.4593 34.8829ZM48.3689 52.3925V49.9058H51.2322V43.8762C51.2322 41.0828 52.9365 39.4817 55.5612 39.4817H60.5719V49.9058H62.1058V52.3925H48.3689Z" fill="#066058"/>
<path d="M61.9353 52.3927V49.9059H62.8897C64.2532 49.9059 64.8668 49.4631 64.8668 47.9983V34.2358H67.3551V48.2027C67.3551 50.6554 66.0257 52.3927 62.9579 52.3927H61.9353Z" fill="#066058"/>
<path d="M71.0024 53.8233V34.2698H73.5249V52.3926L71.0024 53.8233Z" fill="#066058"/>
<path d="M83.8874 42.0027H81.3991C80.0697 42.0027 79.5925 42.5818 79.5925 43.9103V48.0322C79.5925 49.7355 80.3765 49.9399 81.9104 49.9399H83.8533L83.8874 42.0027ZM78.2972 56.9574H78.6721C81.6377 56.9574 83.8874 56.0717 83.8874 53.1761V52.3926H81.7399C78.9789 52.3926 77.0701 51.0641 77.0701 47.9982V43.8763C77.0701 41.1851 78.6721 39.4818 81.4672 39.4818H86.4098V52.6992C86.4098 56.8211 84.6373 58.865 79.9674 59.2057L78.2972 56.9574Z" fill="#066058"/>
<path d="M100.01 34.8829C100.01 34.0653 100.726 33.384 101.544 33.384C102.362 33.384 103.078 34.0653 103.078 34.8829C103.078 35.7005 102.362 36.4499 101.544 36.4499C100.692 36.4159 100.01 35.7005 100.01 34.8829ZM101.715 42.0026H99.2263C98.1696 42.0026 97.4538 42.3773 97.4538 43.8421V48.0662C97.4538 49.1904 97.7606 49.9398 99.3967 49.9398H101.715V42.0026ZM96.1585 34.8829C96.1585 34.0653 96.8743 33.384 97.7265 33.384C98.5446 33.384 99.2604 34.0653 99.2604 34.8829C99.2604 35.7005 98.5446 36.4499 97.7265 36.4499C96.8403 36.4159 96.1585 35.7005 96.1585 34.8829ZM101.715 52.3925V50.7574L100.522 52.3925H99.6013C96.4994 52.3925 94.9314 50.7574 94.9314 47.9981V43.8762C94.9314 40.9125 96.8743 39.4817 99.3286 39.4817H104.271V49.9058H105.771V52.3925H101.715Z" fill="#066058"/>
<path d="M105.601 49.9059H109.555V52.3927H105.601V49.9059Z" fill="#066058"/>
<path d="M113.952 57.7068C113.952 56.8892 114.599 56.2079 115.486 56.2079C116.304 56.2079 116.951 56.8892 116.951 57.7068C116.951 58.5585 116.304 59.2057 115.486 59.2057C114.633 59.2057 113.952 58.5585 113.952 57.7068ZM111.634 59.2057C110.782 59.2057 110.1 58.5585 110.1 57.7068C110.1 56.8892 110.748 56.2079 111.634 56.2079C112.452 56.2079 113.134 56.8892 113.134 57.7068C113.134 58.5585 112.452 59.2057 111.634 59.2057ZM109.384 52.3926V49.9058H112.418C113.679 49.9058 114.258 49.3267 114.258 48.2026V39.4818H116.747V48.0663C116.747 51.1322 114.702 52.3926 112.247 52.3926H109.384Z" fill="#066058"/>
<path d="M120.292 52.3926V49.9058H127.791V45.7158C127.791 42.9565 126.189 41.9686 124.144 41.9686H122.473V39.4818H124.314C127.348 39.4818 130.279 41.5257 130.279 45.4433V49.9058H131.847V52.3926H120.292Z" fill="#066058"/>
<path d="M131.609 49.9059H135.801V52.3927H131.609V49.9059Z" fill="#066058"/>
<path d="M135.631 52.3927V49.9059H138.562V34.2358H141.016V49.9059H142.584V52.3927H135.631Z" fill="#066058"/>
<path d="M147.016 57.7068C147.016 56.8892 147.663 56.2079 148.55 56.2079C149.368 56.2079 150.015 56.8892 150.015 57.7068C150.015 58.5585 149.368 59.2057 148.55 59.2057C147.663 59.2057 147.016 58.5585 147.016 57.7068ZM142.414 52.3926V49.9058H147.288V39.4818H149.777V49.9058H151.345V52.3926H142.414Z" fill="#066058"/>
<path d="M151.14 52.3927V49.9059H152.128C153.492 49.9059 154.105 49.4631 154.105 47.9983V34.2358H156.594V48.2027C156.594 50.6554 155.264 52.3927 152.197 52.3927H151.14Z" fill="#066058"/>
<path d="M160.208 53.8233V34.2698H162.73V52.3926L160.208 53.8233Z" fill="#066058"/>
<path d="M6.37427 73.8198V67.688L4.43133 73.8198H3.13604L1.1931 67.688V73.8198H0.20459V66.4276H1.80666L3.78369 72.9L5.7948 66.4276H7.36279V73.8198H6.37427Z" fill="#066058"/>
<path d="M10.6008 73.7516C10.3963 73.8538 10.1236 73.9219 9.71459 73.9219C9.54415 73.9219 8.86242 73.8879 8.86242 73.1384V68.5737H9.91911V72.9C9.91911 73.0703 9.98728 73.1725 10.1577 73.1725C10.2259 73.1725 10.3281 73.1725 10.4304 73.1384L10.6008 73.7516ZM9.40781 67.5176C9.06694 67.5176 8.72607 67.2111 8.72607 66.8704C8.72607 66.4957 9.06694 66.1891 9.40781 66.1891C9.78276 66.1891 10.0895 66.4957 10.0895 66.8704C10.0895 67.2451 9.78276 67.5176 9.40781 67.5176Z" fill="#066058"/>
<path d="M16.5659 73.7517C16.3614 73.8539 16.0887 73.922 15.7138 73.922C15.5433 73.922 14.8275 73.888 14.8275 73.1385V70.277C14.8275 69.5957 14.6571 69.4254 14.1458 69.4254C13.43 69.4254 12.6801 69.9704 12.4415 70.1748V73.8198H11.3848V68.5737H12.4415V69.2891C12.8505 68.9144 13.6345 68.5056 14.3162 68.5056C15.3047 68.5056 15.8842 68.7441 15.8842 70.2089V72.9001C15.8842 73.0704 15.9524 73.1726 16.1228 73.1726C16.191 73.1726 16.2932 73.1726 16.3955 73.1385L16.5659 73.7517Z" fill="#066058"/>
<path d="M19.0886 73.7516C18.8841 73.8538 18.6114 73.9219 18.2024 73.9219C18.0319 73.9219 17.3502 73.8879 17.3502 73.1384V68.5737H18.4069V72.9C18.4069 73.0703 18.4751 73.1725 18.6455 73.1725C18.7137 73.1725 18.8159 73.1725 18.9182 73.1384L19.0886 73.7516ZM17.8956 67.5176C17.5547 67.5176 17.2139 67.2111 17.2139 66.8704C17.2139 66.4957 17.5547 66.1891 17.8956 66.1891C18.2706 66.1891 18.5773 66.4957 18.5773 66.8704C18.5773 67.2451 18.3046 67.5176 17.8956 67.5176Z" fill="#066058"/>
<path d="M19.9404 72.7638C20.2131 72.9001 20.8607 73.0704 21.3379 73.0704C22.0878 73.0704 22.5991 72.9001 22.5991 72.321C22.5991 71.3671 19.8722 71.6056 19.8722 69.9364C19.8722 68.7781 20.963 68.4716 21.9515 68.4716C22.5991 68.4716 23.0763 68.5738 23.4513 68.7441L23.2809 69.5957C22.8718 69.3913 22.3946 69.3232 21.9856 69.3232C21.2697 69.3232 20.9289 69.4935 20.9289 69.8682C20.9289 70.7199 23.6558 70.4814 23.6558 72.321C23.6558 73.3089 22.7014 73.922 21.5424 73.922C20.7244 73.922 20.179 73.8198 19.7358 73.6836L19.9404 72.7638Z" fill="#066058"/>
<path d="M27.3374 73.7175C26.9624 73.8538 26.7579 73.9219 26.1444 73.9219C25.4285 73.9219 25.0536 73.6153 25.0536 72.5593V69.3912H24.2014L24.3718 68.5396H25.0536V67.1429L26.1103 66.8022V68.5736H27.201V69.4253H26.1103V72.4571C26.1103 73.0022 26.2466 73.0703 26.6557 73.0703C26.792 73.0703 27.0647 73.0022 27.167 72.934L27.3374 73.7175Z" fill="#066058"/>
<path d="M28.2578 73.8198V68.5738H29.3145V69.2551C29.519 68.7781 29.9281 68.4716 30.303 68.4716C30.7121 68.4716 31.0188 68.6078 31.2915 68.7441L31.087 69.6298C30.8143 69.5276 30.5416 69.4595 30.2008 69.4595C29.7235 69.4595 29.4168 69.9364 29.2804 70.1748V73.8539L28.2578 73.8198Z" fill="#066058"/>
<path d="M31.6323 68.5737H32.7572L34.1207 72.355L35.2796 68.5737H36.4386L34.5638 74.0242C34.0184 75.5912 33.5071 76 32.5527 76C32.0755 76 31.5983 75.8637 31.4619 75.7956L31.6664 74.9099C31.905 75.0121 32.2459 75.0802 32.5527 75.0802C32.8254 75.0802 33.2344 75.0802 33.6775 73.6835L31.6323 68.5737Z" fill="#066058"/>
<path d="M43.0855 71.2309C43.0855 69.5957 42.4719 69.2891 41.6538 69.2891C40.8017 69.2891 40.2222 69.5957 40.2222 71.2309C40.2222 72.866 40.8017 73.1045 41.6538 73.1045C42.4719 73.1045 43.0855 72.8319 43.0855 71.2309ZM39.0632 71.2309C39.0632 69.0507 40.2563 68.4716 41.6197 68.4716C42.9832 68.4716 44.1762 69.0507 44.1762 71.2309C44.1762 73.411 42.9832 73.922 41.6197 73.922C40.2904 73.922 39.0632 73.411 39.0632 71.2309Z" fill="#066058"/>
<path d="M45.7103 73.8198V69.3913H44.8582L45.0286 68.5396H45.7103V67.7902C45.7103 66.8704 45.8807 66.0869 47.176 66.0869C47.5851 66.0869 47.926 66.121 48.2668 66.2572L48.0623 67.1429C47.8237 67.0748 47.5851 67.0067 47.3465 67.0067C46.8693 67.0067 46.7329 67.1089 46.7329 67.6539V68.5396H47.8919V69.3913H46.7329V73.8198H45.7103Z" fill="#066058"/>
<path d="M57.1632 73.8198V67.688L55.2203 73.8198H53.925L51.9821 67.688V73.8198H50.9595V66.4276H52.5956L54.5727 72.9L56.5838 66.4276H58.1518V73.8198H57.1632Z" fill="#066058"/>
<path d="M64.6965 73.7517C64.492 73.8539 64.1852 73.922 63.8443 73.922C62.9922 73.922 62.9581 73.2407 62.9581 73.1385C62.6172 73.4451 61.9014 73.922 61.1856 73.922C60.1971 73.922 59.5835 73.6835 59.5835 72.2187V68.5737H60.6402V72.0825C60.6402 72.7978 60.8447 72.9341 61.3219 72.9341C62.0036 72.9341 62.7536 72.4572 62.9581 72.1847V68.5737H64.0148V72.9C64.0148 73.0704 64.117 73.1726 64.2875 73.1726C64.3556 73.1726 64.4579 73.1726 64.5601 73.1385L64.6965 73.7517Z" fill="#066058"/>
<path d="M70.6619 73.7517C70.4574 73.8539 70.1847 73.922 69.8097 73.922C69.6393 73.922 68.9235 73.888 68.9235 73.1385V70.277C68.9235 69.5957 68.753 69.4254 68.2417 69.4254C67.5259 69.4254 66.776 69.9704 66.5374 70.1748V73.8198H65.4807V68.5737H66.5374V69.2891C66.9464 68.9144 67.7304 68.5056 68.4122 68.5056C69.4007 68.5056 69.9801 68.7441 69.9801 70.2089V72.9001C69.9801 73.0704 70.0483 73.1726 70.2188 73.1726C70.2869 73.1726 70.3892 73.1726 70.4914 73.1385L70.6619 73.7517Z" fill="#066058"/>
<path d="M73.1841 73.7516C72.9796 73.8538 72.7069 73.9219 72.2978 73.9219C72.1274 73.9219 71.4457 73.8879 71.4457 73.1384V68.5737H72.5024V72.9C72.5024 73.0703 72.5705 73.1725 72.741 73.1725C72.8091 73.1725 72.9114 73.1725 73.0137 73.1384L73.1841 73.7516ZM71.9911 67.5176C71.6502 67.5176 71.3093 67.2111 71.3093 66.8704C71.3093 66.4957 71.6502 66.1891 71.9911 66.1891C72.366 66.1891 72.6728 66.4957 72.6728 66.8704C72.6387 67.2451 72.366 67.5176 71.9911 67.5176Z" fill="#066058"/>
<path d="M77.7176 73.6836C77.3426 73.8198 76.7631 73.922 76.1496 73.922C75.1611 73.922 73.7976 73.2407 73.7976 71.1627C73.7976 70.0045 74.5134 68.4716 76.32 68.4716C77.0358 68.4716 77.5812 68.5738 77.9562 68.7441L77.7857 69.6298C77.4449 69.4935 76.8654 69.3913 76.4564 69.3913C75.0588 69.3913 74.9225 70.5155 74.9225 71.2309C74.9225 72.6275 75.6383 73.0363 76.6268 73.0363C76.9677 73.0363 77.6153 72.9341 77.9221 72.7979L77.7176 73.6836Z" fill="#066058"/>
<path d="M80.7171 73.7516C80.5125 73.8538 80.2398 73.9219 79.8308 73.9219C79.6604 73.9219 78.9786 73.8879 78.9786 73.1384V68.5737H80.0353V72.9C80.0353 73.0703 80.1035 73.1725 80.2739 73.1725C80.3421 73.1725 80.4444 73.1725 80.5466 73.1384L80.7171 73.7516ZM79.524 67.5176C79.1832 67.5176 78.8423 67.2111 78.8423 66.8704C78.8423 66.4957 79.1832 66.1891 79.524 66.1891C79.899 66.1891 80.2058 66.4957 80.2058 66.8704C80.1717 67.2451 79.899 67.5176 79.524 67.5176Z" fill="#066058"/>
<path d="M82.5579 72.5594C82.7965 72.7979 83.376 73.0363 83.785 73.0363C84.7395 73.0363 85.2508 72.6616 85.2508 71.2309C85.2508 69.9704 84.944 69.3913 83.9555 69.3913C83.0351 69.3913 82.5579 70.0726 82.5579 70.7539V72.5594ZM81.5012 75.9319V68.5738H82.5579V69.2551C82.8306 68.9144 83.3419 68.4716 84.2963 68.4716C85.2848 68.4716 86.3756 69.0847 86.3756 71.1968C86.3756 72.7297 85.6939 73.922 84.0236 73.922C83.3078 73.922 82.7624 73.6836 82.5579 73.4792V75.9319H81.5012Z" fill="#066058"/>
<path d="M90.5683 71.3671C90.3979 71.3671 90.0229 71.333 89.8184 71.333C88.9662 71.333 88.489 71.5715 88.489 72.2869C88.489 73.0363 89.1708 73.0704 89.4434 73.0704C90.0911 73.0704 90.6024 72.5935 90.6024 71.9122L90.5683 71.3671ZM92.2726 73.7517C91.9999 73.888 91.7954 73.922 91.4205 73.922C90.6365 73.922 90.5342 73.377 90.5342 73.1726C90.3638 73.4792 90.0229 73.922 89.0003 73.922C87.8414 73.922 87.3301 73.3429 87.3301 72.3891C87.3301 70.9924 88.4549 70.5836 89.6821 70.5836C89.9547 70.5836 90.3979 70.6177 90.5342 70.6517V70.1748C90.5342 69.4254 89.8866 69.3913 89.273 69.3913C88.6254 69.3913 88.08 69.5276 87.705 69.6638L87.8755 68.7781C88.2504 68.6419 88.8981 68.5056 89.5457 68.5056C90.9092 68.5056 91.5568 68.9144 91.5568 70.4473V72.9001C91.5568 73.1044 91.625 73.1726 91.8295 73.1726C91.9318 73.1726 91.9999 73.1726 92.1022 73.1385L92.2726 73.7517Z" fill="#066058"/>
<path d="M94.7948 73.7517C94.5903 73.8539 94.3176 73.922 93.9427 73.922C93.7722 73.922 93.0564 73.8879 93.0564 73.1385V66.4276H94.1131V72.9C94.1131 73.0704 94.1813 73.1726 94.3517 73.1726C94.4199 73.1726 94.5221 73.1726 94.6244 73.1385L94.7948 73.7517Z" fill="#066058"/>
<path d="M99.3625 70.3792C99.0898 70.4814 98.5444 70.754 98.5444 71.7759C98.5444 72.7638 99.2602 73.0023 99.9079 73.0023C100.453 73.0023 101.033 72.6957 101.237 72.4572C100.624 71.9122 99.9079 71.0265 99.3625 70.3792ZM103.862 73.8539C103.657 73.922 103.351 73.922 103.146 73.922C102.669 73.922 102.226 73.5814 101.851 73.1385C101.442 73.5814 100.726 73.922 99.8397 73.922C98.5103 73.922 97.4536 73.3429 97.4536 71.9122C97.4536 70.4474 98.2717 69.9023 98.8853 69.6639C98.6126 69.2891 98.2376 68.676 98.2376 67.9606C98.2376 67.109 98.8171 66.2914 100.044 66.2914C100.828 66.2914 101.408 66.4617 101.783 66.632L101.612 67.5859C101.169 67.3815 100.692 67.2793 100.215 67.2793C99.6692 67.2793 99.3284 67.4496 99.3284 67.9947C99.3284 68.8463 99.9079 69.5617 101.817 71.6397C102.123 71.0605 102.158 70.4474 102.158 69.4935H104.101L103.93 70.4133H103.044C103.044 70.8902 102.907 71.81 102.498 72.4232C102.907 72.9001 103.078 73.0704 103.487 73.0704C103.657 73.0704 103.862 73.0363 103.998 73.0023L103.862 73.8539Z" fill="#066058"/>
<path d="M109.929 70.1408C110.475 70.1408 111.088 69.8682 111.088 68.7781C111.088 67.9265 110.611 67.3815 109.929 67.3815H108.464V70.1408H109.929ZM111.225 73.8198L109.793 71.0946H108.43V73.8198H107.305V66.3936H109.657C111.463 66.3936 112.213 67.3474 112.213 68.7441C112.213 69.8001 111.736 70.5495 110.884 70.8902L112.452 73.8198H111.225Z" fill="#066058"/>
<path d="M118.656 73.7517C118.451 73.8539 118.144 73.922 117.804 73.922C116.951 73.922 116.917 73.2407 116.917 73.1385C116.576 73.4451 115.861 73.922 115.145 73.922C114.156 73.922 113.543 73.6835 113.543 72.2187V68.5737H114.599V72.0825C114.599 72.7978 114.804 72.9341 115.281 72.9341C115.963 72.9341 116.713 72.4572 116.917 72.1847V68.5737H117.974V72.9C117.974 73.0704 118.076 73.1726 118.247 73.1726C118.315 73.1726 118.417 73.1726 118.519 73.1385L118.656 73.7517Z" fill="#066058"/>
<path d="M119.406 73.8198V68.5738H120.462V69.2551C120.667 68.7781 121.076 68.4716 121.451 68.4716C121.86 68.4716 122.167 68.6078 122.439 68.7441L122.235 69.6298C121.962 69.5276 121.689 69.4595 121.348 69.4595C120.905 69.4595 120.564 69.9364 120.428 70.1748V73.8539L119.406 73.8198Z" fill="#066058"/>
<path d="M126.291 71.3671C126.121 71.3671 125.746 71.333 125.541 71.333C124.689 71.333 124.212 71.5715 124.212 72.2869C124.212 73.0363 124.894 73.0704 125.166 73.0704C125.814 73.0704 126.325 72.5935 126.325 71.9122L126.291 71.3671ZM127.996 73.7517C127.723 73.888 127.518 73.922 127.143 73.922C126.359 73.922 126.257 73.377 126.257 73.1726C126.087 73.4792 125.746 73.922 124.723 73.922C123.564 73.922 123.053 73.3429 123.053 72.3891C123.053 70.9924 124.178 70.5836 125.405 70.5836C125.678 70.5836 126.121 70.6177 126.257 70.6517V70.1748C126.257 69.4254 125.609 69.3913 124.996 69.3913C124.348 69.3913 123.803 69.5276 123.428 69.6638L123.598 68.7781C123.973 68.6419 124.621 68.5056 125.269 68.5056C126.632 68.5056 127.28 68.9144 127.28 70.4473V72.9001C127.28 73.1044 127.348 73.1726 127.552 73.1726C127.655 73.1726 127.723 73.1726 127.825 73.1385L127.996 73.7517Z" fill="#066058"/>
<path d="M130.518 73.7517C130.313 73.8539 130.041 73.922 129.666 73.922C129.495 73.922 128.779 73.8879 128.779 73.1385V66.4276H129.836V72.9C129.836 73.0704 129.904 73.1726 130.075 73.1726C130.143 73.1726 130.245 73.1726 130.347 73.1385L130.518 73.7517Z" fill="#066058"/>
<path d="M135.938 67.8584L134.847 71.1968H136.96L135.938 67.8584ZM137.846 73.8198L137.301 72.1165H134.574L134.029 73.8198H132.836L135.358 66.3936H136.585L139.108 73.8198H137.846Z" fill="#066058"/>
<path d="M143.914 73.8198V69.3913H143.062L143.232 68.5396H143.914V67.7902C143.914 66.8704 144.084 66.0869 145.38 66.0869C145.789 66.0869 146.13 66.121 146.47 66.2572L146.266 67.1429C146.027 67.0748 145.755 67.0067 145.55 67.0067C145.073 67.0067 144.937 67.1089 144.937 67.6539V68.5396H146.096V69.3913H144.937V73.8198H143.914ZM140.267 73.8198V69.3913H139.415L139.585 68.5396H140.267V67.7902C140.267 66.8704 140.437 66.0869 141.732 66.0869C142.141 66.0869 142.482 66.121 142.823 66.2572L142.619 67.1429C142.38 67.0748 142.107 67.0067 141.903 67.0067C141.426 67.0067 141.289 67.1089 141.289 67.6539V68.5396H142.448V69.3913H141.289V73.8198H140.267Z" fill="#066058"/>
<path d="M150.05 71.3671C149.879 71.3671 149.504 71.333 149.3 71.333C148.447 71.333 147.97 71.5715 147.97 72.2869C147.97 73.0363 148.652 73.0704 148.925 73.0704C149.572 73.0704 150.084 72.5935 150.084 71.9122L150.05 71.3671ZM151.754 73.7517C151.481 73.888 151.277 73.922 150.902 73.922C150.118 73.922 150.015 73.377 150.015 73.1726C149.845 73.4792 149.504 73.922 148.482 73.922C147.323 73.922 146.811 73.3429 146.811 72.3891C146.811 70.9924 147.936 70.5836 149.163 70.5836C149.436 70.5836 149.879 70.6177 150.015 70.6517V70.1748C150.015 69.4254 149.368 69.3913 148.754 69.3913C148.107 69.3913 147.561 69.5276 147.186 69.6638L147.357 68.7781C147.732 68.6419 148.379 68.5056 149.027 68.5056C150.39 68.5056 151.038 68.9144 151.038 70.4473V72.9001C151.038 73.1044 151.106 73.1726 151.311 73.1726C151.413 73.1726 151.481 73.1726 151.583 73.1385L151.754 73.7517Z" fill="#066058"/>
<path d="M154.276 73.7516C154.072 73.8538 153.799 73.9219 153.39 73.9219C153.219 73.9219 152.538 73.8879 152.538 73.1384V68.5737H153.594V72.9C153.594 73.0703 153.663 73.1725 153.833 73.1725C153.901 73.1725 154.003 73.1725 154.106 73.1384L154.276 73.7516ZM153.083 67.5176C152.742 67.5176 152.401 67.2111 152.401 66.8704C152.401 66.4957 152.742 66.1891 153.083 66.1891C153.458 66.1891 153.765 66.4957 153.765 66.8704C153.765 67.2451 153.492 67.5176 153.083 67.5176Z" fill="#066058"/>
<path d="M155.094 73.8198V68.5738H156.151V69.2551C156.355 68.7781 156.764 68.4716 157.139 68.4716C157.548 68.4716 157.855 68.6078 158.128 68.7441L157.923 69.6298C157.651 69.5276 157.378 69.4595 157.037 69.4595C156.56 69.4595 156.253 69.9364 156.117 70.1748V73.8539L155.094 73.8198Z" fill="#066058"/>
<path d="M159.048 72.7638C159.321 72.9001 159.969 73.0704 160.446 73.0704C161.196 73.0704 161.707 72.9001 161.707 72.321C161.707 71.3671 158.98 71.6056 158.98 69.9364C158.98 68.7781 160.071 68.4716 161.059 68.4716C161.707 68.4716 162.184 68.5738 162.559 68.7441L162.389 69.5957C161.98 69.3913 161.503 69.3232 161.093 69.3232C160.378 69.3232 160.037 69.4935 160.037 69.8682C160.037 70.7199 162.764 70.4814 162.764 72.321C162.764 73.3089 161.843 73.922 160.65 73.922C159.832 73.922 159.287 73.8198 158.844 73.6836L159.048 72.7638Z" fill="#066058"/>
<path d="M231.687 75.9999C208.883 75.9999 190.34 57.4683 190.34 34.6785L190.647 28.9556H197.123V20.3029H197.839V18.9062H200.941L201.827 20.4051H203.429V31.4423H204.724V32.9753H205.202V24.1183H210.417V26.4006H212.155V30.6588H215.053V26.5369H218.939L220.336 28.3083V33.0093H228.312V34.2016H219.143V28.7171L218.359 27.7292H216.246V33.2819H214.644V31.8511H210.962V27.5929H209.224V25.3106H206.395V34.2016H203.531V32.6346H202.236V21.5974H201.145L200.259 20.0985H199.032V21.4952H198.316V30.1478H191.806L191.567 34.6785C191.567 56.753 209.565 74.7395 231.687 74.7395C253.775 74.7395 271.739 56.8211 271.807 34.8148H267.717V27.7633H265.296V24.1523H262.467V22.6194H259.024V23.7095L258.343 24.493V31.0335H254.832V26.1622L253.946 25.1743H252.003V23.5391H249.787V34.2016H246.208V30.25H243.038V34.2016H234.618V33.0093H241.845V29.0578H247.367V33.0093H248.56V22.3469H253.162V23.982H254.457L255.991 25.7193V29.8413H257.116V24.0501L257.797 23.2666V21.4271H263.66V22.9941H266.489V26.605H268.91V33.6566H273V34.7126C273 57.5024 254.457 75.9999 231.687 75.9999Z" fill="#066058"/>
<path d="M216.041 59.4101C215.7 59.4101 215.36 59.5123 215.053 59.6826C214.201 60.2958 213.894 61.4541 214.439 62.3738C214.644 62.8167 215.087 63.0892 215.734 63.2595C215.905 63.2595 216.109 63.2936 216.348 63.2936C218.905 63.2936 221.086 61.7266 222.961 60.2618L223.302 59.9892L223.54 60.364C224.392 61.7947 225.858 62.8167 227.426 63.1233C227.528 63.1233 227.631 63.1233 227.767 63.1233C228.892 63.1233 230.119 62.5782 230.358 61.42C230.494 60.5683 229.983 59.6486 229.165 59.2398C228.653 59.0354 228.04 59.0695 227.188 59.4101C226.983 59.4783 226.915 59.7508 226.813 60.1255C226.71 60.5343 226.574 61.1134 225.96 61.1134C225.517 61.1134 224.802 60.7387 224.529 60.2277C224.392 59.9552 224.392 59.6486 224.563 59.4101C225.858 57.4684 227.528 56.1058 229.165 54.7772C229.914 54.164 230.699 53.5509 231.414 52.8696L231.687 52.6311L231.96 52.8696C232.676 53.5168 233.425 54.13 234.175 54.7432C235.914 56.1058 237.686 57.5025 238.811 59.6145C238.879 59.7167 238.947 59.887 238.845 60.1255C238.675 60.5343 237.993 61.1134 237.448 61.1475C237.141 61.2156 236.936 61.1134 236.834 61.0112C236.63 60.8068 236.664 60.5683 236.664 60.3299C236.664 60.1596 236.664 59.9892 236.63 59.9211C236.391 59.4101 235.88 59.3079 235.334 59.1717C234.346 58.9332 233.289 59.6826 233.05 60.7387C232.948 61.2156 233.016 61.6925 233.289 62.1013C233.834 62.8167 234.584 63.1914 235.437 63.1914C237.141 63.1914 238.982 61.7606 239.868 60.398L240.106 60.0233L240.447 60.2958C242.152 61.6584 244.367 63.2255 246.617 63.2255C247.231 63.2255 247.81 63.1233 248.355 62.8848C248.764 62.7145 249.071 62.3398 249.208 61.8628C249.344 61.3519 249.276 60.8068 248.969 60.398C248.594 59.853 247.98 59.5123 247.299 59.5123C246.617 59.5123 245.969 59.853 245.628 60.364L245.458 60.6365L245.151 60.5343C243.992 60.0914 242.561 59.4442 241.845 58.1838C241.572 57.775 241.708 57.1277 241.913 56.6849C242.152 56.2761 242.39 56.1739 242.595 56.1739C242.663 56.1739 242.765 56.208 242.833 56.242C243.379 56.5827 243.958 56.7871 244.504 56.7871C245.492 56.7871 246.208 56.208 246.447 55.2882C246.549 54.8113 246.447 54.3003 246.14 53.8915C245.833 53.4487 245.39 53.1421 244.879 53.0058C244.81 53.0058 244.674 52.9718 244.572 52.9718C243.686 52.9718 242.799 53.4146 242.22 54.0959C241.845 54.5388 241.674 55.0838 241.504 55.6629C241.334 56.1739 241.163 56.6849 240.856 57.1618L240.584 57.5365L233.391 50.8256L233.698 50.519C241.436 43.0928 251.764 40.4697 260.252 39.6862C259.161 39.584 258.07 39.55 256.979 39.55C247.605 39.55 238.743 42.7862 232.062 48.6114L231.823 48.8158L231.551 48.6114C228.04 46.0224 223.336 42.8543 217.95 41.2532C212.905 39.7884 207.86 39.2093 203.02 39.6181C211.508 40.3675 221.87 42.9906 229.608 50.4509L229.915 50.7575L222.79 57.3662L222.518 56.9915C222.211 56.5146 222.04 56.0036 221.87 55.4926C221.7 54.9135 221.529 54.3684 221.154 53.9256C220.643 53.4146 220.098 53.108 219.348 52.8014C218.189 52.563 217.166 53.2102 216.927 54.3684C216.791 55.2201 217.302 56.1398 218.121 56.5486C218.223 56.5827 218.393 56.6168 218.598 56.6168C219.143 56.6168 219.654 56.4124 220.166 56.1739L220.404 56.0717C220.507 56.0376 220.575 56.0376 220.643 56.0376C220.95 56.0376 221.256 56.242 221.461 56.6168C221.666 57.0255 221.768 57.6387 221.495 58.0475C220.813 59.2739 219.382 59.9211 218.223 60.364L217.95 60.4662L217.78 60.2277C217.337 59.7508 216.689 59.4101 216.041 59.4101ZM216.314 64.0771C216.075 64.0771 215.837 64.0771 215.564 64.043C214.644 63.8046 214.03 63.3958 213.689 62.7485C212.973 61.4881 213.348 59.887 214.576 59.0013C215.803 58.286 217.302 58.6266 218.189 59.6145C219.177 59.2398 220.268 58.6607 220.813 57.7409C220.847 57.6728 220.882 57.5365 220.813 57.2981C220.745 57.0937 220.677 56.9915 220.609 56.9233L220.438 56.9915C219.893 57.2299 219.245 57.4684 218.564 57.4684C218.291 57.4684 218.052 57.4343 217.78 57.3321C216.621 56.753 215.939 55.4926 216.109 54.2662C216.416 52.9036 217.507 52.0179 218.836 52.0179C219.075 52.0179 219.279 52.052 219.518 52.0861L219.586 52.1201C220.438 52.4608 221.086 52.8014 221.734 53.4487C222.245 54.0278 222.45 54.675 222.62 55.3223C222.722 55.6289 222.824 55.9014 222.927 56.1739L228.721 50.7916C219.893 42.5137 207.656 40.5038 198.896 40.2313L195.282 40.1291L198.827 39.4478C204.997 38.2555 211.576 38.6302 218.155 40.5379C223.574 42.1049 228.244 45.2389 231.755 47.8279C238.538 41.9686 247.469 38.7665 256.945 38.7665C259.468 38.7665 261.956 39.0049 264.41 39.4478L268.057 40.1291L264.376 40.2313C255.616 40.4697 243.379 42.5137 234.55 50.7916L240.345 56.1739C240.447 55.9014 240.55 55.5948 240.652 55.3223C240.856 54.7091 241.061 54.0618 241.538 53.4827C242.356 52.4948 243.754 51.9157 244.981 52.1201C245.731 52.2904 246.344 52.7333 246.753 53.3465C247.196 53.9937 247.333 54.7091 247.162 55.3904C246.821 56.6849 245.799 57.5025 244.47 57.5025C243.856 57.5025 243.208 57.3321 242.595 56.9915C242.492 57.1959 242.39 57.5706 242.492 57.7068C243.038 58.6607 244.129 59.2398 245.117 59.6145C245.628 59.0013 246.412 58.6607 247.265 58.6607C248.219 58.6607 249.105 59.1035 249.617 59.887C250.06 60.5002 250.196 61.2837 249.957 62.0332C249.753 62.7485 249.276 63.2936 248.662 63.5661C248.015 63.8386 247.333 63.9749 246.617 63.9749C244.265 63.9749 242.015 62.5101 240.277 61.1475C239.186 62.5782 237.277 63.9408 235.437 63.9408C234.346 63.9408 233.357 63.4298 232.641 62.5101C232.232 61.8969 232.096 61.1475 232.266 60.4662C232.573 59.2057 233.732 58.2519 234.959 58.2519C235.164 58.2519 235.334 58.286 235.539 58.32C236.186 58.4904 236.936 58.6607 237.345 59.4442C237.516 59.6826 237.516 60.0233 237.516 60.2958C237.686 60.2618 237.993 59.9892 238.129 59.853C237.107 57.9794 235.471 56.6849 233.766 55.3563C233.085 54.8454 232.403 54.3003 231.755 53.7212C231.108 54.3344 230.392 54.8794 229.744 55.4245C228.074 56.7871 226.54 58.0475 225.313 59.887C225.347 60.0233 225.79 60.3299 226.029 60.3299C226.063 60.2618 226.131 60.0574 226.165 59.9211C226.267 59.4783 226.438 58.8991 227.017 58.6607C228.074 58.2519 228.858 58.2178 229.642 58.5244C230.767 59.1035 231.448 60.364 231.278 61.5562C230.903 63.3958 228.994 64.0771 227.426 63.9068C225.756 63.6002 224.188 62.5782 223.199 61.1475C221.188 62.6123 218.939 64.0771 216.314 64.0771Z" fill="#066058"/>
<path d="M246.719 10.8328L247.708 11.5822L246.992 10.5603C242.356 3.95158 237.175 3.74719 235.539 3.88345C235.88 3.5428 236.459 2.99775 237.277 2.69116L237.857 2.48677L237.277 2.31644C236.05 1.97579 234.312 1.70326 232.812 2.92962C232.573 1.6692 232.028 0.340647 231.653 0.102189C231.551 0.0340576 231.448 0.0340576 231.414 0.0340576C231.005 0.136254 230.324 1.19228 229.983 2.92962C228.926 2.07798 227.119 1.70326 225.62 2.4527L225.176 2.6571L225.654 2.82742C225.654 2.82742 226.642 3.16808 227.222 4.01971C220.473 4.19004 218.018 7.49439 216.041 10.1515C215.905 10.3559 215.769 10.5262 215.598 10.7306L215.905 11.0031C218.666 8.44822 222.927 7.56252 224.972 8.10757C222.518 9.09546 217.78 11.991 216.178 20.0986L215.973 21.1546L216.553 20.2349C219.245 15.9767 221.904 13.3877 225.006 11.957C222.995 15.0229 220.2 20.3371 221.291 25.1062L221.495 25.9919L221.7 25.1062C222.722 20.4052 225.483 16.4877 227.324 14.7163C225.858 19.9283 226.438 24.97 227.188 27.0139L227.528 27.8996L227.597 26.9458C227.869 22.6194 229.062 17.9865 229.949 15.7382L230.562 20.0305L230.187 20.1327L230.46 26.026H229.983L230.426 32.0896L229.88 32.2259L229.915 32.3962C229.915 32.4303 230.289 36.2116 230.426 38.3236C229.71 38.6983 228.994 39.4137 228.79 39.6522V40.061H234.073V39.6862L234.107 39.6522C233.562 39.0049 232.812 38.5621 232.505 38.3917L233.085 32.0556L232.505 32.0896L232.914 25.8897L232.505 25.9579L232.778 20.0645H232.335C232.437 19.5536 232.641 18.1228 232.846 15.7042C234.005 17.6459 234.993 21.6997 235.505 26.7754L235.675 28.2743L235.914 26.7754C236.902 20.6436 235.948 15.9426 235.539 14.3075C237.107 15.8404 240.243 21.2228 241.299 25.0722L241.606 26.2304L241.709 25.0381C242.083 19.8942 240.925 16.0107 237.652 11.7866C238.982 12.1614 240.618 13.2855 242.322 14.9888C243.924 16.5899 245.492 18.5997 246.31 20.1667L246.787 21.0865L246.685 20.0645C246.038 13.7965 241.334 9.36799 237.993 8.00537C240.925 7.42626 245.356 9.81084 246.719 10.8328Z" fill="#066058"/>
</g>
<defs>
<clipPath id="clip0_1039_12471">
<rect width="273" height="76" fill="white"/>
</clipPath>
</defs>
</svg>
