<?xml version="1.0" encoding="UTF-8"?>
<svg width="30px" height="31px" viewBox="0 0 30 31" version="1.1" xmlns="http://www.w3.org/2000/svg" xmlns:xlink="http://www.w3.org/1999/xlink">
    <title>icon/30/info/price</title>
    <g id="Patterns-EN-&amp;-AR" stroke="none" stroke-width="1" fill="none" fill-rule="evenodd">
        <g id="S03.03-Web-EN-Service-card---steps" transform="translate(-989.000000, -491.000000)" fill="#066058" fill-rule="nonzero" stroke="#066058" stroke-width="0.3">
            <g id="Group-17" transform="translate(949.000000, 201.000000)">
                <g id="Group-15" transform="translate(40.000000, 40.000000)">
                    <g id="Group-8" transform="translate(0.000000, 249.000000)">
                        <g id="icon/30/info/price" transform="translate(0.000000, 1.000000)">
                            <g id="riyal" transform="translate(0.460403, 0.469873)">
                                <path d="M28.6201117,21.1749818 L28.6201117,21.1749818 C28.6201117,22.2944629 28.2469513,23.2988488 27.5006305,24.1881394 L27.5006305,24.1881394 C27.1164552,24.6271648 25.9145866,25.4448581 23.8950245,26.6412194 L23.8950245,26.6412194 C21.7765525,27.8816404 20.1903961,28.6719088 19.1365552,29.0120242 L19.1365552,29.0120242 C19.1037351,29.0230391 17.6823537,29.2590743 14.8724111,29.7201297 L14.8724111,29.7201297 C13.741915,29.9067099 13.0723618,30 12.8637516,30 L12.8637516,30 C12.7758567,30 12.7319091,29.9889851 12.7319091,29.9669552 L12.7319091,29.9669552 C12.7319091,29.8900751 13.3740372,29.6102048 14.6582935,29.1273443 L14.6582935,29.1273443 C16.9195105,28.2931285 18.7196721,27.5687253 20.0587784,26.9541346 L20.0587784,26.9541346 C21.9686403,26.0868739 23.796227,25.109913 25.5415385,24.023252 L25.5415385,24.023252 C27.1879401,23.002456 28.011141,22.3603279 28.011141,22.0968678 L28.011141,22.0968678 C28.011141,22.0420176 27.6488832,21.2901894 26.9243675,19.841383 L26.9243675,19.841383 C26.5291772,19.0620172 26.2493069,18.3595315 26.0847566,17.733926 L26.0847566,17.733926 C25.9750565,17.6790759 25.9202065,17.6021958 25.9202065,17.5032859 L25.9202065,17.5032859 C25.9202065,17.3825707 25.9640416,17.0862904 26.0517118,16.6144448 L26.0517118,16.6144448 C26.1506218,16.0875244 26.2330092,15.8240641 26.2988742,15.8240641 L26.2988742,15.8240641 C26.3316944,15.8240641 26.5237821,16.0161519 26.8751373,16.4003272 L26.8751373,16.4003272 C27.7311582,17.3442431 28.1262361,17.8491336 28.0603711,17.9149986 L28.0603711,17.9149986 C28.0055211,17.9698487 27.7311582,17.8875737 27.2372828,17.6681733 L27.2372828,17.6681733 C27.2701029,17.8437386 27.5225481,18.3705465 27.9946185,19.2485974 L27.9946185,19.2485974 C28.411614,20.0279632 28.6201117,20.6700912 28.6201117,21.1749818 Z" id="f2_155"></path>
                                <path d="M22.973421,18.2097772 C22.973421,19.087828 22.6989459,19.7794112 22.1499955,20.2841893 C21.7109701,20.690507 21.2335045,20.8934972 20.7175991,20.8934972 C20.563839,20.8934972 20.4869591,20.7397371 20.4869591,20.4325542 C20.4869591,19.6421735 20.6956815,19.2469833 21.1127895,19.2469833 C21.3872647,19.2469833 21.6563447,19.1812306 21.9196925,19.0493881 C22.1830405,18.9175455 22.3145458,18.7749129 22.3145458,18.62149 C22.3145458,18.4238949 22.1830405,18.1194094 21.9196925,17.7076967 C21.6563447,17.2959839 21.5245022,17.0902961 21.5245022,17.0902961 C21.5245022,17.013416 21.5821622,16.7116282 21.6971451,16.1845953 C21.8124652,15.6578997 21.8812526,15.3945519 21.9031702,15.3945519 C22.0019677,15.3945519 22.1938306,15.6909446 22.4794331,16.2833929 C22.8088709,16.9641858 22.973421,17.6062016 22.973421,18.2097772 Z M22.4981636,23.1900563 L21.6747379,24.6720201 L19.9955162,23.6840443 L19.3039331,24.9188454 L17.5916664,23.9146842 L18.4147549,22.4327205 L20.0943138,23.4206963 L20.7858969,22.1858952 L22.4981636,23.1900563 Z" id="path_ecc6832c-40b2-4495-b756-438b4260d30e"></path>
                                <path d="M21.1293856,19.2635057 C21.2608909,19.2635057 21.3266436,19.4061383 21.3266436,19.691741 C21.3266436,20.4817844 21.1236534,20.8769748 20.7176729,20.8769748 C19.9384196,20.8769748 19.340239,20.3829869 18.9231311,19.3953482 C18.5060232,18.4073724 18.193108,16.9254086 17.9843855,14.9497941 C17.2928024,7.9580948 16.4970266,3.55098073 15.5970582,1.72878912 C15.5751406,1.68495401 15.6493231,1.38586372 15.8192685,0.831518231 C15.989551,0.277172744 16.085651,0 16.1075686,0 C16.1514037,0 16.2832462,0.274475199 16.5027589,0.823425596 C16.7553165,1.47117358 16.9583067,2.10779419 17.1117296,2.73328742 C17.5618824,4.59897695 17.9459454,6.80523152 18.2642558,9.35205115 C18.4837684,11.2177406 18.7090135,13.0837674 18.9393163,14.9497941 C19.158829,16.5632632 19.4279092,17.6719542 19.7462195,18.2755299 C20.0645298,18.934068 20.5254728,19.2635057 21.1293856,19.2635057" id="path_1622554124479"></path>
                                <path d="M15.0320693,20.5537541 L15.0320693,20.5537541 C15.0979343,22.2219608 14.7824339,23.4814895 14.0855681,24.3323401 C13.3884775,25.1829661 12.0739863,26.184542 10.1420946,27.3370681 L10.1420946,27.3370681 C7.78219242,28.7310244 5.78454795,29.4280026 4.14916133,29.4280026 L4.14916133,29.4280026 C1.78925909,29.4280026 0.428235261,28.1547614 0.0660898513,25.6082789 L0.0660898513,25.6082789 C0.0220299504,25.3227887 0,25.053821 0,24.8013759 L0,24.8013759 C0,23.4512546 0.268967711,22.1725058 0.806903133,20.9651297 L0.806903133,20.9651297 C0.982468351,20.6029842 1.13060853,20.4219116 1.25132366,20.4219116 L1.25132366,20.4219116 C1.29538356,20.4219116 1.31741352,20.465859 1.31741352,20.5537541 L1.31741352,20.5537541 C1.31741352,20.6634543 1.28448099,20.833512 1.21861593,21.0639273 L1.21861593,21.0639273 C0.900305627,21.9640081 0.741150475,22.8201415 0.741150475,23.6323272 L0.741150475,23.6323272 C0.741150475,26.2997496 2.11318928,27.6334607 4.85726688,27.6334607 L4.85726688,27.6334607 C6.25122323,27.6334607 8.15007008,26.9364826 10.5538074,25.5425262 L10.5538074,25.5425262 C12.7381445,24.2910903 13.9291105,23.4074195 14.1267058,22.891514 L14.1267058,22.891514 C14.1925708,22.6610987 14.2144883,22.3647059 14.1924584,22.0023357 L14.1924584,22.0023357 C14.1265933,20.7290945 13.7094855,17.9411819 12.9411347,13.6385977 L12.9411347,13.6385977 C12.2496641,9.57721888 11.9039286,7.19528669 11.9039286,6.49280103 L11.9039286,6.49280103 C11.6953186,6.33926576 11.6130434,6.21855062 11.6571033,6.13065562 L11.6571033,6.13065562 C11.7557885,5.87821037 11.9039286,5.51606496 12.1015238,5.04421939 L12.1015238,5.04421939 C12.255284,4.70387913 12.359589,4.533709 12.4144391,4.533709 L12.4144391,4.533709 C12.4582742,4.533709 12.7820919,5.2691272 13.3858924,6.73996358 L13.3858924,6.73996358 C13.6601428,7.36556921 13.8850507,7.93632477 14.0606158,8.45223024 L14.0606158,8.45223024 C14.0388107,8.49606534 14.0168932,8.5619304 13.9948631,8.64982541 L13.9948631,8.64982541 C13.9289981,8.64982541 13.8137905,8.5620428 13.6492402,8.38647758 L13.6492402,8.38647758 C13.4954802,8.23271752 13.2923775,8.01859989 13.0399323,7.74412469 L13.0399323,7.74412469 C13.676553,11.2017029 14.3405986,15.4715794 15.0320693,20.5537541 Z" id="f2_195"></path>
                            </g>
                        </g>
                    </g>
                </g>
            </g>
        </g>
    </g>
</svg>