<svg width="67" height="57" xmlns="http://www.w3.org/2000/svg"><g fill="#3CA078" fill-rule="evenodd"><rect fill-opacity=".2" x="22" y="3" width="40" height="40" rx="20"/><g fill-rule="nonzero"><path d="M30.543 11H6.207A6.214 6.214 0 000 17.207v14.164a6.214 6.214 0 006.207 6.207h.27v3.778a.82.82 0 001.4.58l4.357-4.358h3.068a.82.82 0 000-1.64h-3.407a.82.82 0 00-.58.24l-3.198 3.197v-2.617a.82.82 0 00-.82-.82h-1.09a4.572 4.572 0 01-4.566-4.567V17.207a4.572 4.572 0 014.566-4.566h24.336a4.572 4.572 0 014.566 4.566v7.082a.82.82 0 001.641 0v-7.082A6.214 6.214 0 0030.543 11z"/><path d="M21.24 30.532a.82.82 0 00-.821.82v.009a.82.82 0 001.64 0v-.01a.82.82 0 00-.82-.82z"/><path d="M42 34.608a2.61 2.61 0 00-2.378-2.597c.123-.302.191-.632.191-.978v-.035a2.61 2.61 0 00-2.607-2.607H25.765a.82.82 0 00-.3.056l-1.342.527a.82.82 0 00-.819-.784H19.04a.82.82 0 00-.82.82v14.438c0 .453.367.82.82.82h4.265c.249 0 .47-.11.621-.285l7.215 8.72a.82.82 0 00.625.297h.007a.82.82 0 00.623-.287l.313-.365a5.075 5.075 0 00.729-5.466l-1.143-2.413h4.912a2.61 2.61 0 002.607-2.608v-.034c0-.346-.068-.676-.19-.978A2.61 2.61 0 0042 38.252v-.035c0-.691-.27-1.32-.712-1.787A2.596 2.596 0 0042 34.642v-.034zM22.484 41.85a.821.821 0 000 .178v.599h-2.625V29.83h2.625v12.02zm17.875-7.209a.968.968 0 01-.967.967h-5.478a.82.82 0 000 1.641h5.478c.534 0 .967.434.967.967v.035a.968.968 0 01-.967.967h-5.478a.82.82 0 000 1.64h3.292c.533 0 .967.434.967.968v.034a.968.968 0 01-.967.967h-6.209A.82.82 0 0030.256 44l1.698 3.584a3.433 3.433 0 01-.196 3.293l-7.633-9.227V30.735l1.795-.704h11.286c.533 0 .967.434.967.967v.035a.968.968 0 01-.967.967h-3.292a.82.82 0 000 1.64h5.478c.534 0 .967.434.967.968v.034zm-9.843-11.172H6.234a.82.82 0 000 1.64h24.282a.82.82 0 000-1.64zm-4.39-5.25H6.234a.82.82 0 000 1.64h19.892a.82.82 0 000-1.64zm4.97.241a.826.826 0 00-.58-.241.826.826 0 00-.58.24.827.827 0 00-.24.58.824.824 0 00.82.82.826.826 0 00.58-.24.826.826 0 00.24-.58.826.826 0 00-.24-.58zM15.302 28.719H6.234a.82.82 0 000 1.64h9.068a.82.82 0 000-1.64z"/></g></g></svg>