  <svg
                version="1.1"
                id="katman_1"
                xmlns="http://www.w3.org/2000/svg"
                xmlns:xlink="http://www.w3.org/1999/xlink"
                x="0px"
                y="0px"
                viewBox="0 0 841.9 595.3"
                style="enable-background: new 0 0 841.9 595.3; width: 50px"
                xml:space="preserve"
              >
                <style type="text/css">
                  .st0 {
                    fill: #ffffff;
                  }
                  .st1 {
                    clip-path: url(#SVGID_00000019644289923887962680000017917545480857559221_);
                  }
                </style>
                <g id="logo" transform="translate(0)">
                  <path
                    id="Fill_1"
                    class="st0"
                    d="M478.4,114.6h8.1v-8.1h-8.1V114.6z"
                  />
                  <path
                    id="Fill_1-2"
                    class="st0"
                    d="M490.5,114.6h8.1v-8.1h-8.1V114.6z"
                  />
                  <path
                    id="Fill_2"
                    class="st0"
                    d="M619.9,195.6h8.1v-8.1h-8.1V195.6z"
                  />
                  <path
                    id="Fill_2-2"
                    class="st0"
                    d="M603.7,195.6h8.1v-8.1h-8.1V195.6z"
                  />
                  <g id="Group_153">
                    <path
                      id="Fill_3"
                      class="st0"
                      d="M699.6,179.9c1.6-0.7,3-1.9,4-3.4c1.1-1.6,1.8-3.5,2.2-5.4c0.5-2.4,0.7-4.8,0.6-7.2v-47.3h-6.8
                  V164c0,1.6-0.1,3.2-0.3,4.8c-0.2,1.1-0.5,2.2-1,3.2c-0.5,0.8-1.1,1.4-1.9,1.8c-1,0.4-2.1,0.6-3.2,0.6c-0.5,0-1.1,0-1.6-0.1
                  c-0.6-0.1-1.2-0.2-1.9-0.4l-1.8,6.5c1.8,0.5,3.7,0.7,5.6,0.7C695.6,181.2,697.7,180.8,699.6,179.9"
                    />
                    <g id="Group_7" transform="translate(233.334)">
                      <path
                        id="Clip_6-2"
                        class="st0"
                        d="M428,95.9h14.9v14H428V95.9z"
                      />
                      <g id="Group_821">
                        <g>
                          <g>
                            <rect
                              id="SVGID_1_"
                              x="428"
                              y="95.9"
                              class="st0"
                              width="14.9"
                              height="14"
                            />
                          </g>
                          <g>
                            <defs>
                              <rect
                                id="SVGID_00000123438355938418903550000015959514530887270825_"
                                x="428"
                                y="95.9"
                                width="14.9"
                                height="14"
                              />
                            </defs>
                            <use
                              xlink:href="#SVGID_00000123438355938418903550000015959514530887270825_"
                              style="overflow: visible; fill: #ffffff"
                            />
                            <clipPath
                              id="SVGID_00000042011069449238084800000001417625469987569815_"
                            >
                              <use
                                xlink:href="#SVGID_00000123438355938418903550000015959514530887270825_"
                                style="overflow: visible"
                              />
                            </clipPath>
                            <g
                              id="Group_7-2"
                              style="
                                clip-path: url(#SVGID_00000042011069449238084800000001417625469987569815_);
                              "
                            >
                              <path
                                id="Fill_5"
                                class="st0"
                                d="M443,104.6h-9.4v-1.5c0-0.7,0.1-1.4,0.6-2c0.6-0.5,1.4-0.7,2.1-0.6h4.7v-4.7h-4.8
                                      c-2.2-0.2-4.4,0.6-6,2c-1.5,1.8-2.3,4.2-2.1,6.5v5.6h14.9L443,104.6L443,104.6z"
                              />
                            </g>
                          </g>
                        </g>
                      </g>
                    </g>
                    <g id="Group_823" transform="translate(0 8.45)">
                      <g id="Group_822" transform="translate(0 0)">
                        <path
                          id="Fill_11"
                          class="st0"
                          d="M657.2,172.7c-2,0-4.1-0.2-6-0.7c-2.4-0.6-4.7-1.3-6.9-2.2l2.1-6.5c1.8,0.9,3.8,1.5,5.7,2
                          c1.8,0.4,3.8,0.6,5.6,0.6c3,0.2,6-0.6,8.6-2.2c2.2-1.9,3.3-4.7,3.1-7.6v-6.7l-2.3,4.8h-1.9c-3.6,0-7.3-0.4-10.8-1.3
                          c-3.2-0.8-6.2-2.2-9-4c-2.6-1.8-4.7-4.2-6.1-7c-2.9-6.2-3-13.3-0.2-19.5c1.4-2.8,3.4-5.3,5.8-7.3c2.6-2.2,5.6-3.8,8.9-4.8
                          c3.7-1.2,7.6-1.8,11.5-1.8h10.9v47.2c0.2,4.6-1.4,9.2-4.5,12.7C667.8,171.5,662.5,173.2,657.2,172.7z M662.3,115.1
                          c-2.3,0-4.5,0.4-6.7,1.2c-4.3,1.4-8,4.5-10.1,8.5c-1,2.1-1.6,4.4-1.6,6.7c-0.2,4.6,1.9,8.9,5.5,11.8c1.8,1.4,3.8,2.4,5.9,3.1
                          c2.3,0.7,4.7,1.1,7.2,1.1h6.9V117l3.9-1.9H662.3z"
                        />
                        <path
                          id="Fill_12"
                          class="st0"
                          d="M626,172H501.9c-2.1,0.1-4.3-0.3-6.2-1.2c-1.6-0.7-3-1.9-4-3.4c-0.1-0.2-0.2-0.4-0.3-0.6
                          l-0.1-0.2v5.1h-14.2c-8.6,0.1-16.8-3.3-22.8-9.4c-5.7-6-8.8-13.9-8.7-22.2V140c-0.1-8.3,3.1-16.3,8.8-22.3
                          c6-6.2,14.3-9.7,22.9-9.5h18.4v46.7c0,1.6,0.1,3.2,0.3,4.8c0.1,1.1,0.5,2.2,1,3.2c0.5,0.8,1.1,1.4,1.9,1.8
                          c1,0.4,2.1,0.6,3.2,0.6h117.1v-57.1h6.8L626,172L626,172L626,172z M477.1,114.7c-13.4,0-24.2,10.8-24.3,24.1v1.2
                          c-0.4,13.6,10.3,24.9,23.9,25.4h13.8c-0.5-1.1-0.8-2.2-1-3.4c-0.5-2.4-0.7-4.8-0.6-7.2v-38.1l4.2-2.1L477.1,114.7z"
                        />
                        <path
                          id="Fill_13"
                          class="st0"
                          d="M411.5,155l3,7.8l-43.3-54.7h-6.8v63.5h7v-47.9l-4-9.3l45.3,57.1h5.7v-63.4h-7L411.5,155
                          L411.5,155z"
                        />
                        <path
                          id="Fill_14"
                          class="st0"
                          d="M508.5,273.1l39.3-37.2v-25.6H442.9v29.1h53.8l20-12.7l-49.8,49.7l5.3,21.6h14.2
                          c19.1,0,30.4,7,30.4,19.6v0.4c0,11.5-9.1,18.7-21.9,18.7c-15.7,0-26.8-6.6-37.5-18.5l-23.5,22.3c15,17.7,37.3,27.6,60.5,26.7
                          c34.6,0,55.9-21.4,55.9-50.5v-0.4C550.3,287.6,529.6,276.6,508.5,273.1"
                        />
                        <path
                          id="Fill_15"
                          class="st0"
                          d="M320,172.7c-8.9,0.2-17.4-3.4-23.5-9.8c-5.8-6.2-9-14.4-9-22.9v-0.2c-0.1-8.5,3.1-16.8,9-23
                          c6.2-6.4,14.7-9.9,23.6-9.8c8.9-0.2,17.4,3.4,23.5,9.8c5.8,6.2,9,14.4,9,22.9v0.2c0.1,8.5-3.1,16.8-9,23
                          C337.4,169.3,328.9,172.8,320,172.7z M320,113.7c-13.8,0-25,11.1-25.1,24.9v1.3c-0.4,14.1,10.6,25.8,24.7,26.2h0.6
                          c13.8,0,25-11.1,25.1-24.9v-1.3c0.4-14.1-10.6-25.8-24.7-26.2H320z"
                        />
                        <path
                          id="Fill_16"
                          class="st0"
                          d="M641.4,367.1c-22,0.3-43.2-8-59.1-23.2c-15-14.8-23.4-35-23.2-56.1v-0.5
                          c-0.1-21.1,8.3-41.4,23.4-56.3c33.3-31.2,85-31.3,118.4-0.2c15,14.8,23.4,35,23.2,56v0.4c0.1,21.1-8.3,41.4-23.4,56.3
                          C684.8,359,663.5,367.5,641.4,367.1z M641.4,239c-25.6-0.2-46.5,20.4-46.6,46c0,0.7,0,1.4,0,2v0.4c-0.7,26.1,19.9,47.8,46,48.4
                          c0,0,0,0,0.1,0h1c25.6,0.2,46.5-20.4,46.6-46c0-0.7,0-1.4,0-2v-0.5c0.7-26.1-19.9-47.8-46-48.4c0,0,0,0-0.1,0
                          C642,238.9,641.7,239,641.4,239L641.4,239z"
                        />
                        <path
                          id="Fill_17"
                          class="st0"
                          d="M267.8,171.7h7.3v-63.5h-7.3V171.7z"
                        />
                        <path
                          id="Fill_18"
                          class="st0"
                          d="M151.9,346.8l6.6-5.1l33.9-26c27.5-21.1,40.8-33.9,40.8-59.6v-0.4c0-28.9-21.3-47.6-53.4-47.6
                          c-27.7,0-42.6,11.2-57.9,31.9l23.9,19.2c11.5-14.1,19.8-20.7,31.8-20.7c12.2,0,20.9,7,20.9,20.1c0,12.7-7.6,21.1-26.8,37
                          l-51.7,42v26.8h114.8v-29.3h-59.2L151.9,346.8z"
                        />
                        <path
                          id="Fill_19"
                          class="st0"
                          d="M152.3,172.1l27.5-63.9h-7.7l-21.8,52.1l0.7,7l-1.8-4.4l-18.9-45.3l-4-9.4h-8l27.5,63.9
                          L152.3,172.1z"
                        />
                        <path
                          id="Fill_20"
                          class="st0"
                          d="M189.6,171.7h7.3v-63.5h-7.3V171.7z"
                        />
                        <path
                          id="Fill_21"
                          class="st0"
                          d="M235.1,136.4c-14.1-3-17.3-6.4-17.3-12.3v-0.2c0-5.7,5.3-10.2,13.6-10.2
                          c6.8,0,13.3,2.4,18.5,6.9l4.2-5.5c-6.3-5.3-14.3-8-22.5-7.8c-12.2,0-21,7.3-21,17.3v0.2c0,10.4,6.8,15.2,21.4,18.3
                          c13.5,2.8,16.6,6.2,16.6,12.1v0.2c0,6.3-5.6,10.8-14.3,10.8c-8.2,0.1-16.1-3.1-21.9-8.9l-4.4,5.2c7.1,6.6,16.4,10.2,26.1,10.2
                          c12.7,0,21.8-7.1,21.8-18v-0.2C255.9,144.7,249.4,139.5,235.1,136.4"
                        />
                        <path
                          id="Fill_22"
                          class="st0"
                          d="M150,445.4h4v-4h-4V445.4z"
                        />
                        <path
                          id="Fill_23"
                          class="st0"
                          d="M419.4,436.9h-44.2c-2.1,0-4.1-0.3-6.1-0.8c-1.8-0.5-3.5-1.3-5.1-2.3c-1.5-1.1-2.7-2.4-3.5-4
                          c-0.9-1.8-1.3-3.9-1.3-5.9c0-1.8,0.4-3.6,1.1-5.2c0.7-1.6,1.8-3.1,3.2-4.2c1.5-1.2,3.2-2.1,5.1-2.7c2.1-0.7,4.4-1,6.6-1h6.1
                          v22.4h15.5v-22.4h3.9v22.4h14.8v-22.4h3.9L419.4,436.9L419.4,436.9z M373.6,414.4c-1.3,0-2.6,0.2-3.9,0.6
                          c-1.2,0.4-2.4,1-3.4,1.9c-1,0.8-1.8,1.9-2.4,3c-0.6,1.2-0.9,2.5-0.9,3.8c0,1.3,0.2,2.7,0.8,3.9c0.5,1.1,1.3,2.1,2.2,2.9
                          c1,0.8,2.1,1.5,3.4,1.9c1.3,0.4,2.7,0.6,4.1,0.6h3.9v-18.5H373.6z"
                        />
                        <path
                          id="Fill_24"
                          class="st0"
                          d="M336,436.9h3.9v-34.7H336V436.9z"
                        />
                        <path
                          id="Fill_25"
                          class="st0"
                          d="M377.4,406.1h4v-4h-4V406.1z"
                        />
                        <path
                          id="Fill_26"
                          class="st0"
                          d="M415.4,445.4h4v-4h-4V445.4z"
                        />
                        <path
                          id="Fill_27"
                          class="st0"
                          d="M156.8,445.4h4v-4h-4V445.4z"
                        />
                        <path
                          id="Fill_28"
                          class="st0"
                          d="M205.4,447.5c-1.2,0-2.3-0.1-3.5-0.4c-1.3-0.3-2.7-0.7-4-1.2l1.2-3.7c1.1,0.5,2.2,0.9,3.3,1.1
                          c1.1,0.2,2.1,0.3,3.2,0.3c1.7,0.1,3.5-0.3,4.9-1.3c1.3-1.1,1.9-2.7,1.8-4.4v-1.1H210c-2.1,0-4.2-0.2-6.2-0.7
                          c-1.9-0.5-3.6-1.2-5.2-2.3c-1.5-1.1-2.7-2.4-3.6-4c-0.9-1.8-1.3-3.9-1.3-5.9c0-1.8,0.4-3.7,1.2-5.3c0.8-1.6,1.9-3.1,3.3-4.2
                          c1.5-1.2,3.2-2.2,5.1-2.8c2.1-0.7,4.4-1.1,6.6-1h6.3v22.4h13.5l-6.9-16.2c1.1-0.9,2.1-1.8,3.2-2.6c1.1-0.8,2.4-1.5,3.6-2.1
                          c1.2-0.6,2.5-1,3.8-1.4c2.5-0.6,5.1-0.6,7.6,0c1.3,0.3,2.6,0.8,3.8,1.4c1.2,0.6,2.4,1.3,3.6,2.1c1.2,0.8,2.3,1.6,3.3,2.6
                          l-6.9,16.2h20.5v-20h3.9v20h7.6c0.9,0,1.7-0.1,2.5-0.4c0.8-0.2,1.5-0.6,2.1-1.1c0.6-0.6,1.1-1.2,1.5-2c0.4-1,0.6-2,0.6-3.1
                          v-13.4h3.9v13.7c0,0.9,0.2,1.8,0.6,2.7c0.4,0.8,1,1.5,1.6,2.2c0.7,0.6,1.5,1.1,2.4,1.5c1,0.4,2.1,0.5,3.1,0.6c2,0.2,4-0.6,5.5-2
                          c1.3-1.5,1.9-3.4,1.8-5.3v-13.1h3.9v12.5c0,1.2-0.1,2.4-0.3,3.6c0.7,1.3,1.8,2.3,3.1,2.9c1.7,0.7,3.5,1,5.4,1h6.4v-30.9h3.9
                          v34.7h-11.3v-0.1c-1,0-1.9-0.1-2.8-0.3c-1-0.2-1.9-0.6-2.7-1c-0.7-0.4-1.3-0.9-1.9-1.5c-0.5-0.5-0.9-1-1.2-1.6
                          c-0.8,1.6-2.2,2.9-3.8,3.7c-1.9,0.9-3.9,1.3-6,1.2c-2,0.1-4-0.4-5.8-1.3c-1.6-0.8-2.9-2.1-3.9-3.6c-0.9,1.4-2.1,2.5-3.5,3.2
                          c-1.6,0.8-3.3,1.2-5.1,1.2h-60.5v0.7c0.1,2.7-0.8,5.3-2.6,7.3C211.4,446.9,208.4,447.8,205.4,447.5L205.4,447.5z M237.3,414.5
                          c-1.7,0-3.3,0.3-4.9,0.9c-1.7,0.7-3.2,1.6-4.6,2.8l6.1,14.8h6.9l6.1-14.8c-1.3-1.1-2.8-2-4.4-2.6
                          C240.9,414.9,239.1,414.5,237.3,414.5L237.3,414.5L237.3,414.5z M208.4,414.5c-1.3,0-2.7,0.2-4,0.6c-1.2,0.4-2.4,1.1-3.4,1.9
                          c-1,0.8-1.8,1.9-2.4,3c-1.2,2.4-1.2,5.2-0.1,7.7c0.5,1.1,1.3,2.1,2.2,2.8c1,0.8,2.2,1.4,3.4,1.8c1.3,0.4,2.7,0.6,4.1,0.6h3.9
                          v-18.4L208.4,414.5z"
                        />
                        <path
                          id="Fill_29"
                          class="st0"
                          d="M136.7,406.1h4v-4h-4V406.1z"
                        />
                        <path
                          id="Fill_30"
                          class="st0"
                          d="M530.9,406.1h4v-4h-4V406.1z"
                        />
                        <path
                          id="Fill_31"
                          class="st0"
                          d="M496.4,436.9h3.9v-34.7h-3.9V436.9z"
                        />
                        <path
                          id="Fill_32"
                          class="st0"
                          d="M370.5,406.1h4v-4h-4V406.1z"
                        />
                        <path
                          id="Fill_33"
                          class="st0"
                          d="M187.7,421.6c0-1.5-0.2-2.9-0.6-4.3c-0.4-1.2-1-2.4-1.9-3.4c-1-1.1-2.2-1.9-3.5-2.6
                          c-1.5-0.6-3.1-0.9-4.7-0.8h-2.9v3.9h3.4c0.9,0,1.8,0.2,2.7,0.6c0.8,0.4,1.5,0.9,2.1,1.6c0.6,0.6,1,1.4,1.1,2.2
                          c0.2,1,0.3,1.9,0.3,2.9V433h-18.2v3.9h22.2L187.7,421.6L187.7,421.6z"
                        />
                        <path
                          id="Fill_34"
                          class="st0"
                          d="M702.6,436.9h3.9v-34.7h-3.9V436.9z"
                        />
                        <path
                          id="Fill_35"
                          class="st0"
                          d="M537.8,406.1h4v-4h-4V406.1z"
                        />
                        <path
                          id="Fill_36"
                          class="st0"
                          d="M660.9,441.3c-2,0-3.9-0.4-5.6-1.2c-1.7-0.8-3.2-1.9-4.5-3.2h-17.2c-1.3,1.4-2.9,2.5-4.7,3.2
                          c-1.8,0.8-3.8,1.2-5.8,1.1c-2,0-3.9-0.4-5.6-1.2c-1.7-0.8-3.2-1.9-4.5-3.2h-77.3c-2.1,0-4.1-0.3-6.1-0.8
                          c-1.8-0.5-3.5-1.3-5.1-2.3c-1.5-1.1-2.7-2.4-3.5-4c-0.9-1.8-1.3-3.9-1.3-5.9c0-1.8,0.4-3.6,1.1-5.2c0.7-1.6,1.8-3.1,3.2-4.2
                          c1.5-1.2,3.2-2.1,5.1-2.7c2.1-0.7,4.4-1,6.6-1h6.1V433h36v-5.9c0-1-0.1-1.9-0.3-2.8c-0.2-0.8-0.6-1.6-1.1-2.2
                          c-0.6-0.7-1.3-1.2-2.2-1.5c-1-0.4-2.1-0.6-3.2-0.6h-19.8c-0.5-0.5-0.9-1.1-1.1-1.8c-0.3-0.7-0.5-1.4-0.6-2.2l7.5-13.9h4.3
                          l-7.3,13.9h17.2c1.7,0,3.3,0.2,4.8,0.8c1.3,0.6,2.5,1.4,3.4,2.5c0.9,1,1.5,2.1,1.9,3.4c0.4,1.4,0.6,2.8,0.6,4.3v6h12.4v-30.9
                          h3.9V433h12.4c-0.3-0.9-0.6-1.8-0.9-2.7c-0.2-1-0.3-2-0.3-3c-0.1-7.7,6.1-14,13.8-14.1c0,0,0.1,0,0.1,0c1.9,0,3.8,0.3,5.6,1
                          c1.7,0.7,3.2,1.7,4.5,3c1.3,1.3,2.3,2.8,3,4.4c0.7,1.8,1.1,3.6,1.1,5.6c0,2-0.4,3.9-1.2,5.7h12.1c-0.3-0.9-0.6-1.8-0.9-2.7
                          c-0.2-1-0.3-2-0.3-3c-0.1-7.7,6.1-14,13.8-14.1c0,0,0.1,0,0.1,0c1.9,0,3.8,0.3,5.6,1c1.7,0.7,3.2,1.7,4.5,3
                          c1.3,1.3,2.3,2.8,3,4.4c0.7,1.8,1.1,3.6,1.1,5.6c0,2-0.4,3.9-1.2,5.7h13.3v-30.9h3.9v34.7h-19.8c-1.3,1.4-2.9,2.5-4.7,3.2
                          C665,440.9,663,441.3,660.9,441.3L660.9,441.3z M660.9,417c-1.4,0-2.8,0.3-4,0.8c-1.2,0.5-2.3,1.2-3.2,2.2
                          c-0.9,0.9-1.6,2-2.1,3.2c-0.5,1.3-0.7,2.6-0.7,4c0,2.7,1,5.2,2.8,7.2c0.9,0.9,2,1.6,3.2,2.2c1.2,0.5,2.6,0.8,4,0.8
                          c1.4,0,2.7-0.2,4-0.7c2.5-1,4.4-2.9,5.5-5.3c0.5-1.3,0.8-2.6,0.8-4c0-1.4-0.3-2.8-0.8-4.1c-0.5-1.2-1.2-2.3-2.2-3.2
                          c-0.9-0.9-2-1.6-3.2-2.1C663.7,417.3,662.3,417,660.9,417L660.9,417z M623.1,417c-2.7,0-5.3,1-7.2,3c-0.9,0.9-1.6,2-2.1,3.2
                          c-1,2.5-1,5.4,0,7.9c0.5,1.2,1.2,2.3,2.1,3.2c0.9,0.9,2,1.6,3.2,2.2c1.2,0.5,2.6,0.8,4,0.8c1.4,0,2.8-0.2,4.1-0.7
                          c3.8-1.5,6.3-5.2,6.3-9.4c0-1.4-0.3-2.8-0.8-4.1c-0.5-1.2-1.2-2.3-2.2-3.2c-0.9-0.9-2-1.6-3.2-2.1
                          C626,417.3,624.6,417,623.1,417L623.1,417z M534,414.4c-1.3,0-2.6,0.2-3.9,0.6c-1.2,0.4-2.4,1-3.4,1.9c-1,0.8-1.8,1.9-2.4,3
                          c-0.6,1.2-0.9,2.5-0.9,3.8c0,1.3,0.2,2.7,0.8,3.9c0.5,1.1,1.3,2.1,2.2,2.9c1,0.8,2.2,1.5,3.4,1.9c1.3,0.4,2.7,0.6,4.1,0.6h3.9
                          v-18.5H534z"
                        />
                        <path
                          id="Fill_37"
                          class="st0"
                          d="M160.1,436.8h-25.6c-2.1,0-4.1-0.3-6.1-0.8c-1.8-0.5-3.5-1.3-5.1-2.3c-1.5-1.1-2.7-2.4-3.6-4
                          c-0.9-1.8-1.3-3.9-1.3-5.9c0-1.8,0.4-3.6,1.1-5.2c0.7-1.6,1.8-3.1,3.2-4.2c1.5-1.2,3.2-2.1,5.1-2.7c2.1-0.7,4.4-1,6.6-1h6.1
                          v22.4h15.6v-22.4h3.9L160.1,436.8L160.1,436.8z M132.9,414.4c-1.3,0-2.6,0.2-3.9,0.6c-1.2,0.4-2.4,1-3.4,1.9
                          c-1,0.8-1.8,1.9-2.4,3c-0.6,1.2-0.9,2.5-0.9,3.8c0,1.3,0.2,2.7,0.8,3.9c0.5,1.1,1.3,2.1,2.2,2.9c1,0.8,2.2,1.5,3.4,1.9
                          c1.3,0.4,2.7,0.6,4.1,0.6h3.9v-18.5H132.9z"
                        />
                        <path
                          id="Fill_38"
                          class="st0"
                          d="M401.1,445.4h4v-4h-4V445.4z"
                        />
                        <path
                          id="Fill_39"
                          class="st0"
                          d="M394.3,445.4h4v-4h-4V445.4z"
                        />
                        <path
                          id="Fill_40"
                          class="st0"
                          d="M427.4,447.5c-1.1,0-2.1-0.1-3.1-0.4l1-3.7c0.3,0.1,0.7,0.2,1,0.2c0.3,0,0.6,0.1,0.9,0.1
                          c0.6,0,1.3-0.1,1.9-0.3c0.5-0.2,0.9-0.6,1.1-1c0.3-0.6,0.5-1.2,0.6-1.9c0.1-0.9,0.2-1.9,0.2-2.8v-27.1h3.9V433h14.5l-6.9-16.2
                          c1-0.9,2.1-1.8,3.2-2.6c1.1-0.8,2.4-1.5,3.6-2.1c1.2-0.6,2.5-1,3.8-1.4c1.2-0.3,2.5-0.5,3.8-0.5c1.3,0,2.5,0.2,3.8,0.5
                          c1.3,0.3,2.6,0.8,3.8,1.4c1.2,0.6,2.5,1.3,3.6,2.1c1.2,0.8,2.3,1.6,3.3,2.6l-6.9,16.2h16.6v-30.9h3.9v34.7h-50.2v0.8
                          c0,1.4-0.1,2.8-0.4,4.1c-0.2,1.1-0.6,2.1-1.2,3.1c-0.6,0.9-1.4,1.5-2.3,1.9C429.9,447.3,428.7,447.6,427.4,447.5L427.4,447.5z
                           M457,414.5c-1.7,0-3.3,0.3-4.9,0.9c-1.7,0.7-3.2,1.6-4.6,2.7l6.1,14.8h6.9l6.1-14.8c-1.3-1.1-2.8-2-4.4-2.6
                          C460.6,414.9,458.8,414.5,457,414.5L457,414.5z"
                        />
                        <path
                          id="Fill_41"
                          class="st0"
                          d="M129.8,406.1h4v-4h-4V406.1z"
                        />
                        <path
                          id="Fill_42"
                          class="st0"
                          d="M146.4,462.3h-6.1l-13.2,13.9v-13.9h-4.9V490h4.9v-8l4.4-4.4L141,490h6l-12.1-15.8
                          L146.4,462.3z"
                        />
                        <path
                          id="Fill_43"
                          class="st0"
                          d="M151.4,490h4.9v-27.6h-4.9V490z"
                        />
                        <path
                          id="Fill_44"
                          class="st0"
                          d="M183.3,481.4l-14.9-19.1h-4.5V490h4.8v-19.7l15.4,19.7h4.1v-27.6h-4.8L183.3,481.4
                          L183.3,481.4z"
                        />
                        <path
                          id="Fill_45"
                          class="st0"
                          d="M208.3,478.7h7.1v5.2c-2,1.4-4.3,2.1-6.7,2.1c-5.1,0.1-9.4-3.9-9.5-9V476
                          c-0.2-5.2,3.8-9.5,8.9-9.8l0,0h0.1c2.9-0.1,5.7,1,7.8,3l3.1-3.6c-3-2.6-6.8-3.9-10.7-3.8c-7.8-0.1-14.2,6.1-14.4,13.9v0v0.4
                          c-0.2,7.6,5.6,13.9,13.2,14.3h1.2c4.3,0,8.4-1.5,11.6-4.4v-11.6h-11.9L208.3,478.7L208.3,478.7z"
                        />
                        <path
                          id="Fill_46"
                          class="st0"
                          d="M237.4,490H227v-27.6h10.4c7.6-0.6,14.2,5.1,14.8,12.7c0,0,0,0.1,0,0.1v1
                          c0,7.7-6.2,13.9-13.9,13.9h0L237.4,490z M231.9,466.7v18.8h5.5c5,0.3,9.3-3.5,9.7-8.5v-0.9c0.1-5-3.8-9.2-8.8-9.4L231.9,466.7
                          L231.9,466.7z"
                        />
                        <path
                          id="Fill_47"
                          class="st0"
                          d="M271.2,490.4c-7.8,0.3-14.2-5.8-14.5-13.5v0v-0.7c0-3.8,1.5-7.4,4.1-10.1
                          c2.8-2.7,6.6-4.2,10.5-4.2c7.8-0.3,14.2,5.8,14.5,13.5c0,0,0,0.1,0,0.1v0.7c0,3.8-1.5,7.4-4.1,10.1
                          C278.9,489,275.1,490.5,271.2,490.4z M271.2,466.3c-5.2,0-9.4,4.2-9.4,9.4v0.5c-0.1,5.3,4,9.6,9.3,9.8h0.2
                          c5.2,0,9.4-4.2,9.4-9.4v-0.5c0.2-5.2-3.8-9.6-9-9.8c0,0,0,0-0.1,0H271.2z"
                        />
                        <path
                          id="Fill_48"
                          class="st0"
                          d="M305.6,475.4l-8.5-13.1h-5.2V490h4.8v-19.7l8.7,13h0.2l8.8-13.1V490h4.9v-27.7h-5.2
                          L305.6,475.4z"
                        />
                        <path
                          id="Fill_49"
                          class="st0"
                          d="M351.7,490.4c-7.8,0.3-14.2-5.8-14.5-13.5c0,0,0,0,0,0v-0.7c0-3.8,1.5-7.4,4.1-10.1
                          c2.8-2.7,6.6-4.2,10.5-4.2c7.8-0.3,14.2,5.8,14.5,13.5c0,0,0,0.1,0,0.1v0.7c0,3.8-1.5,7.4-4.1,10.1
                          C359.3,489,355.6,490.5,351.7,490.4z M351.7,466.3c-5.2,0-9.4,4.2-9.4,9.4v0.5c-0.1,5.3,4,9.6,9.3,9.8h0.2
                          c5.2,0,9.4-4.2,9.4-9.4v-0.5c0.2-5.2-3.8-9.6-9-9.8c0,0,0,0-0.1,0H351.7z"
                        />
                        <path
                          id="Fill_50"
                          class="st0"
                          d="M372.4,490h4.9v-11.3h14v-4.4h-14v-7.6h15.8v-4.4h-20.7L372.4,490L372.4,490z"
                        />
                        <path
                          id="Fill_51"
                          class="st0"
                          d="M421.1,473.9c-5.3-1.3-6.6-2.2-6.6-4.4v-0.1c0-1.9,1.7-3.3,4.5-3.3c2.8,0.1,5.4,1.1,7.6,2.8
                          l2.7-3.6c-2.8-2.3-6.4-3.5-10.1-3.5c-4.6-0.6-8.9,2.7-9.4,7.4c0,0,0,0,0,0.1c0,0.2-0.1,0.4-0.1,0.6v0.1c0,5.1,3.3,6.9,9.3,8.2
                          c5.2,1.2,6.3,2.2,6.3,4.2v0.1c0,2.1-1.9,3.5-4.9,3.5c-3.3,0-6.5-1.3-8.8-3.6l-3,3.5c3.2,2.9,7.3,4.5,11.6,4.4
                          c5.9,0,9.9-3.1,9.9-8.2V482C430.1,477.4,427,475.3,421.1,473.9"
                        />
                        <path
                          id="Fill_52"
                          class="st0"
                          d="M437.8,490h-5l12.2-27.8h4.5l12.2,27.8h-5.2l-2.8-6.7h-13.1L437.8,490L437.8,490z
                           M447.3,467.9l-4.8,11h9.6L447.3,467.9z"
                        />
                        <path
                          id="Fill_53"
                          class="st0"
                          d="M483.7,478.2c0,5.1-2.7,7.7-7,7.7s-7-2.7-7-7.9v-15.7h-4.9v16c-0.7,5.9,3.5,11.4,9.4,12.1
                          c0,0,0.1,0,0.2,0c0.8,0.1,1.5,0.1,2.3,0c6.1,0.5,11.5-3.9,12-10c0,0,0,0,0-0.1c0.1-0.8,0.1-1.6-0.1-2.3v-15.8h-4.9L483.7,478.2z
                          "
                        />
                        <path
                          id="Fill_54"
                          class="st0"
                          d="M506.1,490h-10.4v-27.6h10.4c7.6-0.5,14.2,5.2,14.8,12.8v0v1c0,7.7-6.2,13.9-13.9,13.9h0
                          L506.1,490z M500.6,466.7v18.8h5.5c5,0.3,9.3-3.5,9.7-8.5v-0.9c0.2-5-3.8-9.2-8.8-9.4H500.6L500.6,466.7z"
                        />
                        <path
                          id="Fill_55"
                          class="st0"
                          d="M527.1,490h4.9v-27.6h-4.9V490z"
                        />
                        <path
                          id="Fill_56"
                          class="st0"
                          d="M554,490h-5l12.2-27.8h4.5L578,490h-5.2l-2.8-6.7h-13.1L554,490L554,490z M563.4,467.9
                          l-4.8,11h9.6L563.4,467.9z"
                        />
                        <path
                          id="Fill_57"
                          class="st0"
                          d="M587.5,490h-4.9v-27.6H595c2.9-0.2,5.8,0.8,8.1,2.7c1.5,1.6,2.3,3.8,2.3,6v0.1
                          c0.1,4-2.7,7.5-6.6,8.4l7.5,10.5h-5.7l-6.8-9.7h-6.1L587.5,490L587.5,490z M587.5,466.8v9.3h7.2c3.5,0,5.7-1.8,5.7-4.6v-0.1
                          c0-2.9-2.1-4.6-5.8-4.6L587.5,466.8L587.5,466.8z"
                        />
                        <path
                          id="Fill_58"
                          class="st0"
                          d="M614.8,490h-5l12.2-27.9h4.5l12.2,27.8h-5.2l-2.8-6.7h-13.1L614.8,490L614.8,490z
                           M624.3,467.9l-4.8,11h9.6L624.3,467.9z"
                        />
                        <path
                          id="Fill_59"
                          class="st0"
                          d="M656.4,490h-12.9v-27.6H656c2.6-0.2,5.2,0.7,7.3,2.4c1.2,1.2,1.9,2.9,1.9,4.6v0.1
                          c0,2.7-1.5,5.1-4,6.1c3.2,0.6,5.5,3.4,5.6,6.7v0.1C666.7,487.1,662.9,490,656.4,490z M648.3,478v7.6h8.1c3.4,0,5.4-1.4,5.4-3.8
                          v-0.1c0-2.4-2-3.7-5.7-3.7L648.3,478z M648.3,466.6v7.3h6.7c3.3,0,5.2-1.4,5.2-3.8l0,0c0-2.2-1.9-3.5-4.9-3.5H648.3z"
                        />
                        <path
                          id="Fill_60"
                          class="st0"
                          d="M672.7,490h4.9v-27.6h-4.9V490z"
                        />
                        <path
                          id="Fill_61"
                          class="st0"
                          d="M687.3,490h-5l12.2-27.8h4.5l12.2,27.8h-5.2l-2.8-6.7h-13.1L687.3,490L687.3,490z
                           M696.8,467.9l-4.8,11h9.6L696.8,467.9z"
                        />
                        <path
                          id="Fill_62"
                          class="st0"
                          d="M327.6,197.5l7.9,7.5l-7.6,7.8l-7.9-7.5L327.6,197.5z"
                        />
                        <path
                          id="Fill_63"
                          class="st0"
                          d="M345.6,205.3l7.9,7.5l7.6-7.8l-7.9-7.5L345.6,205.3z"
                        />
                        <path
                          id="Fill_64"
                          class="st0"
                          d="M334.5,215.2l6.1,5.8l5.9-6.1l-6.1-5.8L334.5,215.2z"
                        />
                        <path
                          id="Fill_65"
                          class="st0"
                          d="M357,218.5l6.1,5.9l5.9-6.1l-6.1-5.9L357,218.5z"
                        />
                        <path
                          id="Fill_66"
                          class="st0"
                          d="M324.5,224.4l6.1,5.9l5.9-6.1l-6.1-5.9L324.5,224.4z"
                        />
                        <path
                          id="Fill_67"
                          class="st0"
                          d="M345,225.2l6.1,5.9l5.9-6.1l-6.1-5.9L345,225.2z"
                        />
                        <path
                          id="Fill_68"
                          class="st0"
                          d="M337,232.2l4.3,4.1l4.1-4.3l-4.3-4.1L337,232.2z"
                        />
                        <path
                          id="Fill_69"
                          class="st0"
                          d="M353.3,235.4l4.3,4.1l4.1-4.3l-4.3-4.1L353.3,235.4z"
                        />
                        <path
                          id="Fill_70"
                          class="st0"
                          d="M388.7,202.9l2.4,13.3l13.4-2.4l-2.4-13.3L388.7,202.9z"
                        />
                        <path
                          id="Fill_71"
                          class="st0"
                          d="M371.3,208.4l1.9,10.6l10.7-1.9l-1.9-10.6L371.3,208.4z"
                        />
                        <path
                          id="Fill_72"
                          class="st0"
                          d="M392,223.2l1.9,10.6l10.7-1.9l-1.9-10.6L392,223.2z"
                        />
                        <path
                          id="Fill_73"
                          class="st0"
                          d="M377.3,224.8l1.5,8.3l8.4-1.5l-1.5-8.3L377.3,224.8z"
                        />
                        <path
                          id="Fill_74"
                          class="st0"
                          d="M393.5,240.6l1.5,8.3l8.4-1.5l-1.5-8.3L393.5,240.6z"
                        />
                        <path
                          id="Fill_75"
                          class="st0"
                          d="M364.7,228.1l1.5,8.3l8.4-1.5l-1.5-8.3L364.7,228.1z"
                        />
                        <path
                          id="Fill_76"
                          class="st0"
                          d="M379.9,239l1.5,8.3l8.4-1.5l-1.5-8.3L379.9,239z"
                        />
                        <path
                          id="Fill_77"
                          class="st0"
                          d="M369.2,240l1,5.8l5.9-1.1l-1-5.8L369.2,240z"
                        />
                        <path
                          id="Fill_78"
                          class="st0"
                          d="M380.5,252.1l1,5.8l5.9-1l-1-5.8L380.5,252.1z"
                        />
                        <path
                          id="Fill_79"
                          class="st0"
                          d="M428.5,246.3l-5.8,12.2l12.2,5.8l5.8-12.2L428.5,246.3z"
                        />
                        <path
                          id="Fill_80"
                          class="st0"
                          d="M411.1,240.6l-4.7,9.8l9.8,4.7l4.7-9.8L411.1,240.6z"
                        />
                        <path
                          id="Fill_81"
                          class="st0"
                          d="M419.1,264.8l-4.7,9.8l9.8,4.7l4.7-9.8L419.1,264.8z"
                        />
                        <path
                          id="Fill_82"
                          class="st0"
                          d="M406.2,257.4l-3.6,7.6l7.7,3.6l3.6-7.6L406.2,257.4z"
                        />
                        <path
                          id="Fill_83"
                          class="st0"
                          d="M410.1,279.6l-3.6,7.6l7.7,3.6l3.6-7.6L410.1,279.6z"
                        />
                        <path
                          id="Fill_84"
                          class="st0"
                          d="M394,252.9l-3.6,7.6l7.7,3.6l3.6-7.6L394,252.9z"
                        />
                        <path
                          id="Fill_85"
                          class="st0"
                          d="M400,270.5l-3.6,7.6l7.7,3.6l3.6-7.6L400,270.5z"
                        />
                        <path
                          id="Fill_86"
                          class="st0"
                          d="M390.8,265.2l-2.6,5.3l5.4,2.6l2.6-5.3L390.8,265.2z"
                        />
                        <path
                          id="Fill_87"
                          class="st0"
                          d="M392.9,281.4l-2.6,5.3l5.4,2.6l2.6-5.3L392.9,281.4z"
                        />
                        <path
                          id="Fill_88"
                          class="st0"
                          d="M435.1,304.6l-11.9,6.5l6.5,11.9l11.9-6.5L435.1,304.6z"
                        />
                        <path
                          id="Fill_89"
                          class="st0"
                          d="M424.3,290l-9.6,5.2l5.2,9.5l9.5-5.2L424.3,290z"
                        />
                        <path
                          id="Fill_90"
                          class="st0"
                          d="M416.6,314.2l-9.6,5.2l5.2,9.5l9.5-5.2L416.6,314.2z"
                        />
                        <path
                          id="Fill_91"
                          class="st0"
                          d="M410.5,300.7l-7.4,4l4.1,7.4l7.4-4L410.5,300.7z"
                        />
                        <path
                          id="Fill_92"
                          class="st0"
                          d="M400.6,320.9l-7.4,4l4.1,7.4l7.4-4L400.6,320.9z"
                        />
                        <path
                          id="Fill_93"
                          class="st0"
                          d="M403.3,290l-7.4,4l4.1,7.4l7.4-4L403.3,290z"
                        />
                        <path
                          id="Fill_94"
                          class="st0"
                          d="M397.8,307.7l-7.4,4l4.1,7.4l7.4-4L397.8,307.7z"
                        />
                        <path
                          id="Fill_95"
                          class="st0"
                          d="M393.4,298l-5.2,2.8l2.9,5.2l5.2-2.8L393.4,298z"
                        />
                        <path
                          id="Fill_96"
                          class="st0"
                          d="M385.4,312.4l-5.2,2.8l2.9,5.2l5.2-2.8L385.4,312.4z"
                        />
                        <path
                          id="Fill_97"
                          class="st0"
                          d="M406.1,355.8l-13.5-1.7l-1.7,13.4l13.5,1.7L406.1,355.8z"
                        />
                        <path
                          id="Fill_98"
                          class="st0"
                          d="M406,337.6l-10.8-1.4l-1.4,10.7l10.8,1.4L406,337.6z"
                        />
                        <path
                          id="Fill_99"
                          class="st0"
                          d="M385.5,352.8l-10.8-1.4l-1.4,10.7l10.8,1.4L385.5,352.8z"
                        />
                        <path
                          id="Fill_100"
                          class="st0"
                          d="M388.4,338.3l-8.4-1l-1,8.4l8.4,1L388.4,338.3z"
                        />
                        <path
                          id="Fill_101"
                          class="st0"
                          d="M368.4,349l-8.4-1l-1.1,8.4l8.4,1L368.4,349z"
                        />
                        <path
                          id="Fill_102"
                          class="st0"
                          d="M389,325.5l-8.5-1l-1,8.4l8.4,1L389,325.5z"
                        />
                        <path
                          id="Fill_103"
                          class="st0"
                          d="M374,336.6l-8.5-1l-1,8.4l8.4,1L374,336.6z"
                        />
                        <path
                          id="Fill_104"
                          class="st0"
                          d="M376.2,326.2l-5.9-0.7l-0.7,5.9l5.9,0.7L376.2,326.2z"
                        />
                        <path
                          id="Fill_105"
                          class="st0"
                          d="M361.2,333.3l-5.9-0.7l-0.7,5.9l5.9,0.7L361.2,333.3z"
                        />
                        <path
                          id="Fill_106"
                          class="st0"
                          d="M352.4,380.4l-10-9.2l-9.3,9.9l10,9.2L352.4,380.4z"
                        />
                        <path
                          id="Fill_107"
                          class="st0"
                          d="M350.6,191.5l-10-9.2l-9.3,9.9l10,9.2L350.6,191.5z"
                        />
                        <path
                          id="Fill_108"
                          class="st0"
                          d="M363,365.6l-8-7.3l-7.4,7.9l8,7.3L363,365.6z"
                        />
                        <path
                          id="Fill_109"
                          class="st0"
                          d="M337.5,366l-8-7.3l-7.4,7.9l8,7.3L337.5,366z"
                        />
                        <path
                          id="Fill_110"
                          class="st0"
                          d="M348.4,356l-6.2-5.7l-5.8,6.2l6.2,5.7L348.4,356z"
                        />
                        <path
                          id="Fill_111"
                          class="st0"
                          d="M325.9,353l-6.2-5.7l-5.8,6.2l6.2,5.7L325.9,353z"
                        />
                        <path
                          id="Fill_112"
                          class="st0"
                          d="M356.4,345.8l-6.2-5.7l-5.8,6.2l6.2,5.7L356.4,345.8z"
                        />
                        <path
                          id="Fill_113"
                          class="st0"
                          d="M337.7,346.2l-6.2-5.7l-5.8,6.2l6.2,5.7L337.7,346.2z"
                        />
                        <path
                          id="Fill_114"
                          class="st0"
                          d="M345.6,339.1l-4.4-4l-4,4.4l4.4,4L345.6,339.1z"
                        />
                        <path
                          id="Fill_115"
                          class="st0"
                          d="M329.3,336.1l-4.4-4l-4,4.4l4.4,4L329.3,336.1z"
                        />
                        <path
                          id="Fill_116"
                          class="st0"
                          d="M294.4,369.1l-2.7-13.2l-13.3,2.7l2.7,13.2L294.4,369.1z"
                        />
                        <path
                          id="Fill_117"
                          class="st0"
                          d="M311.8,363.3l-2.2-10.6l-10.7,2.1l2.2,10.6L311.8,363.3z"
                        />
                        <path
                          id="Fill_118"
                          class="st0"
                          d="M290.8,348.8l-2.2-10.6l-10.7,2.1l2.2,10.6L290.8,348.8z"
                        />
                        <path
                          id="Fill_119"
                          class="st0"
                          d="M305.5,347.1l-1.7-8.2l-8.3,1.6l1.7,8.2L305.5,347.1z"
                        />
                        <path
                          id="Fill_120"
                          class="st0"
                          d="M318,343.5l-1.7-8.2l-8.3,1.6l1.7,8.3L318,343.5z"
                        />
                        <path
                          id="Fill_121"
                          class="st0"
                          d="M302.6,332.9l-1.7-8.2l-8.3,1.7l1.7,8.2L302.6,332.9z"
                        />
                        <path
                          id="Fill_122"
                          class="st0"
                          d="M313.3,331.7l-1.1-5.8l-5.9,1.1l1.1,5.8L313.3,331.7z"
                        />
                        <path
                          id="Fill_123"
                          class="st0"
                          d="M301.8,319.8l-1.1-5.8l-5.9,1.1l1.1,5.8L301.8,319.8z"
                        />
                        <path
                          id="Fill_124"
                          class="st0"
                          d="M254,326.3l5.6-12.2l-12.3-5.6l-5.6,12.2L254,326.3z"
                        />
                        <path
                          id="Fill_125"
                          class="st0"
                          d="M271.5,331.7l4.5-9.8l-9.9-4.5l-4.5,9.8L271.5,331.7z"
                        />
                        <path
                          id="Fill_126"
                          class="st0"
                          d="M263,307.8l4.5-9.8l-9.9-4.5l-4.5,9.8L263,307.8z"
                        />
                        <path
                          id="Fill_127"
                          class="st0"
                          d="M276,314.9l3.5-7.7l-7.7-3.5l-3.5,7.7L276,314.9z"
                        />
                        <path
                          id="Fill_128"
                          class="st0"
                          d="M286.4,334.1l3.5-7.7l-7.7-3.5l-3.5,7.7L286.4,334.1z"
                        />
                        <path
                          id="Fill_129"
                          class="st0"
                          d="M271.8,292.8l3.5-7.7l-7.7-3.5l-3.5,7.7L271.8,292.8z"
                        />
                        <path
                          id="Fill_130"
                          class="st0"
                          d="M288.2,319.3l3.5-7.7l-7.7-3.5l-3.5,7.7L288.2,319.3z"
                        />
                        <path
                          id="Fill_131"
                          class="st0"
                          d="M282,301.8l3.5-7.7l-7.7-3.5l-3.5,7.7L282,301.8z"
                        />
                        <path
                          id="Fill_132"
                          class="st0"
                          d="M291.4,306.9l2.5-5.4l-5.4-2.5l-2.5,5.4L291.4,306.9z"
                        />
                        <path
                          id="Fill_133"
                          class="st0"
                          d="M289,290.6l2.5-5.4l-5.4-2.5l-2.5,5.4L289,290.6z"
                        />
                        <path
                          id="Fill_134"
                          class="st0"
                          d="M246.4,268.1l11.8-6.7l-6.8-11.7l-11.8,6.7L246.4,268.1z"
                        />
                        <path
                          id="Fill_135"
                          class="st0"
                          d="M257.4,282.6l9.4-5.3l-5.4-9.4l-9.4,5.4L257.4,282.6z"
                        />
                        <path
                          id="Fill_136"
                          class="st0"
                          d="M264.7,258.4l9.4-5.3l-5.4-9.4l-9.4,5.4L264.7,258.4z"
                        />
                        <path
                          id="Fill_137"
                          class="st0"
                          d="M271,271.7l7.3-4.2l-4.2-7.3l-7.3,4.2L271,271.7z"
                        />
                        <path
                          id="Fill_138"
                          class="st0"
                          d="M280.6,251.3l7.3-4.2l-4.2-7.3l-7.3,4.2L280.6,251.3z"
                        />
                        <path
                          id="Fill_139"
                          class="st0"
                          d="M278.4,282.3l7.3-4.2l-4.2-7.3l-7.3,4.2L278.4,282.3z"
                        />
                        <path
                          id="Fill_140"
                          class="st0"
                          d="M283.7,264.5l7.3-4.2l-4.2-7.3l-7.3,4.2L283.7,264.5z"
                        />
                        <path
                          id="Fill_141"
                          class="st0"
                          d="M288.1,274.1l5.2-2.9l-3-5.2l-5.2,2.9L288.1,274.1z"
                        />
                        <path
                          id="Fill_142"
                          class="st0"
                          d="M295.9,259.6l5.2-2.9l-3-5.2l-5.2,2.9L295.9,259.6z"
                        />
                        <path
                          id="Fill_143"
                          class="st0"
                          d="M274.5,216.6l13.5,1.4l1.5-13.4l-13.5-1.4L274.5,216.6z"
                        />
                        <path
                          id="Fill_144"
                          class="st0"
                          d="M274.9,234.8l10.8,1.1l1.1-10.7l-10.8-1.1L274.9,234.8z"
                        />
                        <path
                          id="Fill_145"
                          class="st0"
                          d="M295.1,219.2l10.8,1.1l1.1-10.7l-10.8-1.1L295.1,219.2z"
                        />
                        <path
                          id="Fill_146"
                          class="st0"
                          d="M292.4,233.7l8.5,0.9l0.9-8.4l-8.5-0.9L292.4,233.7z"
                        />
                        <path
                          id="Fill_147"
                          class="st0"
                          d="M312.2,222.8l8.5,0.9l0.9-8.4l-8.5-0.9L312.2,222.8z"
                        />
                        <path
                          id="Fill_148"
                          class="st0"
                          d="M292.2,246.6l8.5,0.9l0.9-8.4l-8.5-0.9L292.2,246.6z"
                        />
                        <path
                          id="Fill_149"
                          class="st0"
                          d="M306.9,235.2l8.5,0.9l0.9-8.4l-8.5-0.9L306.9,235.2z"
                        />
                        <path
                          id="Fill_150"
                          class="st0"
                          d="M304.9,245.6l6,0.6l0.6-5.9l-6-0.6L304.9,245.6z"
                        />
                        <path
                          id="Fill_151"
                          class="st0"
                          d="M319.7,238.3l6,0.6l0.6-5.9l-6-0.6L319.7,238.3z"
                        />
                        <path
                          id="Fill_152"
                          class="st0"
                          d="M383.8,294.6c-1.7-1-3.5-1.8-5.4-2.3c-4.8-1.5-9.9-1.9-14.8-1c-2.2,0.3-4.4,0.9-6.5,1.6
                          l-0.6,0.2c-1.2,0.4-2.3,1-3.4,1.5c-1,0.5-1.9,1-2.9,1.6c-2.2,1.3-4.4,2.8-6.5,4.4c-1.7-11.4-1.9-22.9-0.6-34.3
                          c0,0,0-0.1,0.1-0.1h0l0,0c5.2,3.2,3.7,12.2,2.6,14.8c0,0,0,0.1,0.1,0.1h0c4.3-5,5.1-12.1,1.9-17.9c0-0.1,0-0.1,0.1-0.1
                          c0.9,0.7,1.6,1.5,2.3,2.3c1.7,2.2,2.7,4.8,2.9,7.6c0.1,1.1,0.1,2.3,0,3.5c0,0.2-0.1,0.5-0.1,0.7c0,0.1,0,0.1,0.1,0.1l0,0
                          c2.2-4.2,2.2-9.2,0-13.4c-0.8-1.4-1.8-2.8-2.9-4c-0.4-0.4-0.7-0.8-1.1-1.1v-0.1c0-0.1,0,0,0.1,0l0,0c0.4,0.1,0.8,0.2,1.1,0.3
                          c1,0.4,2,0.9,2.9,1.5c1.9,1.4,3.2,3.2,4,5.4c0.6,1.6,1,3.2,1,4.9c0,0,0,0.1,0.1,0.1h0c0.1,0,0.1,0,0.1-0.1
                          c1.9-5.3-0.2-11.2-5.1-13.9c-0.9-0.6-1.9-1-2.9-1.3c-0.5-0.1-0.9-0.2-1.4-0.3c-0.1,0-0.1-0.1,0-0.1c0.5-0.1,0.9-0.1,1.4-0.1
                          c1,0,1.9,0.1,2.9,0.2c1.4,0.2,2.8,0.8,4,1.6c1.1,0.7,2.1,1.7,2.7,2.9c0,0.1,0.1,0,0.1,0c-0.2-2.1-1.2-4.1-2.8-5.4
                          c-1.2-1-2.6-1.7-4-2.1c-1-0.2-1.9-0.4-2.9-0.4c-1.2,0-2.5,0.2-3.6,0.6c-0.1,0-0.1,0-0.1-0.1c0.9-1.3,2.2-2.2,3.7-2.6
                          c0.9-0.3,1.9-0.4,2.9-0.3c0.8,0,1.6,0.2,2.3,0.6h0.1v-0.1c-0.7-0.8-1.5-1.4-2.4-1.9c-0.9-0.5-1.9-0.8-2.9-1
                          c-2.8-0.3-5.5,1-6.9,3.5h-0.1c-0.3-0.6-0.6-1.3-1-1.9c-0.7-1.7-1.3-3.4-1.6-5.2c0,0,0-0.1-0.1-0.1c0,0-0.1,0-0.1,0.1
                          c0,0,0,0,0,0c-0.3,1.8-0.9,3.6-1.6,5.2c-0.3,0.7-0.6,1.3-1,1.9h-0.1c-2.2-3.5-6.8-4.5-10.3-2.3c-0.7,0.5-1.4,1.1-1.9,1.8v0.1
                          h0.1c3.2-1.3,6.8-0.3,9,2.3v0.1h-0.1c-4-1.4-8.5-0.3-11.5,2.8c-1.1,1.2-1.7,2.8-1.9,4.4c0,0.1,0.1,0.1,0.1,0
                          c0.5-0.8,1.1-1.5,1.8-2.2c2.6-2.1,6-3,9.3-2.5c0.1,0,0.1,0.1,0,0.1c-4.1,0.7-7.6,3.5-9.3,7.3c-0.9,2.7-0.9,5.5-0.1,8.2
                          c0,0,0,0.1,0.1,0.1h0c0.1,0,0.1,0,0.1-0.1v-0.2c-0.1-5.6,3.6-10.5,9-12c0,0,0,0,0.1,0c0,0,0,0,0,0.1v0.1
                          c-5.6,4.4-7.3,12.1-4.1,18.4h0.1v-0.1c-1-5.3,1-10.7,5.2-14.2c0.1,0,0.1,0,0.1,0.1c-3.1,5.8-2.4,12.9,1.9,17.9
                          c0,0.1,0.1,0,0.1-0.1c-1-2.6-2.5-11.5,2.6-14.8h0.1c1.2,11.4,1,22.9-0.6,34.3c-3.9-3.1-8.1-5.6-12.7-7.5c-0.6-0.2-1-0.4-1.5-0.6
                          c-3.9-1.3-7.9-1.9-12-1.7c-4.3,0.1-8.5,1.2-12.4,3.1c-0.5,0.2-0.9,0.5-1.2,0.6c-0.1,0.1-0.1,0.1,0,0.2c0,0,0.1,0.1,0.2,0.1
                          c0.4-0.1,0.7-0.2,1.1-0.3c4-1.1,8.2-1.5,12.4-1.2c4.2,0.4,8.2,1.5,12,3.2c5.2,2.4,10,5.5,14.4,9.3c-4.5,4.3-9.3,8.4-14.4,12.2
                          l-0.5,0.2c-1-1.5-3.1-1.8-4.6-0.8c0,0-0.1,0-0.1,0.1c-0.7,0.5-1.1,1.1-1.3,1.9c-0.2,1,0,2.1,0.6,2.9c1.5,1.5,3.9,1.9,5.8,0.8
                          c5.8-3.7,11.2-8.1,15.9-13.1c0.6-0.5,1-1,1.6-1.5c0.6,0.5,1,1,1.6,1.5c2.9,2.7,5.6,5.2,8,7.4c1,0.9,1.9,1.8,2.9,2.5
                          c1.3,1.1,2.6,2,4,2.8c1.9,1.4,4.6,1.4,6.5-0.2c0.1-0.1,0.2-0.2,0.3-0.2c0.6-0.8,0.9-1.9,0.6-2.9c-0.1-0.6-0.5-1.2-1-1.6
                          c-0.4-0.4-1-0.7-1.5-0.9c-1.3-0.3-2.7,0.2-3.5,1.3c-0.5-0.2-1-0.5-1.4-0.9c-1.4-1-2.7-2.1-4-3.2c-0.9-0.8-1.9-1.7-2.9-2.6
                          c-2-1.8-4.2-3.8-6.5-5.8c2.1-1.7,4.3-3.4,6.5-4.8c1-0.6,1.9-1.2,2.9-1.9c1.3-0.8,2.7-1.5,4-2.2c2.1-1,4.2-1.8,6.5-2.4
                          c4.8-1.4,9.9-1.7,14.8-0.9c1.8,0.3,3.5,0.7,5.3,1.2c0.1,0,0.2,0,0.2-0.1C383.9,294.6,383.9,294.5,383.8,294.6"
                        />
                      </g>
                    </g>
                  </g>
                </g>
              </svg>