<svg xmlns="http://www.w3.org/2000/svg" xmlns:xlink="http://www.w3.org/1999/xlink" width="227.789" height="74" viewBox="0 0 227.789 74">
  <defs>
    <clipPath id="clip-path">
      <rect id="Rectangle_220" data-name="Rectangle 220" width="33.907" height="69.952" fill="none"/>
    </clipPath>
    <clipPath id="clip-path-3">
      <path id="Path_834" data-name="Path 834" d="M596.479,35.24a3.107,3.107,0,0,0-1.664.347l-30.8,16.241a3.138,3.138,0,0,0-1.67,2.777V94.349a3.133,3.133,0,0,0,2.37,3.043l30.761,7.672a3.1,3.1,0,0,0,1.265.044.5.5,0,0,0,.122-.015l.117-.029,7.655-1.908L629.749,96.9a.514.514,0,0,0,.389-.5V52.444a.516.516,0,0,0-.28-.459l-1.428-.729L597.681,35.567l-.694-.354a.5.5,0,0,0-.23-.056.512.512,0,0,0-.277.083" transform="translate(-562.349 -35.157)" fill="none"/>
    </clipPath>
  </defs>
  <g id="Group_57556" data-name="Group 57556" transform="translate(-68.105 -66)">
    <g id="logo" transform="translate(228.105 70)">
      <g id="Group_57099" data-name="Group 57099" transform="translate(0 0)">
        <g id="Group_57101" data-name="Group 57101" transform="translate(0 0)">
          <path id="Path_822" data-name="Path 822" d="M627.768,97.487l-30.785,7.673a3.1,3.1,0,0,1-1.5,0l-30.761-7.672a3.134,3.134,0,0,1-2.37-3.044V54.7a3.139,3.139,0,0,1,1.67-2.776l30.8-16.241a3.109,3.109,0,0,1,2.865-.019l30.749,15.69a3.136,3.136,0,0,1,1.708,2.8V94.443a3.133,3.133,0,0,1-2.37,3.044" transform="translate(-562.349 -35.252)" fill="#0d46ab"/>
          <g id="Group_220" data-name="Group 220" transform="translate(33.882)" opacity="0.62" style="mix-blend-mode: multiply;isolation: isolate">
            <g id="Group_219" data-name="Group 219">
              <g id="Group_218" data-name="Group 218" clip-path="url(#clip-path)">
                <g id="Group_217" data-name="Group 217">
                  <g id="Group_216" data-name="Group 216" clip-path="url(#clip-path)">
                    <path id="Path_823" data-name="Path 823" d="M643.337,105.093l32.883-8.2a.513.513,0,0,0,.389-.5V52.443a.514.514,0,0,0-.279-.458L643.458,35.212a.512.512,0,0,0-.743.458l-.012,68.923a.512.512,0,0,0,.635.5" transform="translate(-642.703 -35.156)" fill="#bfa771"/>
                  </g>
                </g>
              </g>
            </g>
          </g>
          <path id="Path_824" data-name="Path 824" d="M632.555,89.575q.212.54.424,1.08.1.264.208.528c.008.02.018.039.026.056a3.513,3.513,0,0,1,3.761.187,4.508,4.508,0,0,0-2.6.476l0,.017.218-.017a7.54,7.54,0,0,1,1.252-.012,5.288,5.288,0,0,1,1.49.321,4.817,4.817,0,0,1,2.112,1.6l.05.067s0,.008.008.025a6.133,6.133,0,0,0-3.922-.832l.06.02a8.019,8.019,0,0,1,1.746.743,5.327,5.327,0,0,1,2.173,2.433,7.649,7.649,0,0,1,.382,1.033.054.054,0,0,1,0,.03,7.576,7.576,0,0,0-3.858-2.778l.058.042A7.978,7.978,0,0,1,637.9,96.19a6.326,6.326,0,0,1,1.269,2.722c.064.318.1.642.143.963,0,.007,0,.015,0,.043a9.941,9.941,0,0,0-2.115-2.879,10.154,10.154,0,0,0-1.162-.955,8.057,8.057,0,0,1,1.677,6.545,11.426,11.426,0,0,0-2.6-5.212l.023.068a8.1,8.1,0,0,1,.427,1.758,7.973,7.973,0,0,1,0,1.933,9.406,9.406,0,0,1-.712,2.6c0,.007-.008.014,0,.007,0-.138,0-.287,0-.436a11.725,11.725,0,0,0-.041-1.4,9.875,9.875,0,0,0-.388-2.037,8.252,8.252,0,0,0-.931-2.042.153.153,0,0,0-.051-.052c-.07.7-.14,1.4-.211,2.108h.247c-.082.83-.165,1.651-.247,2.481h.247c-.082.831-.165,1.654-.247,2.485h.247c-.023.235-.046.461-.068.688q-.049.485-.1.97c-.024.24-.046.48-.074.719a.171.171,0,0,0,.051.16c.194.187.382.379.572.569l.056.059h-2.735c.022-.023.036-.04.051-.056.2-.2.391-.393.589-.588a.122.122,0,0,0,.04-.108c-.034-.321-.064-.643-.1-.964s-.065-.647-.1-.97c-.015-.146-.029-.291-.042-.437,0-.012,0-.025,0-.044h.241c-.082-.829-.164-1.651-.247-2.48h.247c-.082-.831-.164-1.654-.247-2.484h.247c-.071-.709-.141-1.41-.212-2.129-.026.036-.04.056-.053.078a8.506,8.506,0,0,0-1.11,2.729,11.347,11.347,0,0,0-.241,2.934c0,.086.009.172.007.257a8.322,8.322,0,0,1-.274-6.385,11.531,11.531,0,0,0-2.595,5.22,8.377,8.377,0,0,1,.122-3.46,8.135,8.135,0,0,1,1.558-3.083,10.151,10.151,0,0,0-3.281,3.837A6.808,6.808,0,0,1,629,94.556a7.392,7.392,0,0,0-2.145,1.078,8.9,8.9,0,0,0-1.716,1.7c.061-.183.119-.366.185-.547a5.833,5.833,0,0,1,1.089-1.882,5.429,5.429,0,0,1,1.631-1.251,8.59,8.59,0,0,1,1.409-.557.2.2,0,0,0,.062-.028,7.355,7.355,0,0,0-2.033.092,5.936,5.936,0,0,0-1.89.735c.009-.014.018-.028.027-.04a4.871,4.871,0,0,1,1.984-1.579,5.069,5.069,0,0,1,1.286-.346,7,7,0,0,1,1.322-.048c.163.008.325.025.487.038a.067.067,0,0,0,.036-.005,4.344,4.344,0,0,0-2.607-.473,3.4,3.4,0,0,1,1.845-.651,3.666,3.666,0,0,1,1.911.455.432.432,0,0,0,.024-.049q.313-.792.626-1.583a.319.319,0,0,0,.01-.037Z" transform="translate(-598.662 -66.525)" fill="#eac66c"/>
          <path id="Path_825" data-name="Path 825" d="M627.356,133.6l1.842,1.672a.111.111,0,0,0,.026,0,2.54,2.54,0,0,0,.57-.806,1.229,1.229,0,0,0,.04-.761c-.006-.025-.013-.05-.021-.082a.58.58,0,0,1,.454.211.853.853,0,0,1,.18.6,1.994,1.994,0,0,1-.482,1.166c-.046.059-.1.115-.145.172,0,.008.005.015.01.019a6.756,6.756,0,0,0,1.039.78,1.932,1.932,0,0,0,.459.2.554.554,0,0,0,.712-.483.693.693,0,0,1,.257-.461.654.654,0,0,1,.986.3,1.182,1.182,0,0,1,.021.841,1.423,1.423,0,0,1-1.02.97,2.153,2.153,0,0,1-1.964-.346c-.372-.27-.719-.573-1.076-.862l-.137-.113c-.094.108-.19.213-.279.322a1.569,1.569,0,0,0-.361.739,1.254,1.254,0,0,0,.027.518c.006.024.012.049.019.08a.593.593,0,0,1-.459-.219.86.86,0,0,1-.174-.593,1.917,1.917,0,0,1,.413-1.08c.067-.092.142-.177.218-.272l-2.037-1.763-2.033,1.76c.095.124.191.24.276.363a1.921,1.921,0,0,1,.338.822.988.988,0,0,1-.125.715.59.59,0,0,1-.492.268c.017-.084.036-.162.047-.242a1.273,1.273,0,0,0-.194-.857,3.573,3.573,0,0,0-.453-.56c-.1.083-.192.164-.29.241-.336.267-.658.555-1.014.794a2.11,2.11,0,0,1-1.97.25,1.393,1.393,0,0,1-.948-1.037,1.149,1.149,0,0,1,.048-.741.658.658,0,0,1,.929-.33.627.627,0,0,1,.3.425c.014.061.024.123.044.182a.543.543,0,0,0,.7.371,2.084,2.084,0,0,0,.446-.193,7.17,7.17,0,0,0,1.054-.79c-.05-.059-.1-.113-.143-.17a2.146,2.146,0,0,1-.467-.951,1.094,1.094,0,0,1,.054-.665.6.6,0,0,1,.489-.372.408.408,0,0,1,.06,0c-.016.094-.037.185-.047.277a1.261,1.261,0,0,0,.177.779,3.513,3.513,0,0,0,.479.6l1.854-1.681a.414.414,0,0,0-.035-.038,34.047,34.047,0,0,0-2.962-2.232,18,18,0,0,0-3.4-1.793,13.571,13.571,0,0,0-2.695-.743,12.2,12.2,0,0,0-1.586-.16,1.927,1.927,0,0,1-.276-.025c.183-.057.365-.118.549-.171a8.3,8.3,0,0,1,1.718-.3,8.391,8.391,0,0,1,3.555.549,13.022,13.022,0,0,1,2.681,1.413,27.505,27.505,0,0,1,2.9,2.294l.441.394.4-.358a29.009,29.009,0,0,1,2.644-2.129,13.762,13.762,0,0,1,2.763-1.532,9.157,9.157,0,0,1,1.862-.533,7.988,7.988,0,0,1,1.883-.1,8.488,8.488,0,0,1,2.252.468l.052.02-.328.014a12.729,12.729,0,0,0-1.4.137,14.444,14.444,0,0,0-4.859,1.716,24.3,24.3,0,0,0-3.121,2.092c-.407.316-.805.644-1.207.967-.017.013-.032.028-.058.051" transform="translate(-592.586 -88.743)" fill="#eac66c"/>
        </g>
      </g>
      <g id="Group_57100" data-name="Group 57100" transform="translate(0.001 0.001)">
        <g id="Group_223" data-name="Group 223" clip-path="url(#clip-path-3)">
          <path id="Path_826" data-name="Path 826" d="M530.205,144.163,561.753,155.4l-32.8-6.688Z" transform="translate(-543.031 -97.992)" fill="#fff"/>
          <path id="Path_827" data-name="Path 827" d="M527.682,127.641l32.946,5.278-33.358-.57Z" transform="translate(-542.062 -88.469)" fill="#fff"/>
          <path id="Path_828" data-name="Path 828" d="M526.791,85.559l33.578-9.3L528.346,90.02Z" transform="translate(-541.784 -58.85)" fill="#fff"/>
          <path id="Path_829" data-name="Path 829" d="M529.3,109.659l32.655-4.408-31.7,9.035Z" transform="translate(-543.237 -75.562)" fill="#fff"/>
          <path id="Path_830" data-name="Path 830" d="M707.76,148.717l-32.8,6.688L706.5,144.163Z" transform="translate(-627.473 -97.992)" fill="#fff"/>
          <path id="Path_831" data-name="Path 831" d="M708.677,132.349l-33.358.57,32.946-5.278Z" transform="translate(-627.685 -88.469)" fill="#fff"/>
          <path id="Path_832" data-name="Path 832" d="M707.3,90.02,675.276,76.259l33.579,9.3Z" transform="translate(-627.659 -58.85)" fill="#fff"/>
          <path id="Path_833" data-name="Path 833" d="M706.65,114.285l-31.7-9.035,32.655,4.408Z" transform="translate(-627.472 -75.561)" fill="#fff"/>
        </g>
      </g>
    </g>
    <text id="الأمـــــــــــــانة_أعمــــــــــــــال" data-name="الأمـــــــــــــانة
أعمــــــــــــــال" transform="translate(134.105 96)" fill="#eac66c" font-size="28" font-family="SegoeUI, Segoe UI"><tspan x="-65.468" y="0">الأمـــــــــــــانة</tspan><tspan y="0"></tspan><tspan fill="#0d46ab"><tspan x="-65.468" y="32">أعمــــــــــــــال</tspan></tspan></text>
  </g>
</svg>
