<?xml version="1.0" encoding="utf-8"?>
<!-- Generator: Adobe Illustrator 27.7.0, SVG Export Plug-In . SVG Version: 6.00 Build 0)  -->
<svg version="1.1" id="Layer_1" xmlns="http://www.w3.org/2000/svg" xmlns:xlink="http://www.w3.org/1999/xlink" x="0px" y="0px"
	 viewBox="0 0 1189.2 674.2" style="enable-background:new 0 0 1189.2 674.2;" xml:space="preserve">
<style type="text/css">
	.st0{filter:url(#Adobe_OpacityMaskFilter);}
	
		.st1{clip-path:url(#SVGID_00000044866106981249363980000016569890564083333041_);fill:url(#SVGID_00000178173964556687506300000016155294655742467993_);}
	
		.st2{clip-path:url(#SVGID_00000044866106981249363980000016569890564083333041_);mask:url(#SVGID_00000019655688758205673910000015002245480039861643_);}
	.st3{clip-path:url(#SVGID_00000074403168135603152220000007110487911716694713_);}
	.st4{fill:#467B64;}
</style>
<g>
	<defs>
		<rect id="SVGID_1_" x="-128.1" width="1413.5" height="674.2"/>
	</defs>
	<clipPath id="SVGID_00000070840197036911667660000012664204555316557747_">
		<use xlink:href="#SVGID_1_"  style="overflow:visible;"/>
	</clipPath>
	<defs>
		<filter id="Adobe_OpacityMaskFilter" filterUnits="userSpaceOnUse" x="0" y="-429.4" width="1251.6" height="1290">
			<feColorMatrix  type="matrix" values="1 0 0 0 0  0 1 0 0 0  0 0 1 0 0  0 0 0 1 0"/>
		</filter>
	</defs>
	
		<mask maskUnits="userSpaceOnUse" x="0" y="-429.4" width="1251.6" height="1290" id="SVGID_00000118383583267162810810000003098614449689089963_">
		<g class="st0">
			
				<radialGradient id="SVGID_00000168795358188617021440000005694994424859730071_" cx="625.6072" cy="394.6314" r="699.266" gradientUnits="userSpaceOnUse">
				<stop  offset="0" style="stop-color:#595959"/>
				<stop  offset="8.318701e-02" style="stop-color:#7C7C7C"/>
				<stop  offset="0.2662" style="stop-color:#D3D3D3"/>
				<stop  offset="0.3543" style="stop-color:#FFFFFF"/>
				<stop  offset="0.5949" style="stop-color:#FDFDFD"/>
				<stop  offset="0.6816" style="stop-color:#F6F6F6"/>
				<stop  offset="0.7434" style="stop-color:#EBEBEB"/>
				<stop  offset="0.7934" style="stop-color:#DADADA"/>
				<stop  offset="0.8362" style="stop-color:#C4C4C4"/>
				<stop  offset="0.8741" style="stop-color:#A8A8A8"/>
				<stop  offset="0.9084" style="stop-color:#888888"/>
				<stop  offset="0.9399" style="stop-color:#626262"/>
				<stop  offset="0.9692" style="stop-color:#373737"/>
				<stop  offset="0.9952" style="stop-color:#090909"/>
				<stop  offset="1" style="stop-color:#000000"/>
			</radialGradient>
			
				<rect x="-618.4" y="-198" style="clip-path:url(#SVGID_00000070840197036911667660000012664204555316557747_);fill:url(#SVGID_00000168795358188617021440000005694994424859730071_);" width="2480" height="1421.6"/>
		</g>
	</mask>
	
		<g style="clip-path:url(#SVGID_00000070840197036911667660000012664204555316557747_);mask:url(#SVGID_00000118383583267162810810000003098614449689089963_);">
		<defs>
			
				<rect id="SVGID_00000008871482508475436440000006739640787718650811_" x="88.5" y="-295.4" transform="matrix(0.2419 -0.9703 0.9703 0.2419 265.224 770.6471)" width="1074.7" height="1022"/>
		</defs>
		<clipPath id="SVGID_00000074437224503892078710000000403664936149621380_">
			<use xlink:href="#SVGID_00000008871482508475436440000006739640787718650811_"  style="overflow:visible;"/>
		</clipPath>
		
			<g id="Group_730" transform="translate(991.618 1289.998) rotate(-166)" style="clip-path:url(#SVGID_00000074437224503892078710000000403664936149621380_);">
			<path id="Path_7148" class="st4" d="M117.5,736.9l87.8,63.8c7.4,5.4,11.6,15.7,11.6,26.4c0,4.4-0.7,8.8-2.2,12.9L111,1134.3
				l-1.9-1.2l103.8-294.2c1.3-3.8,2-7.7,2-11.7c0-9.7-3.8-19-10.5-23.9l-87.8-63.8L117.5,736.9L117.5,736.9z"/>
			<path id="Path_7149" class="st4" d="M117.5,687.4L245,787.1c7.8,6.1,12.2,17.3,12.2,28.8c0,5.3-0.9,10.5-2.8,15.4L111,1202.4
				l-1.8-1.3L252.6,830c1.7-4.5,2.6-9.3,2.6-14.1c0-10.5-4-20.7-11.2-26.3l-127.4-99.8L117.5,687.4L117.5,687.4z"/>
			<path id="Path_7150" class="st4" d="M117.6,624l173.8,151.9c6.5,5.7,10.1,15.3,10.1,25.2c0,5.1-1,10.1-2.9,14.8l-180.7,430
				l-1.8-1.4l180.7-430c1.8-4.3,2.6-8.8,2.6-13.4c0-8.9-3.3-17.7-9.2-22.8L116.5,626.4L117.6,624L117.6,624z"/>
			<path id="Path_7151" class="st4" d="M117.6,564.6l214.2,196.6c7.1,6.5,10.9,17.2,10.9,28c0,6.2-1.3,12.4-3.9,18.1l-220.9,473.4
				l-1.8-1.5l220.9-473.4c2.4-5.2,3.6-10.9,3.5-16.6c0-10-3.5-19.7-10-25.7L116.4,566.9L117.6,564.6L117.6,564.6z"/>
			<path id="Path_7152" class="st4" d="M117.6,492.2L379,749.6c6.2,6.1,9.5,15.6,9.5,25.3c0,6.1-1.3,12.1-4,17.6l-266.6,530.4
				l-1.7-1.6l266.6-530.4c2.4-5,3.7-10.4,3.6-16c0-8.8-3-17.4-8.6-23L116.4,494.5L117.6,492.2L117.6,492.2z"/>
			<path id="Path_7153" class="st4" d="M117.7,416.9l305.7,319.7c5.9,6.2,9.1,15.6,9.1,25c0.1,6.5-1.5,12.9-4.5,18.6l-310.1,575.9
				l-1.7-1.7l310.1-575.9c2.7-5.2,4.1-11,4.1-16.9c0-8.6-2.8-17.1-8.2-22.8L116.4,419.1L117.7,416.9L117.7,416.9z"/>
			<path id="Path_7154" class="st4" d="M187.7,416.9l282,306.6c5.6,6.1,8.6,15.2,8.6,24.3c0.1,6.8-1.6,13.4-5,19.3l-362.3,619.5
				l-1.6-1.8l362.3-619.5c3-5.4,4.6-11.4,4.5-17.5c0-8.3-2.7-16.5-7.8-22.1l-282-306.6L187.7,416.9L187.7,416.9z"/>
			<path id="Path_7155" class="st4" d="M257,416.9l251.3,289.2c6.7,7.7,10.2,18.7,10.2,29.8c0.1,8.8-2.2,17.5-6.8,25.2l-393.9,635.7
				l-1.6-1.8l393.9-635.7c4.2-7.1,6.4-15.1,6.3-23.3c0-10.3-3.2-20.5-9.4-27.7L255.7,419.1L257,416.9L257,416.9z"/>
			<path id="Path_7156" class="st4" d="M323.6,416.9l234.9,286.8c4,4.8,6,11.6,6,18.3c0.1,5.7-1.5,11.3-4.5,16.2l-442.2,683.2
				l-1.6-1.9l442.2-683.2c2.7-4.3,4-9.3,4-14.3c0.1-5.8-1.8-11.5-5.3-16.2L322.2,419L323.6,416.9L323.6,416.9z"/>
			<path id="Path_7157" class="st4" d="M390.9,417l207.5,263.8c6,7.6,9,17.9,9,28.2c0,9.4-2.5,18.9-7.6,26.3l-488.9,712.2l-1.5-1.9
				l488.9-712.2c4.7-6.9,7.1-15.7,7.1-24.4c0-9.6-2.8-19.1-8.3-26.2L389.5,419L390.9,417l0.4,0.5L390.9,417z"/>
			<path id="Path_7158" class="st4" d="M451.6,417l194.7,254.3c5.1,6.6,7.6,15.5,7.6,24.3c0,8.5-2.4,17.1-7.1,23.6l-541.3,748.7
				l-1.5-2l541.3-748.7c4.3-6,6.5-13.8,6.5-21.6c0-8.1-2.3-16.2-7-22.3L450.2,419L451.6,417L451.6,417z"/>
			<path id="Path_7159" class="st4" d="M514.5,417l168.9,234.9c6.2,8.6,9.3,19.8,9.3,30.9c0,11.5-3.3,23-9.8,31.7L117.7,1464l-1.4-2
				l565.1-749.6c6.1-8.1,9.2-18.9,9.2-29.6c0-10.4-2.9-20.9-8.7-28.9L513,419L514.5,417z"/>
			<path id="Path_7160" class="st4" d="M575.2,417L727.9,641c5.6,8.1,8.3,18.5,8.3,28.8c0,11.3-3.3,22.6-9.9,31l-612.7,778.8
				l-1.4-2.1l612.7-778.8c6.1-7.8,9.2-18.3,9.2-28.9c0-9.6-2.6-19.3-7.8-26.9L573.7,419L575.2,417L575.2,417z"/>
			<path id="Path_7161" class="st4" d="M630.6,417l144.5,216.7c4.5,7.1,6.9,15.4,6.8,23.8c0,9.7-2.9,19.3-8.6,26.3l-659.7,807.3
				l-1.4-2.1l659.7-807.3c5.3-6.4,7.9-15.3,7.9-24.2c0.1-7.7-2.1-15.3-6.2-21.9L629.1,418.9L630.6,417L630.6,417z"/>
			<path id="Path_7162" class="st4" d="M686.8,417.1l132.8,207.6c3.8,6.2,5.8,13.4,5.7,20.7c0,8.8-2.7,17.6-8,23.9l-694.5,821.8
				l-1.4-2.1L816,667.2c4.8-5.7,7.3-13.7,7.3-21.7c0.1-6.7-1.7-13.2-5.2-18.9L685.3,418.9C685.3,418.9,686.8,417.1,686.8,417.1z"/>
			<path id="Path_7163" class="st4" d="M745.7,417.1l116.2,191.8c4.1,7,6.2,15,6.1,23.1c0,10.4-3.3,20.7-9.5,27.8l-719.3,819.8
				l-1.3-2.2l719.3-819.8c5.8-6.6,8.8-16.1,8.8-25.7c0.1-7.5-1.9-14.8-5.6-21.3L744.1,418.9L745.7,417.1l0.7,1.1L745.7,417.1z"/>
			<path id="Path_7164" class="st4" d="M799,417.1l107.7,178.5c4.1,7.1,6.2,15.2,6.2,23.4c0,10.8-3.4,21.4-10.1,28.7l-756.9,831.8
				l-1.3-2.2l756.9-831.8c6.1-6.7,9.3-16.6,9.3-26.5c0.1-7.6-1.9-15-5.7-21.6L797.3,418.9L799,417.1L799,417.1z"/>
			<path id="Path_7165" class="st4" d="M851.7,417.1l96,166.2c4,7.2,6.1,15.3,6,23.5c0,11.3-3.7,22.5-10.7,30l-792.5,846.4l-1.3-2.2
				l792.5-846.4c6.5-7,9.9-17.3,9.9-27.7c0.1-7.6-1.8-15.1-5.5-21.7l-96-166.2L851.7,417.1L851.7,417.1z"/>
			<path id="Path_7166" class="st4" d="M904.3,417.1l87.2,154.4c3.8,7,5.8,14.8,5.7,22.8c0,11.3-3.7,22.5-10.9,29.9l-830.1,858.9
				l-1.3-2.2L985,622c6.6-6.8,10.1-17.2,10.1-27.6c0.1-7.4-1.7-14.6-5.3-21.1l-87.2-154.4C902.7,418.9,904.3,417.1,904.3,417.1z"/>
			<path id="Path_7167" class="st4" d="M957.8,417.2l74.9,138c4.1,7.9,6.3,16.6,6.2,25.5c0,13.2-4.4,26.2-12.8,34.6l-859.1,864.3
				l-1.2-2.3L1024.8,613c7.8-7.9,12-20,12-32.3c0.1-8.3-1.9-16.5-5.8-23.8l-74.9-138L957.8,417.2L957.8,417.2z"/>
			<path id="Path_7168" class="st4" d="M1009.9,417.2l65.8,125.7c4,7.8,6,16.5,5.9,25.2c0,13.5-4.6,26.9-13.3,35.4l-893.7,876.2
				l-1.2-2.3l893.7-876.2c8.1-8,12.4-20.4,12.4-33.1c0.1-8.2-1.8-16.3-5.6-23.6l-65.8-125.7L1009.9,417.2L1009.9,417.2z"/>
			<path id="Path_7169" class="st4" d="M1061.5,417.2l58.7,115.1c3.7,7.4,5.5,15.5,5.5,23.7c0,13.1-4.6,26.1-13.1,34.2l-932.8,889.5
				l-1.2-2.3l932.8-889.5l0,0c7.9-7.6,12.2-19.6,12.2-31.9c0.1-7.7-1.7-15.2-5.1-22.1l-58.7-115.1L1061.5,417.2z"/>
		</g>
	</g>
</g>
</svg>
