<?xml version="1.0" encoding="UTF-8"?>
<svg id="Layer_1" data-name="Layer 1" xmlns="http://www.w3.org/2000/svg" xmlns:xlink="http://www.w3.org/1999/xlink" viewBox="0 0 2309.39 1080">
  <defs>
    <style>
      .cls-1 {
        clip-path: url(#clippath-2);
      }

      .cls-1, .cls-2, .cls-3, .cls-4, .cls-5, .cls-6 {
        fill: none;
      }

      .cls-7 {
        fill: #fff;
      }

      .cls-8 {
        fill: #1e6144;
      }

      .cls-9 {
        fill: url(#radial-gradient);
      }

      .cls-2 {
        clip-path: url(#clippath-3);
      }

      .cls-4 {
        clip-path: url(#clippath);
      }

      .cls-5 {
        mask: url(#mask);
      }

      .cls-10 {
        fill: #467b64;
      }

      .cls-6 {
        clip-path: url(#clippath-1);
      }
    </style>
    <clipPath id="clippath">
      <rect class="cls-3" x="0" y="-193.61" width="2309.38" height="1091.83"/>
    </clipPath>
    <clipPath id="clippath-1">
      <rect class="cls-3" x="-654.08" y="-36.81" width="1778.79" height="848.43"/>
    </clipPath>
    <radialGradient id="radial-gradient" cx="294.4" cy="459.79" fx="294.4" fy="459.79" r="879.95" gradientUnits="userSpaceOnUse">
      <stop offset="0" stop-color="#595959"/>
      <stop offset=".08" stop-color="#7b7b7b"/>
      <stop offset=".27" stop-color="#d2d2d2"/>
      <stop offset=".35" stop-color="#fff"/>
      <stop offset=".59" stop-color="#fdfdfd"/>
      <stop offset=".68" stop-color="#f6f6f6"/>
      <stop offset=".74" stop-color="#eaeaea"/>
      <stop offset=".79" stop-color="#d9d9d9"/>
      <stop offset=".84" stop-color="#c3c3c3"/>
      <stop offset=".87" stop-color="#a8a8a8"/>
      <stop offset=".91" stop-color="#878787"/>
      <stop offset=".94" stop-color="#626262"/>
      <stop offset=".97" stop-color="#373737"/>
      <stop offset="1" stop-color="#090909"/>
      <stop offset="1" stop-color="#000"/>
    </radialGradient>
    <mask id="mask" x="-1271.03" y="-577.18" width="3120.79" height="2080.2" maskUnits="userSpaceOnUse">
      <rect class="cls-9" x="-1271.03" y="-285.92" width="3120.79" height="1788.94"/>
    </mask>
    <clipPath id="clippath-2">
      <rect class="cls-3" x="-381.54" y="-408.54" width="1352.37" height="1286.04" transform="translate(-4.15 463.65) rotate(-76)"/>
    </clipPath>
    <clipPath id="clippath-3">
      <rect class="cls-3" x="-14.08" y="586.52" width="2337.56" height="514.61"/>
    </clipPath>
  </defs>
  <g class="cls-4">
    <g id="Group_2636" data-name="Group 2636">
      <path id="Path_7731" data-name="Path 7731" class="cls-8" d="m-237.87-20.63h2779.7v918.85H-237.87V-20.63Z"/>
    </g>
    <g class="cls-6">
      <g class="cls-5">
        <g class="cls-1">
          <g id="Group_730" data-name="Group 730">
            <path id="Path_7148" data-name="Path 7148" class="cls-10" d="m835.85,650.94l-87.83-104.67c-7.38-8.8-9.43-22.7-6.17-35.77,1.32-5.37,3.55-10.48,6.58-15.11l216.29-327.66,1.91,2.06-216.29,327.67c-2.74,4.19-4.76,8.82-5.96,13.68-2.95,11.84-1.11,24.42,5.58,32.39l87.83,104.67-1.95,2.74h0Z"/>
            <path id="Path_7149" data-name="Path 7149" class="cls-10" d="m820.73,711.45l-125.24-160.59c-7.68-9.85-9.67-24.81-6.17-38.84,1.58-6.43,4.33-12.52,8.11-17.95L985.49,84.55l1.84,2.16-288.06,409.52c-3.46,4.97-5.98,10.54-7.42,16.42-3.2,12.85-1.39,26.53,5.64,35.54l125.24,160.59-2.01,2.67h0Z"/>
            <path id="Path_7150" data-name="Path 7150" class="cls-10" d="m801.38,788.83l-165.97-238.37c-6.22-8.94-7.68-21.79-4.67-33.84,1.52-6.21,4.26-12.06,8.05-17.21L990.3,29.32l1.77,2.26-351.51,470.08c-3.44,4.66-5.92,9.96-7.29,15.59-2.72,10.92-1.41,22.55,4.23,30.65l165.97,238.37-2.09,2.56h0Z"/>
            <path id="Path_7151" data-name="Path 7151" class="cls-10" d="m783.28,861.33l-201.62-305.3c-6.69-10.12-8.14-24.3-4.83-37.56,1.85-7.63,5.35-14.76,10.23-20.9L1000.94-13.19l1.68,2.38-413.88,510.75c-4.48,5.63-7.68,12.16-9.38,19.15-3.03,12.17-1.7,25.16,4.43,34.43l201.62,305.3-2.13,2.5h0Z"/>
            <path id="Path_7152" data-name="Path 7152" class="cls-10" d="m761.2,949.73l-240.76-393.83c-5.69-9.31-6.82-21.94-3.88-33.74,1.8-7.44,5.3-14.37,10.23-20.23L1013.76-64.54l1.61,2.47-486.98,566.47c-4.48,5.33-7.67,11.63-9.3,18.39-2.68,10.74-1.65,22.22,3.53,30.69l240.77,393.84-2.18,2.42h0Z"/>
            <path id="Path_7153" data-name="Path 7153" class="cls-10" d="m738.24,1041.68l-275.92-483.43c-5.35-9.38-6.32-21.76-3.44-33.31,1.91-7.93,5.73-15.26,11.14-21.36L1023.94-105.26l1.54,2.55L471.55,506.12c-4.92,5.55-8.41,12.23-10.14,19.45-2.63,10.53-1.75,21.79,3.13,30.33l275.93,483.43-2.23,2.35h0Z"/>
            <path id="Path_7154" data-name="Path 7154" class="cls-10" d="m652.77,1020.34l-250.93-460.25c-5.01-9.2-5.85-21.11-3.08-32.23,1.97-8.27,6.09-15.88,11.93-22.05L1041.7-140.34l1.45,2.64L412.14,508.44c-5.31,5.62-9.06,12.53-10.85,20.05-2.52,10.12-1.76,20.93,2.8,29.3l250.93,460.25-2.26,2.29h0Z"/>
            <path id="Path_7155" data-name="Path 7155" class="cls-10" d="m568.12,999.21l-218.86-429.59c-5.84-11.47-6.71-25.99-3.34-39.53,2.57-10.83,8.07-20.75,15.91-28.65L1036.37-154.86l1.38,2.7L363.22,504.14c-7.27,7.33-12.38,16.53-14.76,26.58-3.14,12.58-2.33,26.02,3.09,36.67l218.86,429.59-2.29,2.22h0Z"/>
            <path id="Path_7156" data-name="Path 7156" class="cls-10" d="m486.82,978.9l-199.51-421.7c-3.37-7.12-3.8-15.93-1.75-24.14,1.65-7.01,5.27-13.4,10.43-18.43L1043.89-184.97l1.33,2.75L297.33,517.39c-4.57,4.45-7.77,10.1-9.23,16.31-1.92,7.09-1.38,14.63,1.55,21.37l199.51,421.7-2.33,2.14h0Z"/>
            <path id="Path_7157" data-name="Path 7157" class="cls-10" d="m404.6,958.38l-172.99-385.29c-4.99-11.1-5.54-24.6-2.4-37.19,2.87-11.52,8.85-22.32,17.35-29.85L1060.32-214.72l1.27,2.81L247.82,508.86c-7.89,6.98-13.41,16.97-16.08,27.66-2.91,11.69-2.4,24.17,2.23,34.48l172.99,385.29-2.36,2.09-.32-.7.32.71Z"/>
            <path id="Path_7158" data-name="Path 7158" class="cls-10" d="m330.46,939.88l-160.28-369.73c-4.17-9.62-4.59-21.19-1.9-31.99,2.59-10.4,8.08-20.11,15.87-26.67L1073.02-237.9l1.2,2.87L185.36,514.36c-7.14,6.02-12.16,14.9-14.54,24.43-2.47,9.9-2.09,20.48,1.74,29.3l160.28,369.73-2.38,2.05h0Z"/>
            <path id="Path_7159" data-name="Path 7159" class="cls-10" d="m253.72,920.7l-134.71-338.18c-4.93-12.38-5.3-26.96-1.91-40.57,3.5-14.04,11.01-27.08,21.62-35.67L1056.92-236.93l1.15,2.91L139.87,509.19c-9.94,8.05-16.96,20.24-20.24,33.39-3.18,12.75-2.84,26.38,1.78,37.98l134.71,338.18-2.41,1.96Z"/>
            <path id="Path_7160" data-name="Path 7160" class="cls-10" d="m179.57,902.18l-118.27-319.9c-4.3-11.64-4.52-25.1-1.38-37.68,3.45-13.82,10.94-26.61,21.48-34.79L1066.63-254.58l1.1,2.95L82.51,512.76c-9.85,7.64-16.83,19.56-20.05,32.47-2.93,11.75-2.73,24.3,1.29,35.17l118.27,319.9-2.44,1.88h0Z"/>
            <path id="Path_7161" data-name="Path 7161" class="cls-10" d="m111.94,885.3L1.41,576.76c-3.36-10.04-3.71-20.84-1.01-31.08,2.95-11.82,9.43-22.72,18.53-29.51L1070.19-268.75l1.06,2.99L20,519.16c-8.38,6.26-14.34,16.27-17.05,27.16-2.49,9.42-2.16,19.36.92,28.6l110.53,308.55-2.46,1.85h0Z"/>
            <path id="Path_7162" data-name="Path 7162" class="cls-10" d="m43.33,868.17l-98.97-293.97c-2.77-8.78-2.99-18.16-.66-27.06,2.69-10.78,8.67-20.69,17.02-26.71L1058.93-271.57l1.01,3.02L-38.26,523.44c-7.61,5.49-13.05,14.5-15.5,24.32-2.13,8.11-1.92,16.65.6,24.64l98.97,293.97s-2.48,1.79-2.48,1.79Z"/>
            <path id="Path_7163" data-name="Path 7163" class="cls-10" d="m-28.54,850.21l-83.5-269.55c-2.85-9.79-2.99-20.16-.42-30.02,3.16-12.66,10.26-24.24,20.13-31.09L1035.49-262.41l.97,3.05L-91.36,522.6c-9.11,6.31-15.65,16.99-18.57,28.67-2.37,9.09-2.24,18.66.39,27.68L-26.03,848.51l-2.5,1.71-.47-1.53.47,1.52Z"/>
            <path id="Path_7164" data-name="Path 7164" class="cls-10" d="m-93.56,834l-77.1-250.75c-2.87-9.92-3.01-20.44-.4-30.43,3.28-13.14,10.73-25.13,21.06-32.02L1027.42-264.44l.92,3.08L-149.08,523.87c-9.54,6.37-16.42,17.43-19.45,29.57-2.41,9.23-2.28,18.94.37,28.1l77.1,250.75-2.5,1.7h0Z"/>
            <path id="Path_7165" data-name="Path 7165" class="cls-10" d="m-158.02,817.89l-66.58-232.11c-2.7-9.98-2.75-20.49-.15-30.49,3.43-13.77,11.32-26.29,22.18-33.32L1022.73-270.22l.89,3.1L-201.67,525.07c-10.07,6.51-17.36,18.09-20.54,30.85-2.41,9.26-2.36,18.99.14,28.23l66.58,232.11-2.52,1.63h0Z"/>
            <path id="Path_7166" data-name="Path 7166" class="cls-10" d="m-222.18,801.88l-59.41-215.11c-2.53-9.7-2.53-19.88-.02-29.57,3.44-13.8,11.42-26.32,22.38-33.16L1015.81-271.96l.85,3.13L-258.38,527.16c-10.14,6.33-17.5,17.89-20.69,30.66-2.33,8.97-2.32,18.38.02,27.35l59.41,215.11s-2.53,1.6-2.53,1.6Z"/>
            <path id="Path_7167" data-name="Path 7167" class="cls-10" d="m-287.5,785.57l-49.43-191.3c-2.66-10.86-2.58-22.21.22-33.04,4.01-16.08,13.39-30.62,26.19-38.37L1001.59-270.93l.82,3.15L-309.71,526.02c-11.97,7.24-20.72,20.81-24.48,35.85-2.62,10.11-2.68,20.72-.2,30.87l49.43,191.3-2.55,1.54h0Z"/>
            <path id="Path_7168" data-name="Path 7168" class="cls-10" d="m-351.09,769.69l-42.08-173.49c-2.47-10.75-2.32-21.93.43-32.61,4.12-16.51,13.82-31.38,27-39.13L992.23-273.27l.79,3.17L-364.95,527.63c-12.33,7.25-21.4,21.14-25.25,36.59-2.57,9.98-2.71,20.44-.4,30.49l42.08,173.49-2.56,1.48h0Z"/>
            <path id="Path_7169" data-name="Path 7169" class="cls-10" d="m-414.1,753.96l-36.64-158.35c-2.22-10.11-2.03-20.61.55-30.63,4-16.03,13.49-30.43,26.34-37.74L985.89-274.87l.75,3.18L-423.1,530.42h0c-11.98,6.82-20.83,20.23-24.56,35.19-2.4,9.35-2.58,19.13-.51,28.56l36.64,158.35-2.57,1.45Z"/>
          </g>
        </g>
      </g>
    </g>
  </g>
  <g>
    <rect class="cls-7" x="-14.08" y="586.52" width="2337.56" height="514.61"/>
    <g class="cls-2">
      <g id="Group_2636-2" data-name="Group 2636-2">
        <path id="Path_7731-2" data-name="Path 7731-2" class="cls-7" d="m-18.95,668.05h2340.79v433.08H-18.95v-433.08Z"/>
      </g>
    </g>
  </g>
</svg>